NotoAmalgamated-CondensedSemiBoldItalic.ufo
<glyph name="quotedbl" format="2">
  <advance width="395"/>
  <unicode hex="0022"/>
  <outline>
    <contour>
      <point x="276" y="456" type="line"/>
      <point x="374" y="456" type="line"/>
      <point x="445" y="714" type="line"/>
      <point x="315" y="714" type="line"/>
    </contour>
    <contour>
      <point x="95" y="456" type="line"/>
      <point x="193" y="456" type="line"/>
      <point x="263" y="714" type="line"/>
      <point x="134" y="714" type="line"/>
    </contour>
  </outline>
</glyph>
<glyph name="numbersign" format="2">
  <advance width="478"/>
  <unicode hex="0023"/>
  <outline>
    <contour>
      <point x="13" y="0" type="line"/>
      <point x="103" y="0" type="line"/>
      <point x="166" y="204" type="line"/>
      <point x="242" y="204" type="line"/>
      <point x="178" y="0" type="line"/>
      <point x="268" y="0" type="line"/>
      <point x="333" y="204" type="line"/>
      <point x="425" y="204" type="line"/>
      <point x="441" y="293" type="line"/>
      <point x="360" y="293" type="line"/>
      <point x="403" y="429" type="line"/>
      <point x="490" y="429" type="line"/>
      <point x="506" y="519" type="line"/>
      <point x="430" y="519" type="line"/>
      <point x="492" y="714" type="line"/>
      <point x="401" y="714" type="line"/>
      <point x="340" y="519" type="line"/>
      <point x="265" y="519" type="line"/>
      <point x="327" y="714" type="line"/>
      <point x="236" y="714" type="line"/>
      <point x="175" y="519" type="line"/>
      <point x="84" y="519" type="line"/>
      <point x="68" y="429" type="line"/>
      <point x="148" y="429" type="line"/>
      <point x="104" y="293" type="line"/>
      <point x="18" y="293" type="line"/>
      <point x="2" y="204" type="line"/>
      <point x="77" y="204" type="line"/>
    </contour>
    <contour>
      <point x="195" y="293" type="line"/>
      <point x="238" y="429" type="line"/>
      <point x="313" y="429" type="line"/>
      <point x="270" y="293" type="line"/>
    </contour>
  </outline>
</glyph>
<glyph name="dollar" format="2">
  <advance width="434"/>
  <unicode hex="0024"/>
  <outline>
    <contour>
      <point x="143" y="41" type="curve"/>
      <point x="122" y="-59" type="line"/>
      <point x="167" y="-58" type="line"/>
      <point x="188" y="41" type="line"/>
      <point x="291" y="50"/>
      <point x="379" y="118"/>
      <point x="379" y="248" type="curve" smooth="yes"/>
      <point x="379" y="337"/>
      <point x="322" y="378"/>
      <point x="267" y="415" type="curve"/>
      <point x="303" y="582" type="line"/>
      <point x="338" y="578"/>
      <point x="369" y="563"/>
      <point x="399" y="540" type="curve"/>
      <point x="453" y="643" type="line"/>
      <point x="422" y="663"/>
      <point x="386" y="681"/>
      <point x="325" y="685" type="curve"/>
      <point x="340" y="759" type="line"/>
      <point x="295" y="759" type="line"/>
      <point x="279" y="685" type="line"/>
      <point x="180" y="678"/>
      <point x="90" y="618"/>
      <point x="90" y="484" type="curve" smooth="yes"/>
      <point x="90" y="399"/>
      <point x="150" y="355"/>
      <point x="202" y="321" type="curve"/>
      <point x="165" y="144" type="line"/>
      <point x="113" y="148"/>
      <point x="65" y="174"/>
      <point x="30" y="204" type="curve"/>
      <point x="7" y="82" type="line"/>
      <point x="38" y="60"/>
      <point x="79" y="43"/>
    </contour>
    <contour>
      <point x="211" y="148" type="curve"/>
      <point x="241" y="292" type="line"/>
      <point x="264" y="270"/>
      <point x="273" y="252"/>
      <point x="273" y="225" type="curve" smooth="yes"/>
      <point x="273" y="185"/>
      <point x="252" y="156"/>
    </contour>
    <contour>
      <point x="257" y="581" type="curve"/>
      <point x="228" y="444" type="line"/>
      <point x="205" y="464"/>
      <point x="195" y="482"/>
      <point x="195" y="504" type="curve" smooth="yes"/>
      <point x="195" y="544"/>
      <point x="215" y="574"/>
    </contour>
  </outline>
</glyph>
<glyph name="dollar.serif" format="2">
  <advance width="486"/>
  <unicode hex="0024"/>
  <outline>
    <contour>
      <point x="187" y="38" type="curve"/>
      <point x="162" y="-79" type="line"/>
      <point x="207" y="-79" type="line"/>
      <point x="231" y="37" type="line"/>
      <point x="359" y="41"/>
      <point x="438" y="115"/>
      <point x="438" y="238" type="curve" smooth="yes"/>
      <point x="438" y="313"/>
      <point x="406" y="365"/>
      <point x="336" y="408" type="curve" smooth="yes"/>
      <point x="315" y="420" type="line"/>
      <point x="356" y="627" type="line"/>
      <point x="385" y="609"/>
      <point x="397" y="550"/>
      <point x="395" y="502" type="curve"/>
      <point x="455" y="502"/>
      <point x="499" y="542"/>
      <point x="497" y="593" type="curve" smooth="yes"/>
      <point x="495" y="646"/>
      <point x="453" y="678"/>
      <point x="369" y="685" type="curve"/>
      <point x="386" y="760" type="line"/>
      <point x="340" y="760" type="line"/>
      <point x="325" y="686" type="line"/>
      <point x="207" y="681"/>
      <point x="129" y="617"/>
      <point x="129" y="491" type="curve" smooth="yes"/>
      <point x="129" y="414"/>
      <point x="169" y="364"/>
      <point x="243" y="319" type="curve"/>
      <point x="200" y="97" type="line"/>
      <point x="163" y="115"/>
      <point x="140" y="168"/>
      <point x="143" y="260" type="curve"/>
      <point x="78" y="260"/>
      <point x="42" y="213"/>
      <point x="42" y="154" type="curve" smooth="yes"/>
      <point x="42" y="90"/>
      <point x="91" y="46"/>
    </contour>
    <contour>
      <point x="244" y="91" type="curve"/>
      <point x="284" y="292" type="line"/>
      <point x="315" y="265"/>
      <point x="328" y="239"/>
      <point x="328" y="206" type="curve" smooth="yes"/>
      <point x="328" y="140"/>
      <point x="293" y="94"/>
    </contour>
    <contour>
      <point x="310" y="633" type="curve"/>
      <point x="275" y="447" type="line"/>
      <point x="253" y="470"/>
      <point x="241" y="492"/>
      <point x="241" y="528" type="curve" smooth="yes"/>
      <point x="241" y="592"/>
      <point x="275" y="625"/>
    </contour>
  </outline>
</glyph>
<glyph name="percent" format="2">
  <advance width="704"/>
  <unicode hex="0025"/>
  <outline>
    <contour>
      <point x="122" y="0" type="line"/>
      <point x="217" y="0" type="line"/>
      <point x="604" y="714" type="line"/>
      <point x="509" y="714" type="line"/>
    </contour>
    <contour>
      <point x="154" y="276" type="curve" smooth="yes"/>
      <point x="285" y="276"/>
      <point x="338" y="488"/>
      <point x="338" y="591" type="curve" smooth="yes"/>
      <point x="338" y="682"/>
      <point x="298" y="724"/>
      <point x="236" y="724" type="curve" smooth="yes"/>
      <point x="107" y="724"/>
      <point x="52" y="518"/>
      <point x="52" y="408" type="curve" smooth="yes"/>
      <point x="52" y="319"/>
      <point x="88" y="276"/>
    </contour>
    <contour>
      <point x="165" y="361" type="curve" smooth="yes"/>
      <point x="151" y="361"/>
      <point x="142" y="375"/>
      <point x="142" y="407" type="curve" smooth="yes"/>
      <point x="142" y="471"/>
      <point x="176" y="638"/>
      <point x="224" y="638" type="curve" smooth="yes"/>
      <point x="239" y="638"/>
      <point x="246" y="624"/>
      <point x="246" y="593" type="curve" smooth="yes"/>
      <point x="246" y="531"/>
      <point x="213" y="361"/>
    </contour>
    <contour>
      <point x="494" y="-9" type="curve" smooth="yes"/>
      <point x="623" y="-9"/>
      <point x="677" y="200"/>
      <point x="677" y="306" type="curve" smooth="yes"/>
      <point x="677" y="398"/>
      <point x="637" y="439"/>
      <point x="575" y="439" type="curve" smooth="yes"/>
      <point x="458" y="439"/>
      <point x="392" y="257"/>
      <point x="392" y="123" type="curve" smooth="yes"/>
      <point x="392" y="34"/>
      <point x="427" y="-9"/>
    </contour>
    <contour>
      <point x="505" y="77" type="curve" smooth="yes"/>
      <point x="490" y="77"/>
      <point x="482" y="91"/>
      <point x="482" y="122" type="curve" smooth="yes"/>
      <point x="482" y="173"/>
      <point x="511" y="353"/>
      <point x="563" y="353" type="curve" smooth="yes"/>
      <point x="578" y="353"/>
      <point x="586" y="339"/>
      <point x="586" y="308" type="curve" smooth="yes"/>
      <point x="586" y="243"/>
      <point x="553" y="77"/>
    </contour>
  </outline>
</glyph>
<glyph name="ampersand" format="2">
  <advance width="516"/>
  <unicode hex="0026"/>
  <outline>
    <contour>
      <point x="142" y="-10" type="curve" smooth="yes"/>
      <point x="205" y="-10"/>
      <point x="245" y="14"/>
      <point x="294" y="51" type="curve"/>
      <point x="312" y="0" type="line"/>
      <point x="459" y="0" type="line"/>
      <point x="397" y="140" type="line"/>
      <point x="442" y="203"/>
      <point x="487" y="293"/>
      <point x="512" y="371" type="curve"/>
      <point x="389" y="371" type="line"/>
      <point x="375" y="324"/>
      <point x="359" y="285"/>
      <point x="343" y="254" type="curve"/>
      <point x="298" y="376" type="line"/>
      <point x="380" y="440"/>
      <point x="434" y="517"/>
      <point x="434" y="605" type="curve" smooth="yes"/>
      <point x="434" y="686"/>
      <point x="373" y="723"/>
      <point x="307" y="723" type="curve" smooth="yes"/>
      <point x="197" y="723"/>
      <point x="128" y="632"/>
      <point x="128" y="519" type="curve" smooth="yes"/>
      <point x="128" y="470"/>
      <point x="137" y="430"/>
      <point x="153" y="392" type="curve"/>
      <point x="58" y="330"/>
      <point x="-2" y="244"/>
      <point x="-2" y="139" type="curve" smooth="yes"/>
      <point x="-2" y="45"/>
      <point x="53" y="-10"/>
    </contour>
    <contour>
      <point x="172" y="98" type="curve" smooth="yes"/>
      <point x="141" y="98"/>
      <point x="124" y="120"/>
      <point x="124" y="160" type="curve" smooth="yes"/>
      <point x="124" y="220"/>
      <point x="148" y="271"/>
      <point x="191" y="309" type="curve"/>
      <point x="252" y="145" type="line"/>
      <point x="228" y="119"/>
      <point x="204" y="98"/>
    </contour>
    <contour>
      <point x="257" y="457" type="curve"/>
      <point x="248" y="482"/>
      <point x="244" y="507"/>
      <point x="244" y="539" type="curve" smooth="yes"/>
      <point x="244" y="579"/>
      <point x="257" y="633"/>
      <point x="291" y="633" type="curve" smooth="yes"/>
      <point x="314" y="633"/>
      <point x="320" y="612"/>
      <point x="320" y="589" type="curve" smooth="yes"/>
      <point x="320" y="540"/>
      <point x="293" y="490"/>
    </contour>
  </outline>
</glyph>
<glyph name="ampersand.serif" format="2">
  <advance width="658"/>
  <unicode hex="0026"/>
  <outline>
    <contour>
      <point x="218" y="-10" type="curve" smooth="yes"/>
      <point x="296" y="-10"/>
      <point x="357" y="24"/>
      <point x="404" y="73" type="curve"/>
      <point x="439" y="0" type="line"/>
      <point x="601" y="0" type="line"/>
      <point x="612" y="50" type="line"/>
      <point x="608" y="50" type="line" smooth="yes"/>
      <point x="560" y="50"/>
      <point x="542" y="71"/>
      <point x="522" y="107" type="curve" smooth="yes"/>
      <point x="485" y="172" type="line"/>
      <point x="510" y="219"/>
      <point x="529" y="267"/>
      <point x="547" y="307" type="curve" smooth="yes"/>
      <point x="574" y="368"/>
      <point x="610" y="375"/>
      <point x="646" y="375" type="curve" smooth="yes"/>
      <point x="653" y="375" type="line"/>
      <point x="664" y="425" type="line"/>
      <point x="499" y="425" type="line"/>
      <point x="491" y="386" type="line" smooth="yes"/>
      <point x="481" y="336"/>
      <point x="467" y="281"/>
      <point x="448" y="230" type="curve"/>
      <point x="357" y="401" type="line"/>
      <point x="479" y="459"/>
      <point x="520" y="501"/>
      <point x="520" y="600" type="curve" smooth="yes"/>
      <point x="520" y="669"/>
      <point x="476" y="724"/>
      <point x="379" y="724" type="curve" smooth="yes"/>
      <point x="258" y="724"/>
      <point x="190" y="663"/>
      <point x="190" y="543" type="curve" smooth="yes"/>
      <point x="190" y="499"/>
      <point x="201" y="452"/>
      <point x="222" y="404" type="curve"/>
      <point x="121" y="360"/>
      <point x="34" y="308"/>
      <point x="34" y="168" type="curve" smooth="yes"/>
      <point x="34" y="67"/>
      <point x="90" y="-10"/>
    </contour>
    <contour>
      <point x="250" y="54" type="curve" smooth="yes"/>
      <point x="194" y="54"/>
      <point x="162" y="106"/>
      <point x="162" y="176" type="curve" smooth="yes"/>
      <point x="162" y="254"/>
      <point x="185" y="304"/>
      <point x="252" y="352" type="curve"/>
      <point x="374" y="124" type="line"/>
      <point x="339" y="82"/>
      <point x="298" y="54"/>
    </contour>
    <contour>
      <point x="332" y="447" type="curve"/>
      <point x="315" y="484"/>
      <point x="306" y="518"/>
      <point x="306" y="553" type="curve" smooth="yes"/>
      <point x="306" y="621"/>
      <point x="327" y="667"/>
      <point x="374" y="667" type="curve" smooth="yes"/>
      <point x="407" y="667"/>
      <point x="425" y="640"/>
      <point x="425" y="591" type="curve" smooth="yes"/>
      <point x="425" y="521"/>
      <point x="401" y="487"/>
    </contour>
  </outline>
</glyph>
<glyph name="parenleft" format="2">
  <advance width="270"/>
  <unicode hex="0028"/>
  <outline>
    <contour>
      <point x="56" y="-158" type="curve"/>
      <point x="158" y="-158" type="line"/>
      <point x="134" y="-85"/>
      <point x="126" y="0"/>
      <point x="126" y="88" type="curve" smooth="yes"/>
      <point x="126" y="312"/>
      <point x="221" y="561"/>
      <point x="346" y="727" type="curve"/>
      <point x="244" y="727" type="line"/>
      <point x="105" y="573"/>
      <point x="15" y="302"/>
      <point x="15" y="85" type="curve" smooth="yes"/>
      <point x="15" y="5"/>
      <point x="28" y="-100"/>
    </contour>
  </outline>
</glyph>
<glyph name="parenright" format="2">
  <advance width="270"/>
  <unicode hex="0029"/>
  <outline>
    <contour>
      <point x="-77" y="-158" type="curve"/>
      <point x="25" y="-158" type="line"/>
      <point x="160" y="-8"/>
      <point x="253" y="255"/>
      <point x="253" y="483" type="curve" smooth="yes"/>
      <point x="253" y="571"/>
      <point x="243" y="656"/>
      <point x="213" y="727" type="curve"/>
      <point x="110" y="727" type="line"/>
      <point x="134" y="659"/>
      <point x="142" y="564"/>
      <point x="142" y="480" type="curve" smooth="yes"/>
      <point x="142" y="257"/>
      <point x="47" y="8"/>
    </contour>
  </outline>
</glyph>
<glyph name="asterisk" format="2">
  <advance width="403"/>
  <unicode hex="002A"/>
  <outline>
    <contour>
      <point x="301" y="363" type="line"/>
      <point x="397" y="420" type="line"/>
      <point x="320" y="538" type="line"/>
      <point x="444" y="541" type="line"/>
      <point x="434" y="651" type="line"/>
      <point x="312" y="619" type="line"/>
      <point x="344" y="753" type="line"/>
      <point x="232" y="767" type="line"/>
      <point x="229" y="628" type="line"/>
      <point x="119" y="690" type="line"/>
      <point x="82" y="586" type="line"/>
      <point x="201" y="552" type="line"/>
      <point x="98" y="457" type="line"/>
      <point x="178" y="378" type="line"/>
      <point x="255" y="490" type="line"/>
    </contour>
  </outline>
</glyph>
<glyph name="plus" format="2">
  <advance width="473"/>
  <unicode hex="002B"/>
  <outline>
    <contour>
      <point x="301" y="406" type="line"/>
      <point x="301" y="594" type="line"/>
      <point x="193" y="594" type="line"/>
      <point x="193" y="406" type="line"/>
      <point x="43" y="406" type="line"/>
      <point x="43" y="300" type="line"/>
      <point x="193" y="300" type="line"/>
      <point x="193" y="114" type="line"/>
      <point x="301" y="114" type="line"/>
      <point x="301" y="300" type="line"/>
      <point x="450" y="300" type="line"/>
      <point x="450" y="406" type="line"/>
    </contour>
  </outline>
</glyph>
<glyph name="comma" format="2">
  <advance width="232"/>
  <unicode hex="002C"/>
  <outline>
    <contour>
      <point x="-52" y="-135" type="curve"/>
      <point x="46" y="-135" type="line"/>
      <point x="88" y="-63"/>
      <point x="129" y="25"/>
      <point x="162" y="119" type="curve"/>
      <point x="159" y="130" type="line"/>
      <point x="40" y="130" type="line"/>
      <point x="19" y="51"/>
      <point x="-22" y="-58"/>
    </contour>
  </outline>
</glyph>
<glyph name="hyphen" format="2">
  <advance width="285"/>
  <unicode hex="002D"/>
  <outline>
    <contour>
      <point x="12" y="211" type="line"/>
      <point x="245" y="211" type="line"/>
      <point x="270" y="326" type="line"/>
      <point x="36" y="326" type="line"/>
    </contour>
  </outline>
</glyph>
<glyph name="slash" format="2">
  <advance width="367"/>
  <unicode hex="002F"/>
  <outline>
    <contour>
      <point x="-53" y="-6" type="line"/>
      <point x="58" y="-6" type="line"/>
      <point x="451" y="720" type="line"/>
      <point x="339" y="720" type="line"/>
    </contour>
  </outline>
</glyph>
<glyph name="zero" format="2">
  <advance width="434"/>
  <unicode hex="0030"/>
  <outline>
    <contour>
      <point x="163" y="-10" type="curve" smooth="yes"/>
      <point x="351" y="-10"/>
      <point x="434" y="350"/>
      <point x="434" y="535" type="curve" smooth="yes"/>
      <point x="434" y="666"/>
      <point x="390" y="724"/>
      <point x="297" y="724" type="curve" smooth="yes"/>
      <point x="100" y="724"/>
      <point x="27" y="335"/>
      <point x="27" y="177" type="curve" smooth="yes"/>
      <point x="27" y="48"/>
      <point x="71" y="-10"/>
    </contour>
    <contour>
      <point x="177" y="101" type="curve" smooth="yes"/>
      <point x="153" y="101"/>
      <point x="143" y="123"/>
      <point x="143" y="173" type="curve" smooth="yes"/>
      <point x="143" y="269"/>
      <point x="208" y="613"/>
      <point x="285" y="613" type="curve" smooth="yes"/>
      <point x="309" y="613"/>
      <point x="317" y="590"/>
      <point x="317" y="543" type="curve" smooth="yes"/>
      <point x="317" y="433"/>
      <point x="254" y="101"/>
    </contour>
  </outline>
</glyph>
<glyph name="one" format="2">
  <advance width="434"/>
  <unicode hex="0031"/>
  <outline>
    <contour>
      <point x="234" y="437" type="curve" smooth="yes"/>
      <point x="142" y="0" type="line"/>
      <point x="265" y="0" type="line"/>
      <point x="417" y="714" type="line"/>
      <point x="306" y="714" type="line"/>
      <point x="96" y="521" type="line"/>
      <point x="153" y="443" type="line"/>
      <point x="226" y="510" type="line" smooth="yes"/>
      <point x="239" y="521"/>
      <point x="250" y="534"/>
      <point x="261" y="546" type="curve"/>
      <point x="248" y="499"/>
      <point x="244" y="480"/>
    </contour>
  </outline>
</glyph>
<glyph name="two" format="2">
  <advance width="434"/>
  <unicode hex="0032"/>
  <outline>
    <contour>
      <point x="-30" y="0" type="line"/>
      <point x="322" y="0" type="line"/>
      <point x="345" y="110" type="line"/>
      <point x="136" y="110" type="line"/>
      <point x="136" y="113" type="line"/>
      <point x="267" y="259" type="line" smooth="yes"/>
      <point x="361" y="362"/>
      <point x="432" y="463"/>
      <point x="432" y="578" type="curve" smooth="yes"/>
      <point x="432" y="667"/>
      <point x="373" y="724"/>
      <point x="286" y="724" type="curve" smooth="yes"/>
      <point x="216" y="724"/>
      <point x="156" y="694"/>
      <point x="101" y="633" type="curve"/>
      <point x="143" y="545" type="line"/>
      <point x="177" y="576"/>
      <point x="218" y="614"/>
      <point x="257" y="614" type="curve" smooth="yes"/>
      <point x="289" y="614"/>
      <point x="304" y="592"/>
      <point x="304" y="553" type="curve" smooth="yes"/>
      <point x="304" y="466"/>
      <point x="235" y="378"/>
      <point x="162" y="292" type="curve" smooth="yes"/>
      <point x="-12" y="89" type="line"/>
    </contour>
  </outline>
</glyph>
<glyph name="three" format="2">
  <advance width="434"/>
  <unicode hex="0033"/>
  <outline>
    <contour>
      <point x="125" y="-10" type="curve" smooth="yes"/>
      <point x="279" y="-10"/>
      <point x="376" y="99"/>
      <point x="376" y="234" type="curve" smooth="yes"/>
      <point x="376" y="309"/>
      <point x="341" y="355"/>
      <point x="282" y="371" type="curve"/>
      <point x="282" y="374" type="line"/>
      <point x="377" y="405"/>
      <point x="439" y="486"/>
      <point x="439" y="585" type="curve" smooth="yes"/>
      <point x="439" y="681"/>
      <point x="370" y="724"/>
      <point x="283" y="724" type="curve" smooth="yes"/>
      <point x="219" y="724"/>
      <point x="168" y="707"/>
      <point x="112" y="665" type="curve"/>
      <point x="139" y="570" type="line"/>
      <point x="181" y="601"/>
      <point x="221" y="616"/>
      <point x="254" y="616" type="curve" smooth="yes"/>
      <point x="293" y="616"/>
      <point x="311" y="594"/>
      <point x="311" y="554" type="curve" smooth="yes"/>
      <point x="311" y="473"/>
      <point x="256" y="420"/>
      <point x="171" y="420" type="curve" smooth="yes"/>
      <point x="135" y="420" type="line"/>
      <point x="113" y="314" type="line"/>
      <point x="149" y="314" type="line" smooth="yes"/>
      <point x="216" y="314"/>
      <point x="246" y="285"/>
      <point x="246" y="227" type="curve" smooth="yes"/>
      <point x="246" y="151"/>
      <point x="201" y="98"/>
      <point x="125" y="98" type="curve" smooth="yes"/>
      <point x="86" y="98"/>
      <point x="30" y="110"/>
      <point x="-10" y="142" type="curve"/>
      <point x="-10" y="23" type="line"/>
      <point x="34" y="-1"/>
      <point x="68" y="-10"/>
    </contour>
  </outline>
</glyph>
<glyph name="four" format="2">
  <advance width="434"/>
  <unicode hex="0034"/>
  <outline>
    <contour>
      <point x="170" y="0" type="line"/>
      <point x="291" y="0" type="line"/>
      <point x="322" y="147" type="line"/>
      <point x="387" y="147" type="line"/>
      <point x="409" y="251" type="line"/>
      <point x="344" y="251" type="line"/>
      <point x="443" y="717" type="line"/>
      <point x="321" y="717" type="line"/>
      <point x="8" y="245" type="line"/>
      <point x="-13" y="147" type="line"/>
      <point x="201" y="147" type="line"/>
    </contour>
    <contour>
      <point x="106" y="251" type="line"/>
      <point x="249" y="478" type="line" smooth="yes"/>
      <point x="259" y="492"/>
      <point x="267" y="508"/>
      <point x="287" y="545" type="curve"/>
      <point x="290" y="545" type="line"/>
      <point x="284" y="522"/>
      <point x="275" y="492"/>
      <point x="270" y="471" type="curve" smooth="yes"/>
      <point x="223" y="251" type="line"/>
    </contour>
  </outline>
</glyph>
<glyph name="five" format="2">
  <advance width="434"/>
  <unicode hex="0035"/>
  <outline>
    <contour>
      <point x="134" y="-10" type="curve" smooth="yes"/>
      <point x="320" y="-10"/>
      <point x="388" y="146"/>
      <point x="388" y="281" type="curve" smooth="yes"/>
      <point x="388" y="391"/>
      <point x="337" y="454"/>
      <point x="256" y="454" type="curve" smooth="yes"/>
      <point x="240" y="454"/>
      <point x="223" y="452"/>
      <point x="203" y="447" type="curve"/>
      <point x="246" y="603" type="line"/>
      <point x="423" y="603" type="line"/>
      <point x="447" y="714" type="line"/>
      <point x="163" y="714" type="line"/>
      <point x="70" y="365" type="line"/>
      <point x="106" y="330" type="line"/>
      <point x="132" y="340"/>
      <point x="156" y="348"/>
      <point x="181" y="348" type="curve" smooth="yes"/>
      <point x="233" y="348"/>
      <point x="258" y="316"/>
      <point x="258" y="257" type="curve" smooth="yes"/>
      <point x="258" y="177"/>
      <point x="214" y="98"/>
      <point x="134" y="98" type="curve" smooth="yes"/>
      <point x="84" y="98"/>
      <point x="37" y="116"/>
      <point x="5" y="144" type="curve"/>
      <point x="5" y="17" type="line"/>
      <point x="34" y="1"/>
      <point x="77" y="-10"/>
    </contour>
  </outline>
</glyph>
<glyph name="six" format="2">
  <advance width="434"/>
  <unicode hex="0036"/>
  <outline>
    <contour>
      <point x="182" y="-10" type="curve" smooth="yes"/>
      <point x="339" y="-10"/>
      <point x="405" y="174"/>
      <point x="405" y="304" type="curve" smooth="yes"/>
      <point x="405" y="396"/>
      <point x="373" y="464"/>
      <point x="295" y="464" type="curve" smooth="yes"/>
      <point x="248" y="464"/>
      <point x="208" y="438"/>
      <point x="180" y="396" type="curve"/>
      <point x="177" y="396" type="line"/>
      <point x="216" y="540"/>
      <point x="278" y="618"/>
      <point x="366" y="618" type="curve" smooth="yes"/>
      <point x="390" y="618"/>
      <point x="414" y="614"/>
      <point x="439" y="606" type="curve"/>
      <point x="463" y="714" type="line"/>
      <point x="436" y="721"/>
      <point x="407" y="724"/>
      <point x="365" y="724" type="curve" smooth="yes"/>
      <point x="281" y="724"/>
      <point x="214" y="676"/>
      <point x="166" y="617" type="curve" smooth="yes"/>
      <point x="77" y="511"/>
      <point x="28" y="333"/>
      <point x="28" y="190" type="curve" smooth="yes"/>
      <point x="28" y="68"/>
      <point x="73" y="-10"/>
    </contour>
    <contour>
      <point x="189" y="99" type="curve" smooth="yes"/>
      <point x="165" y="99"/>
      <point x="150" y="126"/>
      <point x="150" y="178" type="curve" smooth="yes"/>
      <point x="150" y="222"/>
      <point x="160" y="279"/>
      <point x="179" y="308" type="curve" smooth="yes"/>
      <point x="191" y="336"/>
      <point x="213" y="358"/>
      <point x="241" y="358" type="curve" smooth="yes"/>
      <point x="266" y="358"/>
      <point x="280" y="335"/>
      <point x="280" y="293" type="curve" smooth="yes"/>
      <point x="280" y="232"/>
      <point x="256" y="99"/>
    </contour>
  </outline>
</glyph>
<glyph name="seven" format="2">
  <advance width="434"/>
  <unicode hex="0037"/>
  <outline>
    <contour>
      <point x="29" y="0" type="line"/>
      <point x="157" y="0" type="line"/>
      <point x="465" y="628" type="line"/>
      <point x="483" y="713" type="line"/>
      <point x="121" y="713" type="line"/>
      <point x="98" y="602" type="line"/>
      <point x="335" y="602" type="line"/>
    </contour>
  </outline>
</glyph>
<glyph name="eight" format="2">
  <advance width="434"/>
  <unicode hex="0038"/>
  <outline>
    <contour>
      <point x="176" y="-10" type="curve" smooth="yes"/>
      <point x="300" y="-10"/>
      <point x="384" y="94"/>
      <point x="384" y="207" type="curve" smooth="yes"/>
      <point x="384" y="270"/>
      <point x="362" y="323"/>
      <point x="308" y="374" type="curve"/>
      <point x="395" y="424"/>
      <point x="447" y="495"/>
      <point x="447" y="583" type="curve" smooth="yes"/>
      <point x="447" y="673"/>
      <point x="388" y="724"/>
      <point x="297" y="724" type="curve" smooth="yes"/>
      <point x="172" y="724"/>
      <point x="98" y="636"/>
      <point x="98" y="521" type="curve" smooth="yes"/>
      <point x="98" y="469"/>
      <point x="116" y="418"/>
      <point x="155" y="375" type="curve"/>
      <point x="57" y="317"/>
      <point x="2" y="248"/>
      <point x="2" y="148" type="curve" smooth="yes"/>
      <point x="2" y="48"/>
      <point x="66" y="-10"/>
    </contour>
    <contour>
      <point x="178" y="91" type="curve" smooth="yes"/>
      <point x="142" y="91"/>
      <point x="121" y="119"/>
      <point x="121" y="157" type="curve" smooth="yes"/>
      <point x="121" y="229"/>
      <point x="163" y="278"/>
      <point x="217" y="312" type="curve"/>
      <point x="247" y="279"/>
      <point x="266" y="242"/>
      <point x="266" y="200" type="curve" smooth="yes"/>
      <point x="265" y="143"/>
      <point x="236" y="91"/>
    </contour>
    <contour>
      <point x="247" y="437" type="curve"/>
      <point x="227" y="462"/>
      <point x="213" y="492"/>
      <point x="213" y="527" type="curve" smooth="yes"/>
      <point x="213" y="585"/>
      <point x="239" y="623"/>
      <point x="281" y="623" type="curve" smooth="yes"/>
      <point x="309" y="623"/>
      <point x="327" y="604"/>
      <point x="327" y="565" type="curve" smooth="yes"/>
      <point x="327" y="515"/>
      <point x="302" y="471"/>
    </contour>
  </outline>
</glyph>
<glyph name="nine" format="2">
  <advance width="434"/>
  <unicode hex="0039"/>
  <outline>
    <contour>
      <point x="103" y="-10" type="curve" smooth="yes"/>
      <point x="237.993" y="-10"/>
      <point x="320" y="96"/>
      <point x="368" y="212" type="curve" smooth="yes"/>
      <point x="412" y="313"/>
      <point x="434" y="437"/>
      <point x="434" y="526" type="curve" smooth="yes"/>
      <point x="434" y="653"/>
      <point x="382" y="724"/>
      <point x="285" y="724" type="curve" smooth="yes"/>
      <point x="123" y="724"/>
      <point x="58" y="532"/>
      <point x="58" y="404" type="curve" smooth="yes"/>
      <point x="58" y="317"/>
      <point x="89" y="250"/>
      <point x="167" y="250" type="curve" smooth="yes"/>
      <point x="213" y="250"/>
      <point x="253" y="277"/>
      <point x="282" y="318" type="curve"/>
      <point x="285" y="318" type="line"/>
      <point x="247" y="174"/>
      <point x="186" y="96"/>
      <point x="98" y="96" type="curve" smooth="yes"/>
      <point x="64" y="96"/>
      <point x="30" y="101"/>
      <point x="6" y="110" type="curve"/>
      <point x="6" y="2" type="line"/>
      <point x="33" y="-5"/>
      <point x="62" y="-10"/>
    </contour>
    <contour>
      <point x="222" y="356" type="curve" smooth="yes"/>
      <point x="197" y="356"/>
      <point x="183" y="380"/>
      <point x="183" y="423" type="curve" smooth="yes"/>
      <point x="183" y="487"/>
      <point x="213" y="615"/>
      <point x="274" y="615" type="curve" smooth="yes"/>
      <point x="299" y="615"/>
      <point x="313" y="589"/>
      <point x="313" y="536" type="curve" smooth="yes"/>
      <point x="313" y="486"/>
      <point x="302" y="433"/>
      <point x="280" y="399" type="curve" smooth="yes"/>
      <point x="266" y="374"/>
      <point x="247" y="356"/>
    </contour>
  </outline>
</glyph>
<glyph name="semicolon" format="2">
  <advance width="236"/>
  <unicode hex="003B"/>
  <outline>
    <contour>
      <point x="-54" y="-135" type="curve"/>
      <point x="43" y="-135" type="line"/>
      <point x="86" y="-62"/>
      <point x="126" y="26"/>
      <point x="160" y="119" type="curve"/>
      <point x="157" y="130" type="line"/>
      <point x="38" y="130" type="line"/>
      <point x="13" y="40"/>
      <point x="-19" y="-49"/>
    </contour>
    <contour>
      <point x="151" y="396" type="curve" smooth="yes"/>
      <point x="197" y="396"/>
      <point x="236" y="436"/>
      <point x="236" y="495" type="curve" smooth="yes"/>
      <point x="236" y="529"/>
      <point x="215" y="551"/>
      <point x="180" y="551" type="curve" smooth="yes"/>
      <point x="121" y="551"/>
      <point x="90" y="502"/>
      <point x="90" y="451" type="curve" smooth="yes"/>
      <point x="90" y="414"/>
      <point x="112" y="396"/>
    </contour>
  </outline>
</glyph>
<glyph name="less" format="2">
  <advance width="473"/>
  <unicode hex="003C"/>
  <outline>
    <contour>
      <point x="450" y="120" type="line"/>
      <point x="450" y="238" type="line"/>
      <point x="191" y="359" type="line"/>
      <point x="450" y="478" type="line"/>
      <point x="450" y="597" type="line"/>
      <point x="39" y="394" type="line"/>
      <point x="39" y="324" type="line"/>
    </contour>
  </outline>
</glyph>
<glyph name="greater" format="2">
  <advance width="473"/>
  <unicode hex="003E"/>
  <outline>
    <contour>
      <point x="42" y="238" type="line"/>
      <point x="42" y="120" type="line"/>
      <point x="453" y="324" type="line"/>
      <point x="453" y="394" type="line"/>
      <point x="42" y="597" type="line"/>
      <point x="42" y="478" type="line"/>
      <point x="301" y="359" type="line"/>
    </contour>
  </outline>
</glyph>
<glyph name="question" format="2">
  <advance width="334"/>
  <unicode hex="003F"/>
  <outline>
    <contour>
      <point x="77" y="226" type="curve"/>
      <point x="178" y="226" type="line"/>
      <point x="193" y="298"/>
      <point x="201" y="315"/>
      <point x="259" y="373" type="curve" smooth="yes"/>
      <point x="323" y="435"/>
      <point x="379" y="502"/>
      <point x="379" y="596" type="curve" smooth="yes"/>
      <point x="379" y="676"/>
      <point x="331" y="724"/>
      <point x="241" y="724" type="curve" smooth="yes"/>
      <point x="189" y="724"/>
      <point x="135" y="705"/>
      <point x="83" y="665" type="curve"/>
      <point x="101" y="571" type="line"/>
      <point x="134" y="594"/>
      <point x="171" y="615"/>
      <point x="210" y="615" type="curve" smooth="yes"/>
      <point x="242" y="615"/>
      <point x="259" y="599"/>
      <point x="259" y="565" type="curve" smooth="yes"/>
      <point x="259" y="498"/>
      <point x="216" y="469"/>
      <point x="164" y="412" type="curve" smooth="yes"/>
      <point x="114" y="359"/>
      <point x="97" y="324"/>
    </contour>
    <contour>
      <point x="84" y="-10" type="curve" smooth="yes"/>
      <point x="130" y="-10"/>
      <point x="170" y="31"/>
      <point x="170" y="90" type="curve" smooth="yes"/>
      <point x="170" y="125"/>
      <point x="149" y="146"/>
      <point x="114" y="146" type="curve" smooth="yes"/>
      <point x="55" y="146"/>
      <point x="23" y="98"/>
      <point x="23" y="46" type="curve" smooth="yes"/>
      <point x="23" y="9"/>
      <point x="45" y="-10"/>
    </contour>
  </outline>
</glyph>
<glyph name="at" format="2">
  <advance width="648"/>
  <unicode hex="0040"/>
  <outline>
    <contour>
      <point x="262" y="-80" type="curve" smooth="yes"/>
      <point x="314" y="-80"/>
      <point x="377" y="-64"/>
      <point x="429" y="-39" type="curve"/>
      <point x="429" y="35" type="line"/>
      <point x="371" y="8"/>
      <point x="317" y="-4"/>
      <point x="261" y="-4" type="curve" smooth="yes"/>
      <point x="153" y="-4"/>
      <point x="107" y="68"/>
      <point x="107" y="174" type="curve" smooth="yes"/>
      <point x="107" y="398"/>
      <point x="227" y="646"/>
      <point x="419" y="646" type="curve" smooth="yes"/>
      <point x="509" y="646"/>
      <point x="561" y="588"/>
      <point x="561" y="471" type="curve" smooth="yes"/>
      <point x="561" y="386"/>
      <point x="525" y="188"/>
      <point x="455" y="188" type="curve" smooth="yes"/>
      <point x="444" y="188"/>
      <point x="438" y="198"/>
      <point x="438" y="219" type="curve" smooth="yes"/>
      <point x="438" y="228"/>
      <point x="440" y="243"/>
      <point x="445" y="261" type="curve" smooth="yes"/>
      <point x="505" y="510" type="line"/>
      <point x="475" y="525"/>
      <point x="436" y="535"/>
      <point x="387" y="535" type="curve" smooth="yes"/>
      <point x="248" y="535"/>
      <point x="180" y="340"/>
      <point x="180" y="227" type="curve" smooth="yes"/>
      <point x="180" y="152"/>
      <point x="210" y="114"/>
      <point x="274" y="114" type="curve" smooth="yes"/>
      <point x="306" y="114"/>
      <point x="340" y="140"/>
      <point x="366" y="183" type="curve"/>
      <point x="368" y="183" type="line"/>
      <point x="376" y="140"/>
      <point x="393" y="114"/>
      <point x="450" y="114" type="curve" smooth="yes"/>
      <point x="568" y="114"/>
      <point x="644" y="326"/>
      <point x="644" y="479" type="curve" smooth="yes"/>
      <point x="644" y="627"/>
      <point x="558" y="722"/>
      <point x="426" y="722" type="curve" smooth="yes"/>
      <point x="183" y="722"/>
      <point x="23" y="445"/>
      <point x="23" y="166" type="curve" smooth="yes"/>
      <point x="23" y="16"/>
      <point x="106" y="-80"/>
    </contour>
    <contour>
      <point x="295" y="189" type="curve" smooth="yes"/>
      <point x="278" y="189"/>
      <point x="269" y="203"/>
      <point x="269" y="237" type="curve" smooth="yes"/>
      <point x="269" y="315"/>
      <point x="311" y="460"/>
      <point x="377" y="460" type="curve" smooth="yes"/>
      <point x="389" y="460"/>
      <point x="397" y="459"/>
      <point x="405" y="456" type="curve"/>
      <point x="370" y="320" type="line" smooth="yes"/>
      <point x="347" y="233"/>
      <point x="323" y="189"/>
    </contour>
  </outline>
</glyph>
<glyph name="at.serif" format="2">
  <advance width="746"/>
  <unicode hex="0040"/>
  <outline>
    <contour>
      <point x="345" y="-142" type="curve" smooth="yes"/>
      <point x="444" y="-142"/>
      <point x="535" y="-97"/>
      <point x="593" y="-44" type="curve"/>
      <point x="574" y="-9" type="line"/>
      <point x="520" y="-53"/>
      <point x="442" y="-93"/>
      <point x="358" y="-93" type="curve" smooth="yes"/>
      <point x="227" y="-93"/>
      <point x="123" y="-5"/>
      <point x="123" y="209" type="curve" smooth="yes"/>
      <point x="123" y="489"/>
      <point x="284" y="665"/>
      <point x="443" y="665" type="curve" smooth="yes"/>
      <point x="567" y="665"/>
      <point x="652" y="576"/>
      <point x="652" y="408" type="curve" smooth="yes"/>
      <point x="652" y="236"/>
      <point x="600" y="134"/>
      <point x="555" y="134" type="curve" smooth="yes"/>
      <point x="539" y="134"/>
      <point x="521" y="148"/>
      <point x="521" y="194" type="curve" smooth="yes"/>
      <point x="521" y="213"/>
      <point x="525" y="249"/>
      <point x="529" y="269" type="curve" smooth="yes"/>
      <point x="578" y="520" type="line"/>
      <point x="558" y="520" type="line"/>
      <point x="517" y="499" type="line"/>
      <point x="500" y="515"/>
      <point x="474" y="529"/>
      <point x="436" y="529" type="curve" smooth="yes"/>
      <point x="273" y="529"/>
      <point x="204" y="345"/>
      <point x="204" y="232" type="curve" smooth="yes"/>
      <point x="204" y="128"/>
      <point x="260" y="77"/>
      <point x="326" y="77" type="curve" smooth="yes"/>
      <point x="382" y="77"/>
      <point x="417" y="118"/>
      <point x="442" y="170" type="curve"/>
      <point x="447" y="170" type="line"/>
      <point x="463" y="106"/>
      <point x="495" y="77"/>
      <point x="543" y="77" type="curve" smooth="yes"/>
      <point x="635" y="77"/>
      <point x="725" y="205"/>
      <point x="725" y="409" type="curve" smooth="yes"/>
      <point x="725" y="582"/>
      <point x="632" y="714"/>
      <point x="450" y="714" type="curve" smooth="yes"/>
      <point x="218" y="714"/>
      <point x="40" y="497"/>
      <point x="40" y="215" type="curve" smooth="yes"/>
      <point x="40" y="-21"/>
      <point x="178" y="-142"/>
    </contour>
    <contour>
      <point x="354" y="134" type="curve" smooth="yes"/>
      <point x="326" y="134"/>
      <point x="308" y="166"/>
      <point x="308" y="225" type="curve" smooth="yes"/>
      <point x="308" y="305"/>
      <point x="347" y="486"/>
      <point x="429" y="486" type="curve" smooth="yes"/>
      <point x="446" y="486"/>
      <point x="466" y="476"/>
      <point x="471" y="457" type="curve"/>
      <point x="431" y="254" type="line" smooth="yes"/>
      <point x="419" y="195"/>
      <point x="398" y="134"/>
    </contour>
  </outline>
</glyph>
<glyph name="A" format="2">
  <advance width="470"/>
  <unicode hex="0041"/>
  <anchor x="179" y="0" name="bottom"/>
  <anchor x="326" y="716" name="top"/>
  <anchor x="546" y="714" name="topright"/>
  <outline>
    <contour>
      <point x="-62" y="0" type="line"/>
      <point x="75" y="0" type="line"/>
      <point x="147" y="182" type="line"/>
      <point x="279" y="182" type="line"/>
      <point x="276" y="0" type="line"/>
      <point x="408" y="0" type="line"/>
      <point x="401" y="717" type="line"/>
      <point x="242" y="717" type="line"/>
    </contour>
    <contour>
      <point x="189" y="292" type="line"/>
      <point x="268" y="511" type="line" smooth="yes"/>
      <point x="279" y="544"/>
      <point x="288" y="572"/>
      <point x="293" y="601" type="curve"/>
      <point x="296" y="601" type="line"/>
      <point x="293" y="570"/>
      <point x="292" y="541"/>
      <point x="291" y="509" type="curve" smooth="yes"/>
      <point x="285" y="292" type="line"/>
    </contour>
  </outline>
</glyph>
<glyph name="A.serif" format="2">
  <advance width="617"/>
  <unicode hex="0041"/>
  <anchor x="252" y="0" name="bottom"/>
  <anchor x="404" y="714" name="top"/>
  <anchor x="692" y="714" name="topright"/>
  <outline>
    <contour>
      <point x="-38" y="0" type="line"/>
      <point x="173.99" y="0" type="line"/>
      <point x="185" y="50" type="line"/>
      <point x="170" y="50" type="line" smooth="yes"/>
      <point x="141" y="50"/>
      <point x="126" y="60"/>
      <point x="126" y="84" type="curve" smooth="yes"/>
      <point x="126" y="98"/>
      <point x="131" y="116"/>
      <point x="143" y="142" type="curve" smooth="yes"/>
      <point x="303" y="476" type="line" smooth="yes"/>
      <point x="333" y="539"/>
      <point x="348" y="571"/>
      <point x="366" y="619" type="curve"/>
      <point x="364" y="571"/>
      <point x="367" y="526"/>
      <point x="369" y="467" type="curve" smooth="yes"/>
      <point x="386" y="127" type="line" smooth="yes"/>
      <point x="386" y="121"/>
      <point x="387" y="113"/>
      <point x="387" y="106" type="curve" smooth="yes"/>
      <point x="387" y="66"/>
      <point x="364" y="50"/>
      <point x="328" y="50" type="curve" smooth="yes"/>
      <point x="310" y="50" type="line"/>
      <point x="299" y="0" type="line"/>
      <point x="575" y="0" type="line"/>
      <point x="587" y="50" type="line"/>
      <point x="571" y="50" type="line" smooth="yes"/>
      <point x="537" y="50"/>
      <point x="527" y="83"/>
      <point x="524" y="134" type="curve" smooth="yes"/>
      <point x="483" y="714" type="line"/>
      <point x="361" y="714" type="line"/>
      <point x="65" y="128" type="line" smooth="yes"/>
      <point x="33" y="64"/>
      <point x="21" y="50"/>
      <point x="-9" y="50" type="curve" smooth="yes"/>
      <point x="-27" y="50" type="line"/>
    </contour>
    <contour>
      <point x="163" y="237" type="line"/>
      <point x="452" y="237" type="line"/>
      <point x="454" y="294" type="line"/>
      <point x="165" y="294" type="line"/>
    </contour>
  </outline>
</glyph>
<glyph name="B" format="2">
  <advance width="475"/>
  <unicode hex="0042"/>
  <anchor x="191" y="0" name="bottom"/>
  <anchor x="333" y="714" name="top"/>
  <anchor x="550" y="714" name="topright"/>
  <outline>
    <contour>
      <point x="-3" y="0" type="line"/>
      <point x="190" y="0" type="line" smooth="yes"/>
      <point x="346" y="0"/>
      <point x="428" y="114"/>
      <point x="428" y="241" type="curve" smooth="yes"/>
      <point x="428" y="304"/>
      <point x="400" y="354"/>
      <point x="353" y="371" type="curve"/>
      <point x="353" y="375" type="line"/>
      <point x="444" y="402"/>
      <point x="485" y="481"/>
      <point x="485" y="567" type="curve" smooth="yes"/>
      <point x="485" y="672"/>
      <point x="404" y="714"/>
      <point x="312" y="714" type="curve" smooth="yes"/>
      <point x="148" y="714" type="line"/>
    </contour>
    <contour>
      <point x="190" y="107" type="curve" smooth="yes"/>
      <point x="145" y="107" type="line"/>
      <point x="190" y="320" type="line"/>
      <point x="235" y="320" type="line" smooth="yes"/>
      <point x="275" y="320"/>
      <point x="299" y="296"/>
      <point x="299" y="247" type="curve" smooth="yes"/>
      <point x="299" y="172"/>
      <point x="265" y="107"/>
    </contour>
    <contour>
      <point x="253" y="422" type="curve" smooth="yes"/>
      <point x="212" y="422" type="line"/>
      <point x="252" y="609" type="line"/>
      <point x="289" y="609" type="line" smooth="yes"/>
      <point x="332" y="609"/>
      <point x="353" y="588"/>
      <point x="353" y="547" type="curve" smooth="yes"/>
      <point x="353" y="483"/>
      <point x="316" y="422"/>
    </contour>
  </outline>
</glyph>
<glyph name="B.serif" format="2">
  <advance width="556"/>
  <unicode hex="0042"/>
  <anchor x="221" y="0" name="bottom"/>
  <anchor x="373" y="714" name="top"/>
  <anchor x="631" y="714" name="topright"/>
  <outline>
    <contour>
      <point x="-19" y="0" type="line"/>
      <point x="242" y="0" type="line" smooth="yes"/>
      <point x="429" y="0"/>
      <point x="527" y="69"/>
      <point x="527" y="235" type="curve" smooth="yes"/>
      <point x="527" y="313"/>
      <point x="489" y="362"/>
      <point x="434" y="374" type="curve"/>
      <point x="435" y="378" type="line"/>
      <point x="513" y="400"/>
      <point x="574" y="458"/>
      <point x="574" y="569" type="curve" smooth="yes"/>
      <point x="574" y="664"/>
      <point x="511" y="714"/>
      <point x="390" y="714" type="curve" smooth="yes"/>
      <point x="131" y="714" type="line"/>
      <point x="120" y="664" type="line"/>
      <point x="130" y="664" type="line" smooth="yes"/>
      <point x="164" y="664"/>
      <point x="187" y="659"/>
      <point x="187" y="630" type="curve" smooth="yes"/>
      <point x="187" y="624"/>
      <point x="184" y="612"/>
      <point x="180" y="593" type="curve" smooth="yes"/>
      <point x="80" y="113" type="line"/>
      <point x="68" y="58"/>
      <point x="37" y="50"/>
      <point x="3" y="50" type="curve" smooth="yes"/>
      <point x="-8" y="50" type="line"/>
    </contour>
    <contour>
      <point x="256" y="58" type="curve" smooth="yes"/>
      <point x="205" y="58" type="line"/>
      <point x="265" y="345" type="line"/>
      <point x="312" y="345" type="line" smooth="yes"/>
      <point x="361" y="345"/>
      <point x="384" y="312"/>
      <point x="384" y="247" type="curve" smooth="yes"/>
      <point x="384" y="131"/>
      <point x="352" y="58"/>
    </contour>
    <contour>
      <point x="320" y="403" type="curve" smooth="yes"/>
      <point x="278" y="403" type="line"/>
      <point x="329" y="656" type="line"/>
      <point x="362" y="656" type="line" smooth="yes"/>
      <point x="405" y="656"/>
      <point x="427" y="627"/>
      <point x="427" y="570" type="curve" smooth="yes"/>
      <point x="427" y="470"/>
      <point x="398" y="403"/>
    </contour>
  </outline>
</glyph>
<glyph name="C" format="2">
  <advance width="430"/>
  <unicode hex="0043"/>
  <anchor x="182" y="0" name="bottom"/>
  <anchor x="334" y="714" name="top"/>
  <anchor x="506" y="714" name="topright"/>
  <outline>
    <contour>
      <point x="207" y="-10" type="curve" smooth="yes"/>
      <point x="254" y="-10"/>
      <point x="308" y="-1"/>
      <point x="352" y="20" type="curve"/>
      <point x="352" y="132" type="line"/>
      <point x="314" y="114"/>
      <point x="277" y="101"/>
      <point x="240" y="101" type="curve" smooth="yes"/>
      <point x="191" y="101"/>
      <point x="167" y="138"/>
      <point x="167" y="227" type="curve" smooth="yes"/>
      <point x="167" y="338"/>
      <point x="226" y="614"/>
      <point x="356" y="614" type="curve" smooth="yes"/>
      <point x="384" y="614"/>
      <point x="410" y="603"/>
      <point x="437" y="581" type="curve"/>
      <point x="498" y="681" type="line"/>
      <point x="457" y="712"/>
      <point x="406" y="724"/>
      <point x="353" y="724" type="curve" smooth="yes"/>
      <point x="147" y="724"/>
      <point x="35" y="438"/>
      <point x="35" y="220" type="curve" smooth="yes"/>
      <point x="35" y="74"/>
      <point x="94" y="-10"/>
    </contour>
  </outline>
</glyph>
<glyph name="C.serif" format="2">
  <advance width="547"/>
  <unicode hex="0043"/>
  <anchor x="278" y="0" name="bottom"/>
  <anchor x="426" y="714" name="top"/>
  <anchor x="622" y="714" name="topright"/>
  <outline>
    <contour>
      <point x="303" y="-10" type="curve" smooth="yes"/>
      <point x="426" y="-10"/>
      <point x="500" y="64"/>
      <point x="500" y="128" type="curve" smooth="yes"/>
      <point x="500" y="142"/>
      <point x="493" y="154"/>
      <point x="487" y="160" type="curve"/>
      <point x="459" y="115"/>
      <point x="413" y="69"/>
      <point x="338" y="69" type="curve" smooth="yes"/>
      <point x="251" y="69"/>
      <point x="206" y="130"/>
      <point x="206" y="242" type="curve" smooth="yes"/>
      <point x="206" y="410"/>
      <point x="289" y="667"/>
      <point x="418" y="667" type="curve" smooth="yes"/>
      <point x="475" y="667"/>
      <point x="480" y="580"/>
      <point x="478" y="523" type="curve"/>
      <point x="549" y="523"/>
      <point x="603" y="557"/>
      <point x="603" y="619" type="curve" smooth="yes"/>
      <point x="603" y="684"/>
      <point x="552" y="727"/>
      <point x="445" y="727" type="curve" smooth="yes"/>
      <point x="219" y="727"/>
      <point x="63" y="485"/>
      <point x="63" y="242" type="curve" smooth="yes"/>
      <point x="63" y="82"/>
      <point x="151" y="-10"/>
    </contour>
  </outline>
</glyph>
<glyph name="D" format="2">
  <advance width="505"/>
  <unicode hex="0044"/>
  <anchor x="197" y="0" name="bottom"/>
  <anchor x="284" y="357" name="center"/>
  <anchor x="348" y="714" name="top"/>
  <anchor x="580" y="714" name="topright"/>
  <outline>
    <contour>
      <point x="-2" y="0" type="line"/>
      <point x="150" y="0" type="line" smooth="yes"/>
      <point x="399" y="0"/>
      <point x="499" y="275"/>
      <point x="499" y="495" type="curve" smooth="yes"/>
      <point x="499" y="635"/>
      <point x="426" y="714"/>
      <point x="290" y="714" type="curve" smooth="yes"/>
      <point x="149" y="714" type="line"/>
    </contour>
    <contour>
      <point x="168" y="112" type="curve" smooth="yes"/>
      <point x="146" y="112" type="line"/>
      <point x="250" y="603" type="line"/>
      <point x="278" y="603" type="line" smooth="yes"/>
      <point x="337" y="603"/>
      <point x="367" y="566"/>
      <point x="367" y="483" type="curve" smooth="yes"/>
      <point x="367" y="346"/>
      <point x="311" y="112"/>
    </contour>
  </outline>
</glyph>
<glyph name="D.serif" format="2">
  <advance width="629"/>
  <unicode hex="0044"/>
  <anchor x="258" y="0" name="bottom"/>
  <anchor x="353" y="357" name="center"/>
  <anchor x="410" y="714" name="top"/>
  <anchor x="704" y="714" name="topright"/>
  <outline>
    <contour>
      <point x="-19" y="0" type="line"/>
      <point x="271" y="0" type="line" smooth="yes"/>
      <point x="502" y="0"/>
      <point x="635" y="217"/>
      <point x="635" y="460" type="curve" smooth="yes"/>
      <point x="635" y="625"/>
      <point x="548" y="714"/>
      <point x="397" y="714" type="curve" smooth="yes"/>
      <point x="132" y="714" type="line"/>
      <point x="120" y="664" type="line"/>
      <point x="130" y="664" type="line" smooth="yes"/>
      <point x="164" y="664"/>
      <point x="187" y="660"/>
      <point x="187" y="630" type="curve" smooth="yes"/>
      <point x="187" y="621"/>
      <point x="183" y="607"/>
      <point x="179" y="590" type="curve" smooth="yes"/>
      <point x="80" y="113" type="line"/>
      <point x="68" y="58"/>
      <point x="37" y="50"/>
      <point x="3" y="50" type="curve" smooth="yes"/>
      <point x="-8" y="50" type="line"/>
    </contour>
    <contour>
      <point x="235" y="59" type="curve" smooth="yes"/>
      <point x="205" y="59" type="line"/>
      <point x="329" y="656" type="line"/>
      <point x="358" y="656" type="line" smooth="yes"/>
      <point x="439" y="656"/>
      <point x="489" y="598"/>
      <point x="489" y="470" type="curve" smooth="yes"/>
      <point x="489" y="236"/>
      <point x="394" y="59"/>
    </contour>
  </outline>
</glyph>
<glyph name="E" format="2">
  <advance width="394"/>
  <unicode hex="0045"/>
  <anchor x="141" y="0" name="bottom"/>
  <anchor x="292" y="714" name="top"/>
  <anchor x="469" y="714" name="topright"/>
  <outline>
    <contour>
      <point x="-2" y="0" type="line"/>
      <point x="291" y="0" type="line"/>
      <point x="314" y="110" type="line"/>
      <point x="145" y="110" type="line"/>
      <point x="190" y="316" type="line"/>
      <point x="346" y="316" type="line"/>
      <point x="369" y="425" type="line"/>
      <point x="213" y="425" type="line"/>
      <point x="251" y="605" type="line"/>
      <point x="419" y="605" type="line"/>
      <point x="442" y="714" type="line"/>
      <point x="149" y="714" type="line"/>
    </contour>
  </outline>
</glyph>
<glyph name="E.serif" format="2">
  <advance width="526"/>
  <unicode hex="0045"/>
  <anchor x="206" y="0" name="bottom"/>
  <anchor x="358" y="714" name="top"/>
  <anchor x="601" y="714" name="topright"/>
  <outline>
    <contour>
      <point x="-19" y="0" type="line"/>
      <point x="452" y="0" type="line"/>
      <point x="497" y="183" type="line"/>
      <point x="436" y="183" type="line"/>
      <point x="422" y="140" type="line" smooth="yes"/>
      <point x="407" y="96"/>
      <point x="378" y="58"/>
      <point x="327" y="58" type="curve" smooth="yes"/>
      <point x="204" y="58" type="line"/>
      <point x="264" y="345" type="line"/>
      <point x="446" y="345" type="line"/>
      <point x="458" y="402" type="line"/>
      <point x="278" y="402" type="line"/>
      <point x="330" y="656" type="line"/>
      <point x="432" y="656" type="line" smooth="yes"/>
      <point x="472" y="656"/>
      <point x="487" y="628"/>
      <point x="487" y="594" type="curve" smooth="yes"/>
      <point x="487" y="586"/>
      <point x="481" y="540"/>
      <point x="480" y="531" type="curve"/>
      <point x="541" y="531" type="line"/>
      <point x="577" y="714" type="line"/>
      <point x="131" y="714" type="line"/>
      <point x="120" y="664" type="line"/>
      <point x="130" y="664" type="line" smooth="yes"/>
      <point x="164" y="664"/>
      <point x="187" y="658"/>
      <point x="187" y="626" type="curve" smooth="yes"/>
      <point x="187" y="617"/>
      <point x="185" y="604"/>
      <point x="181" y="588" type="curve" smooth="yes"/>
      <point x="79" y="111" type="line" smooth="yes"/>
      <point x="68" y="61"/>
      <point x="40" y="50"/>
      <point x="3" y="50" type="curve" smooth="yes"/>
      <point x="-8" y="50" type="line"/>
    </contour>
  </outline>
</glyph>
<glyph name="F" format="2">
  <advance width="377"/>
  <unicode hex="0046"/>
  <anchor x="133" y="0" name="bottom"/>
  <anchor x="284" y="714" name="top"/>
  <anchor x="452" y="714" name="topright"/>
  <outline>
    <contour>
      <point x="-2" y="0" type="line"/>
      <point x="123" y="0" type="line"/>
      <point x="184" y="290" type="line"/>
      <point x="339" y="290" type="line"/>
      <point x="363" y="399" type="line"/>
      <point x="207" y="399" type="line"/>
      <point x="251" y="605" type="line"/>
      <point x="419" y="605" type="line"/>
      <point x="441" y="714" type="line"/>
      <point x="149" y="714" type="line"/>
    </contour>
  </outline>
</glyph>
<glyph name="F.serif" format="2">
  <advance width="508"/>
  <unicode hex="0046"/>
  <anchor x="130" y="0" name="bottom"/>
  <anchor x="349" y="714" name="top"/>
  <anchor x="583" y="714" name="topright"/>
  <outline>
    <contour>
      <point x="-19" y="0" type="line"/>
      <point x="271" y="0" type="line"/>
      <point x="283" y="50" type="line"/>
      <point x="259" y="50" type="line" smooth="yes"/>
      <point x="232" y="50"/>
      <point x="212" y="55"/>
      <point x="212" y="85" type="curve" smooth="yes"/>
      <point x="212" y="96"/>
      <point x="213" y="103"/>
      <point x="217" y="123" type="curve" smooth="yes"/>
      <point x="260" y="322" type="line"/>
      <point x="451" y="322" type="line"/>
      <point x="464" y="379" type="line"/>
      <point x="273" y="379" type="line"/>
      <point x="330" y="656" type="line"/>
      <point x="436" y="656" type="line" smooth="yes"/>
      <point x="478" y="656"/>
      <point x="493" y="629"/>
      <point x="493" y="594" type="curve" smooth="yes"/>
      <point x="493" y="586"/>
      <point x="489" y="554"/>
      <point x="487" y="531" type="curve"/>
      <point x="548" y="531" type="line"/>
      <point x="584" y="714" type="line"/>
      <point x="131" y="714" type="line"/>
      <point x="120" y="664" type="line"/>
      <point x="130" y="664" type="line" smooth="yes"/>
      <point x="163" y="664"/>
      <point x="187" y="659"/>
      <point x="187" y="630" type="curve" smooth="yes"/>
      <point x="187" y="618"/>
      <point x="181" y="592"/>
      <point x="177" y="571" type="curve" smooth="yes"/>
      <point x="79" y="111" type="line"/>
      <point x="68" y="58"/>
      <point x="36" y="50"/>
      <point x="3" y="50" type="curve" smooth="yes"/>
      <point x="-8" y="50" type="line"/>
    </contour>
  </outline>
</glyph>
<glyph name="G" format="2">
  <advance width="520"/>
  <unicode hex="0047"/>
  <anchor x="204" y="0" name="bottom"/>
  <anchor x="355" y="714" name="top"/>
  <anchor x="596" y="714" name="topright"/>
  <outline>
    <contour>
      <point x="241.992" y="-10" type="curve" smooth="yes"/>
      <point x="290" y="-10"/>
      <point x="354" y="3"/>
      <point x="419" y="28" type="curve"/>
      <point x="497" y="398" type="line"/>
      <point x="295" y="398" type="line"/>
      <point x="273" y="291" type="line"/>
      <point x="351" y="291" type="line"/>
      <point x="313" y="110" type="line"/>
      <point x="293" y="104"/>
      <point x="273" y="101"/>
      <point x="253" y="101" type="curve" smooth="yes"/>
      <point x="195" y="101"/>
      <point x="166" y="142"/>
      <point x="166" y="231" type="curve" smooth="yes"/>
      <point x="166" y="401"/>
      <point x="248" y="614"/>
      <point x="374" y="614" type="curve" smooth="yes"/>
      <point x="416" y="614"/>
      <point x="455" y="600"/>
      <point x="492" y="573" type="curve"/>
      <point x="548" y="679" type="line"/>
      <point x="510" y="706"/>
      <point x="451" y="724"/>
      <point x="386" y="724" type="curve" smooth="yes"/>
      <point x="160" y="724"/>
      <point x="36" y="470"/>
      <point x="36" y="220" type="curve" smooth="yes"/>
      <point x="36" y="72"/>
      <point x="102" y="-10"/>
    </contour>
  </outline>
</glyph>
<glyph name="G.serif" format="2">
  <advance width="653"/>
  <unicode hex="0047"/>
  <anchor x="293" y="0" name="bottom"/>
  <anchor x="452" y="714" name="top"/>
  <anchor x="728" y="714" name="topright"/>
  <outline>
    <contour>
      <point x="301" y="-10" type="curve" smooth="yes"/>
      <point x="381" y="-10"/>
      <point x="442" y="5"/>
      <point x="511" y="36" type="curve"/>
      <point x="551" y="224" type="line" smooth="yes"/>
      <point x="563" y="280"/>
      <point x="593" y="288"/>
      <point x="628" y="288" type="curve" smooth="yes"/>
      <point x="632" y="288" type="line"/>
      <point x="644" y="338" type="line"/>
      <point x="363" y="338" type="line"/>
      <point x="352" y="288" type="line"/>
      <point x="364" y="288" type="line" smooth="yes"/>
      <point x="397" y="288"/>
      <point x="420" y="283"/>
      <point x="420" y="254" type="curve" smooth="yes"/>
      <point x="420" y="248"/>
      <point x="418" y="236"/>
      <point x="413" y="216" type="curve" smooth="yes"/>
      <point x="381" y="76" type="line"/>
      <point x="362" y="63"/>
      <point x="335" y="54"/>
      <point x="310" y="54" type="curve" smooth="yes"/>
      <point x="234" y="54"/>
      <point x="204" y="123"/>
      <point x="204" y="223" type="curve" smooth="yes"/>
      <point x="204" y="448"/>
      <point x="307" y="663"/>
      <point x="433" y="663" type="curve" smooth="yes"/>
      <point x="496" y="663"/>
      <point x="521" y="601"/>
      <point x="518" y="519" type="curve"/>
      <point x="587" y="519"/>
      <point x="644" y="551"/>
      <point x="644" y="611" type="curve" smooth="yes"/>
      <point x="644" y="669"/>
      <point x="581" y="724"/>
      <point x="458" y="724" type="curve" smooth="yes"/>
      <point x="223.99" y="724"/>
      <point x="63" y="504"/>
      <point x="63" y="242" type="curve" smooth="yes"/>
      <point x="63" y="87"/>
      <point x="143" y="-10"/>
    </contour>
  </outline>
</glyph>
<glyph name="H" format="2">
  <advance width="525"/>
  <unicode hex="0048"/>
  <anchor x="207" y="0" name="bottom"/>
  <anchor x="294" y="357" name="center"/>
  <anchor x="358" y="714" name="top"/>
  <anchor x="600" y="714" name="topright"/>
  <outline>
    <contour>
      <point x="-2" y="0" type="line"/>
      <point x="123" y="0" type="line"/>
      <point x="190" y="317" type="line"/>
      <point x="347" y="317" type="line"/>
      <point x="280" y="0" type="line"/>
      <point x="405" y="0" type="line"/>
      <point x="557" y="714" type="line"/>
      <point x="432" y="714" type="line"/>
      <point x="371" y="428" type="line"/>
      <point x="213" y="428" type="line"/>
      <point x="274" y="714" type="line"/>
      <point x="149" y="714" type="line"/>
    </contour>
  </outline>
</glyph>
<glyph name="H.serif" format="2">
  <advance width="668"/>
  <unicode hex="0048"/>
  <anchor x="277" y="0" name="bottom"/>
  <anchor x="359" y="357" name="center"/>
  <anchor x="429" y="714" name="top"/>
  <anchor x="743" y="714" name="topright"/>
  <outline>
    <contour>
      <point x="-19" y="0" type="line"/>
      <point x="262" y="0" type="line"/>
      <point x="274" y="50" type="line"/>
      <point x="263" y="50" type="line" smooth="yes"/>
      <point x="226" y="50"/>
      <point x="211" y="57"/>
      <point x="211" y="81" type="curve" smooth="yes"/>
      <point x="211" y="90"/>
      <point x="213" y="102"/>
      <point x="216" y="114" type="curve" smooth="yes"/>
      <point x="264" y="344" type="line"/>
      <point x="465" y="344" type="line"/>
      <point x="418" y="114" type="line" smooth="yes"/>
      <point x="407" y="58"/>
      <point x="376" y="50"/>
      <point x="345" y="50" type="curve" smooth="yes"/>
      <point x="335" y="50" type="line"/>
      <point x="323" y="0" type="line"/>
      <point x="605" y="0" type="line"/>
      <point x="617" y="50" type="line"/>
      <point x="606" y="50" type="line" smooth="yes"/>
      <point x="563" y="50"/>
      <point x="549" y="59"/>
      <point x="549" y="81" type="curve" smooth="yes"/>
      <point x="549" y="90"/>
      <point x="552" y="102"/>
      <point x="554" y="116" type="curve" smooth="yes"/>
      <point x="655" y="600" type="line" smooth="yes"/>
      <point x="667" y="656"/>
      <point x="700" y="664"/>
      <point x="735" y="664" type="curve" smooth="yes"/>
      <point x="745" y="664" type="line"/>
      <point x="756" y="714" type="line"/>
      <point x="474" y="714" type="line"/>
      <point x="463" y="664" type="line"/>
      <point x="474" y="664" type="line" smooth="yes"/>
      <point x="511" y="664"/>
      <point x="526" y="657"/>
      <point x="526" y="634" type="curve" smooth="yes"/>
      <point x="526" y="625"/>
      <point x="523" y="614"/>
      <point x="520" y="599" type="curve" smooth="yes"/>
      <point x="477" y="402" type="line"/>
      <point x="278" y="402" type="line"/>
      <point x="318" y="600" type="line"/>
      <point x="329" y="656"/>
      <point x="359" y="664"/>
      <point x="392" y="664" type="curve" smooth="yes"/>
      <point x="402" y="664" type="line"/>
      <point x="413" y="714" type="line"/>
      <point x="131" y="714" type="line"/>
      <point x="120" y="664" type="line"/>
      <point x="130" y="664" type="line" smooth="yes"/>
      <point x="173" y="664"/>
      <point x="188" y="657"/>
      <point x="188" y="634" type="curve" smooth="yes"/>
      <point x="188" y="626"/>
      <point x="185" y="614"/>
      <point x="181" y="593" type="curve" smooth="yes"/>
      <point x="80" y="113" type="line"/>
      <point x="68" y="58"/>
      <point x="37" y="50"/>
      <point x="3" y="50" type="curve" smooth="yes"/>
      <point x="-8" y="50" type="line"/>
    </contour>
  </outline>
</glyph>
<glyph name="I" format="2">
  <advance width="317"/>
  <unicode hex="0049"/>
  <anchor x="103" y="0" name="bottom"/>
  <anchor x="252" y="714" name="top"/>
  <anchor x="393" y="714" name="topright"/>
  <outline>
    <contour>
      <point x="-43" y="0" type="line"/>
      <point x="240" y="0" type="line"/>
      <point x="254" y="66" type="line"/>
      <point x="180" y="95" type="line"/>
      <point x="291" y="619" type="line"/>
      <point x="377" y="648" type="line"/>
      <point x="391" y="714" type="line"/>
      <point x="107" y="714" type="line"/>
      <point x="94" y="648" type="line"/>
      <point x="167" y="619" type="line"/>
      <point x="55" y="95" type="line"/>
      <point x="-29" y="66" type="line"/>
    </contour>
  </outline>
</glyph>
<glyph name="I.serif" format="2">
  <advance width="331"/>
  <unicode hex="0049"/>
  <anchor x="109" y="0" name="bottom"/>
  <anchor x="261" y="714" name="top"/>
  <anchor x="406" y="714" name="topright"/>
  <outline>
    <contour>
      <point x="-19" y="0" type="line"/>
      <point x="268" y="0" type="line"/>
      <point x="280" y="50" type="line"/>
      <point x="269" y="50" type="line" smooth="yes"/>
      <point x="236" y="50"/>
      <point x="211" y="55"/>
      <point x="211" y="84" type="curve" smooth="yes"/>
      <point x="211" y="94"/>
      <point x="215" y="109"/>
      <point x="219" y="128" type="curve" smooth="yes"/>
      <point x="320" y="600" type="line"/>
      <point x="331" y="656"/>
      <point x="362" y="664"/>
      <point x="398" y="664" type="curve" smooth="yes"/>
      <point x="409" y="664" type="line"/>
      <point x="419" y="714" type="line"/>
      <point x="131" y="714" type="line"/>
      <point x="120" y="664" type="line"/>
      <point x="130" y="664" type="line" smooth="yes"/>
      <point x="165" y="664"/>
      <point x="188" y="659"/>
      <point x="188" y="630" type="curve" smooth="yes"/>
      <point x="188" y="624"/>
      <point x="186" y="613"/>
      <point x="182" y="595" type="curve" smooth="yes"/>
      <point x="80" y="113" type="line"/>
      <point x="68" y="58"/>
      <point x="37" y="50"/>
      <point x="3" y="50" type="curve" smooth="yes"/>
      <point x="-8" y="50" type="line"/>
    </contour>
  </outline>
</glyph>
<glyph name="J" format="2">
  <advance width="240"/>
  <unicode hex="004A"/>
  <anchor x="-72" y="-208" name="bottom"/>
  <anchor x="215" y="714" name="top"/>
  <anchor x="315" y="714" name="topright"/>
  <outline>
    <contour>
      <point x="-72" y="-208" type="curve" smooth="yes"/>
      <point x="25" y="-208"/>
      <point x="93" y="-147"/>
      <point x="125" y="5" type="curve" smooth="yes"/>
      <point x="275" y="714" type="line"/>
      <point x="150" y="714" type="line"/>
      <point x="4" y="24" type="line" smooth="yes"/>
      <point x="-9" y="-37"/>
      <point x="-28" y="-99"/>
      <point x="-78" y="-99" type="curve" smooth="yes"/>
      <point x="-95" y="-99"/>
      <point x="-111" y="-95"/>
      <point x="-128" y="-87" type="curve"/>
      <point x="-153" y="-196" type="line"/>
      <point x="-132" y="-204"/>
      <point x="-108" y="-208"/>
    </contour>
  </outline>
</glyph>
<glyph name="J.serif" format="2">
  <advance width="332"/>
  <unicode hex="004A"/>
  <anchor x="-66" y="-240" name="bottom"/>
  <anchor x="261" y="714" name="top"/>
  <anchor x="407" y="714" name="topright"/>
  <outline>
    <contour>
      <point x="-66" y="-240" type="curve" smooth="yes"/>
      <point x="57" y="-240"/>
      <point x="155" y="-175"/>
      <point x="191" y="-4" type="curve" smooth="yes"/>
      <point x="319" y="600" type="line"/>
      <point x="330" y="656"/>
      <point x="363" y="664"/>
      <point x="399" y="664" type="curve" smooth="yes"/>
      <point x="409" y="664" type="line"/>
      <point x="420" y="714" type="line"/>
      <point x="131" y="714" type="line"/>
      <point x="121" y="664" type="line"/>
      <point x="131" y="664" type="line" smooth="yes"/>
      <point x="164" y="664"/>
      <point x="188" y="659"/>
      <point x="188" y="630" type="curve" smooth="yes"/>
      <point x="188" y="624"/>
      <point x="186" y="612"/>
      <point x="184" y="604" type="curve" smooth="yes"/>
      <point x="55" y="-5" type="line"/>
      <point x="25" y="-149"/>
      <point x="-16" y="-186"/>
      <point x="-72" y="-186" type="curve" smooth="yes"/>
      <point x="-88" y="-186"/>
      <point x="-110" y="-182"/>
      <point x="-124" y="-177" type="curve"/>
      <point x="-137" y="-229" type="line"/>
      <point x="-116" y="-236"/>
      <point x="-97" y="-240"/>
    </contour>
  </outline>
</glyph>
<glyph name="K" format="2">
  <advance width="461"/>
  <unicode hex="004B"/>
  <anchor x="174" y="0" name="bottom"/>
  <anchor x="326" y="714" name="top"/>
  <anchor x="536" y="714" name="topright"/>
  <outline>
    <contour>
      <point x="-2" y="0" type="line"/>
      <point x="123" y="0" type="line"/>
      <point x="177" y="255" type="line"/>
      <point x="219" y="292" type="line"/>
      <point x="268" y="0" type="line"/>
      <point x="405" y="0" type="line"/>
      <point x="328" y="382" type="line"/>
      <point x="553" y="714" type="line"/>
      <point x="416" y="714" type="line"/>
      <point x="251" y="470" type="line"/>
      <point x="206" y="394" type="line"/>
      <point x="274" y="714" type="line"/>
      <point x="149" y="714" type="line"/>
    </contour>
  </outline>
</glyph>
<glyph name="K.serif" format="2">
  <advance width="606"/>
  <unicode hex="004B"/>
  <anchor x="247" y="0" name="bottom"/>
  <anchor x="399" y="714" name="top"/>
  <anchor x="681" y="714" name="topright"/>
  <outline>
    <contour>
      <point x="-19" y="0" type="line"/>
      <point x="268" y="0" type="line"/>
      <point x="280" y="50" type="line"/>
      <point x="269" y="50" type="line" smooth="yes"/>
      <point x="236" y="50"/>
      <point x="211" y="55"/>
      <point x="211" y="84" type="curve" smooth="yes"/>
      <point x="211" y="90"/>
      <point x="213" y="101"/>
      <point x="216" y="113" type="curve" smooth="yes"/>
      <point x="252" y="278" type="line"/>
      <point x="347" y="371" type="line"/>
      <point x="285" y="370" type="line"/>
      <point x="345" y="151" type="line"/>
      <point x="376" y="35"/>
      <point x="402" y="0"/>
      <point x="509" y="0" type="curve" smooth="yes"/>
      <point x="561" y="0" type="line"/>
      <point x="572" y="50" type="line"/>
      <point x="569" y="50" type="line" smooth="yes"/>
      <point x="533" y="50"/>
      <point x="518" y="76"/>
      <point x="497" y="145" type="curve" smooth="yes"/>
      <point x="404" y="459" type="line"/>
      <point x="365" y="388" type="line"/>
      <point x="547" y="579" type="line" smooth="yes"/>
      <point x="600" y="636"/>
      <point x="638" y="665"/>
      <point x="681" y="665" type="curve"/>
      <point x="693" y="714" type="line"/>
      <point x="466" y="714" type="line"/>
      <point x="455" y="665" type="line"/>
      <point x="481" y="665"/>
      <point x="489" y="658"/>
      <point x="489" y="642" type="curve" smooth="yes"/>
      <point x="489" y="621"/>
      <point x="480" y="593"/>
      <point x="434" y="542" type="curve"/>
      <point x="270" y="352" type="line"/>
      <point x="318" y="600" type="line"/>
      <point x="329" y="656"/>
      <point x="359" y="664"/>
      <point x="392" y="664" type="curve" smooth="yes"/>
      <point x="402" y="664" type="line"/>
      <point x="413" y="714" type="line"/>
      <point x="131" y="714" type="line"/>
      <point x="120" y="664" type="line"/>
      <point x="130" y="664" type="line" smooth="yes"/>
      <point x="164" y="664"/>
      <point x="188" y="659"/>
      <point x="188" y="630" type="curve" smooth="yes"/>
      <point x="188" y="624"/>
      <point x="185" y="615"/>
      <point x="181" y="594" type="curve" smooth="yes"/>
      <point x="80" y="113" type="line" smooth="yes"/>
      <point x="68" y="58"/>
      <point x="36" y="50"/>
      <point x="3" y="50" type="curve" smooth="yes"/>
      <point x="-8" y="50" type="line"/>
    </contour>
  </outline>
</glyph>
<glyph name="L" format="2">
  <advance width="370"/>
  <unicode hex="004C"/>
  <anchor x="129" y="0" name="bottom"/>
  <anchor x="216" y="357" name="center"/>
  <anchor x="280" y="714" name="top"/>
  <anchor x="389" y="714" name="topright"/>
  <outline>
    <contour>
      <point x="-2" y="0" type="line"/>
      <point x="295" y="0" type="line"/>
      <point x="317" y="110" type="line"/>
      <point x="145" y="110" type="line"/>
      <point x="274" y="714" type="line"/>
      <point x="149" y="714" type="line"/>
    </contour>
  </outline>
</glyph>
<glyph name="L.serif" format="2">
  <advance width="534"/>
  <unicode hex="004C"/>
  <anchor x="210" y="0" name="bottom"/>
  <anchor x="305" y="357" name="center"/>
  <anchor x="362" y="714" name="top"/>
  <anchor x="609" y="714" name="topright"/>
  <outline>
    <contour>
      <point x="-19" y="0" type="line"/>
      <point x="463" y="0" type="line"/>
      <point x="517" y="221" type="line"/>
      <point x="464" y="221" type="line"/>
      <point x="446" y="162" type="line" smooth="yes"/>
      <point x="425" y="92"/>
      <point x="396" y="58"/>
      <point x="336" y="58" type="curve" smooth="yes"/>
      <point x="206" y="58" type="line"/>
      <point x="318" y="602" type="line" smooth="yes"/>
      <point x="329" y="656"/>
      <point x="361" y="664"/>
      <point x="397" y="664" type="curve" smooth="yes"/>
      <point x="408" y="664" type="line"/>
      <point x="419" y="714" type="line"/>
      <point x="131" y="714" type="line"/>
      <point x="119" y="664" type="line"/>
      <point x="130" y="664" type="line" smooth="yes"/>
      <point x="164" y="664"/>
      <point x="187" y="659"/>
      <point x="187" y="630" type="curve" smooth="yes"/>
      <point x="187" y="622"/>
      <point x="184" y="611"/>
      <point x="181" y="594" type="curve" smooth="yes"/>
      <point x="80" y="113" type="line" smooth="yes"/>
      <point x="68" y="58"/>
      <point x="36" y="50"/>
      <point x="3" y="50" type="curve" smooth="yes"/>
      <point x="-8" y="50" type="line"/>
    </contour>
  </outline>
</glyph>
<glyph name="M" format="2">
  <advance width="696"/>
  <unicode hex="004D"/>
  <anchor x="292" y="0" name="bottom"/>
  <anchor x="443" y="714" name="top"/>
  <anchor x="771" y="714" name="topright"/>
  <outline>
    <contour>
      <point x="-2" y="0" type="line"/>
      <point x="116" y="0" type="line"/>
      <point x="195" y="373" type="line" smooth="yes"/>
      <point x="202" y="405"/>
      <point x="207" y="440"/>
      <point x="214" y="481" type="curve"/>
      <point x="217" y="481" type="line"/>
      <point x="231" y="0" type="line"/>
      <point x="340" y="0" type="line"/>
      <point x="558" y="484" type="line"/>
      <point x="560" y="484" type="line"/>
      <point x="553" y="455"/>
      <point x="545" y="428"/>
      <point x="539" y="401" type="curve" smooth="yes"/>
      <point x="454" y="0" type="line"/>
      <point x="576" y="0" type="line"/>
      <point x="728" y="714" type="line"/>
      <point x="551" y="714" type="line"/>
      <point x="333" y="219" type="line"/>
      <point x="330" y="219" type="line"/>
      <point x="315" y="714" type="line"/>
      <point x="149" y="714" type="line"/>
    </contour>
  </outline>
</glyph>
<glyph name="N" format="2">
  <advance width="561"/>
  <unicode hex="004E"/>
  <anchor x="225" y="0" name="bottom"/>
  <anchor x="376" y="714" name="top"/>
  <anchor x="636" y="714" name="topright"/>
  <outline>
    <contour>
      <point x="-2" y="0" type="line"/>
      <point x="115" y="0" type="line"/>
      <point x="184" y="321" type="line"/>
      <point x="191" y="358"/>
      <point x="205" y="429"/>
      <point x="214" y="496" type="curve"/>
      <point x="217" y="496" type="line"/>
      <point x="301" y="0" type="line"/>
      <point x="442" y="0" type="line"/>
      <point x="593" y="714" type="line"/>
      <point x="475" y="714" type="line"/>
      <point x="405" y="388" type="line"/>
      <point x="398" y="351"/>
      <point x="387" y="290"/>
      <point x="377" y="229" type="curve"/>
      <point x="374" y="229" type="line"/>
      <point x="290" y="714" type="line"/>
      <point x="149" y="714" type="line"/>
    </contour>
  </outline>
</glyph>
<glyph name="N.serif" format="2">
  <advance width="641"/>
  <unicode hex="004E"/>
  <anchor x="264" y="0" name="bottom"/>
  <anchor x="416" y="714" name="top"/>
  <anchor x="716" y="714" name="topright"/>
  <outline>
    <contour>
      <point x="-19" y="0" type="line"/>
      <point x="185" y="0" type="line"/>
      <point x="196" y="50" type="line"/>
      <point x="190" y="50" type="line" smooth="yes"/>
      <point x="162" y="50"/>
      <point x="137" y="55"/>
      <point x="137" y="84" type="curve" smooth="yes"/>
      <point x="137" y="90"/>
      <point x="139" y="100"/>
      <point x="143" y="118" type="curve" smooth="yes"/>
      <point x="237" y="577" type="line"/>
      <point x="436" y="0" type="line"/>
      <point x="515" y="0" type="line"/>
      <point x="641" y="601" type="line"/>
      <point x="652" y="656"/>
      <point x="683" y="664"/>
      <point x="717" y="664" type="curve" smooth="yes"/>
      <point x="728" y="664" type="line"/>
      <point x="739" y="714" type="line"/>
      <point x="534" y="714" type="line"/>
      <point x="524" y="664" type="line"/>
      <point x="531" y="664" type="line" smooth="yes"/>
      <point x="558" y="664"/>
      <point x="582" y="659"/>
      <point x="582" y="630" type="curve" smooth="yes"/>
      <point x="582" y="623"/>
      <point x="580" y="609"/>
      <point x="577" y="598" type="curve" smooth="yes"/>
      <point x="493" y="185" type="line"/>
      <point x="317" y="714" type="line"/>
      <point x="131" y="714" type="line"/>
      <point x="119" y="664" type="line"/>
      <point x="130" y="664" type="line" smooth="yes"/>
      <point x="164" y="664"/>
      <point x="187" y="659"/>
      <point x="187" y="630" type="curve" smooth="yes"/>
      <point x="187" y="622"/>
      <point x="184" y="612"/>
      <point x="181" y="596" type="curve" smooth="yes"/>
      <point x="80" y="113" type="line"/>
      <point x="68" y="58"/>
      <point x="36" y="50"/>
      <point x="3" y="50" type="curve" smooth="yes"/>
      <point x="-8" y="50" type="line"/>
    </contour>
  </outline>
</glyph>
<glyph name="O" format="2">
  <advance width="536"/>
  <unicode hex="004F"/>
  <anchor x="212" y="0" name="bottom"/>
  <anchor x="299" y="357" name="center"/>
  <anchor x="363" y="714" name="top"/>
  <anchor x="611" y="714" name="topright"/>
  <outline>
    <contour>
      <point x="218" y="-10" type="curve" smooth="yes"/>
      <point x="441" y="-10"/>
      <point x="529" y="313"/>
      <point x="529" y="502" type="curve" smooth="yes"/>
      <point x="529" y="650"/>
      <point x="474" y="725"/>
      <point x="349" y="725" type="curve" smooth="yes"/>
      <point x="143" y="725"/>
      <point x="35" y="437"/>
      <point x="35" y="217" type="curve" smooth="yes"/>
      <point x="35" y="61"/>
      <point x="94" y="-10"/>
    </contour>
    <contour>
      <point x="228" y="102" type="curve" smooth="yes"/>
      <point x="187" y="102"/>
      <point x="166" y="130"/>
      <point x="166" y="216" type="curve" smooth="yes"/>
      <point x="166" y="338"/>
      <point x="221" y="614"/>
      <point x="339" y="614" type="curve" smooth="yes"/>
      <point x="379" y="614"/>
      <point x="400" y="579"/>
      <point x="400" y="505" type="curve" smooth="yes"/>
      <point x="400" y="369"/>
      <point x="341" y="102"/>
    </contour>
  </outline>
</glyph>
<glyph name="O.serif" format="2">
  <advance width="649"/>
  <unicode hex="004F"/>
  <anchor x="268" y="0" name="bottom"/>
  <anchor x="363" y="357" name="center"/>
  <anchor x="420" y="714" name="top"/>
  <anchor x="724" y="714" name="topright"/>
  <outline>
    <contour>
      <point x="281" y="-11" type="curve" smooth="yes"/>
      <point x="525" y="-11"/>
      <point x="649" y="281"/>
      <point x="649" y="468" type="curve" smooth="yes"/>
      <point x="649" y="646"/>
      <point x="549" y="725"/>
      <point x="431" y="725" type="curve" smooth="yes"/>
      <point x="193" y="725"/>
      <point x="63" y="444"/>
      <point x="63" y="249" type="curve" smooth="yes"/>
      <point x="63" y="79"/>
      <point x="156" y="-11"/>
    </contour>
    <contour>
      <point x="302" y="52" type="curve" smooth="yes"/>
      <point x="246" y="52"/>
      <point x="203" y="103"/>
      <point x="203" y="222" type="curve" smooth="yes"/>
      <point x="203" y="376"/>
      <point x="274" y="663"/>
      <point x="409" y="663" type="curve" smooth="yes"/>
      <point x="469" y="663"/>
      <point x="508" y="610"/>
      <point x="508" y="493" type="curve" smooth="yes"/>
      <point x="508" y="338"/>
      <point x="440" y="52"/>
    </contour>
  </outline>
</glyph>
<glyph name="P" format="2">
  <advance width="444"/>
  <unicode hex="0050"/>
  <anchor x="166" y="0" name="bottom"/>
  <anchor x="317" y="714" name="top"/>
  <anchor x="519" y="714" name="topright"/>
  <outline>
    <contour>
      <point x="-2" y="0" type="line"/>
      <point x="123" y="0" type="line"/>
      <point x="177" y="258" type="line"/>
      <point x="219" y="258" type="line" smooth="yes"/>
      <point x="389" y="258"/>
      <point x="469" y="403"/>
      <point x="469" y="550" type="curve" smooth="yes"/>
      <point x="469" y="649"/>
      <point x="414" y="714"/>
      <point x="291" y="714" type="curve" smooth="yes"/>
      <point x="149" y="714" type="line"/>
    </contour>
    <contour>
      <point x="220" y="367" type="curve" smooth="yes"/>
      <point x="200" y="367" type="line"/>
      <point x="251" y="605" type="line"/>
      <point x="270" y="605" type="line" smooth="yes"/>
      <point x="317" y="605"/>
      <point x="340" y="584"/>
      <point x="340" y="534" type="curve" smooth="yes"/>
      <point x="340" y="435"/>
      <point x="297" y="367"/>
    </contour>
  </outline>
</glyph>
<glyph name="P.serif" format="2">
  <advance width="544"/>
  <unicode hex="0050"/>
  <anchor x="130" y="0" name="bottom"/>
  <anchor x="367" y="714" name="top"/>
  <anchor x="619" y="714" name="topright"/>
  <outline>
    <contour>
      <point x="-19" y="0" type="line"/>
      <point x="283" y="0" type="line"/>
      <point x="295" y="50" type="line"/>
      <point x="269" y="50" type="line" smooth="yes"/>
      <point x="235" y="50"/>
      <point x="211" y="55"/>
      <point x="211" y="84" type="curve" smooth="yes"/>
      <point x="211" y="91"/>
      <point x="214" y="105"/>
      <point x="217" y="119" type="curve" smooth="yes"/>
      <point x="251" y="274" type="line"/>
      <point x="313" y="274" type="line" smooth="yes"/>
      <point x="483" y="274"/>
      <point x="571" y="387"/>
      <point x="571" y="530" type="curve" smooth="yes"/>
      <point x="571" y="651"/>
      <point x="493" y="714"/>
      <point x="368" y="714" type="curve" smooth="yes"/>
      <point x="131" y="714" type="line"/>
      <point x="119" y="664" type="line"/>
      <point x="130" y="664" type="line" smooth="yes"/>
      <point x="164" y="664"/>
      <point x="187" y="659"/>
      <point x="187" y="630" type="curve" smooth="yes"/>
      <point x="187" y="623"/>
      <point x="185" y="613"/>
      <point x="181" y="596" type="curve" smooth="yes"/>
      <point x="80" y="113" type="line" smooth="yes"/>
      <point x="68" y="58"/>
      <point x="36" y="50"/>
      <point x="3" y="50" type="curve" smooth="yes"/>
      <point x="-8" y="50" type="line"/>
    </contour>
    <contour>
      <point x="296" y="329" type="curve" smooth="yes"/>
      <point x="263" y="329" type="line"/>
      <point x="334" y="658" type="line"/>
      <point x="354" y="658" type="line" smooth="yes"/>
      <point x="398" y="658"/>
      <point x="430" y="630"/>
      <point x="430" y="540" type="curve" smooth="yes"/>
      <point x="430" y="427"/>
      <point x="388" y="329"/>
    </contour>
  </outline>
</glyph>
<glyph name="Q" format="2">
  <advance width="536"/>
  <unicode hex="0051"/>
  <anchor x="176" y="-170" name="bottom"/>
  <anchor x="363" y="714" name="top"/>
  <anchor x="611" y="714" name="topright"/>
  <outline>
    <contour>
      <point x="200" y="-8" type="curve"/>
      <point x="244" y="-170" type="line"/>
      <point x="388" y="-170" type="line"/>
      <point x="324" y="18" type="line"/>
      <point x="470" y="96"/>
      <point x="529" y="346"/>
      <point x="529" y="502" type="curve" smooth="yes"/>
      <point x="529" y="650"/>
      <point x="474" y="725"/>
      <point x="349" y="725" type="curve" smooth="yes"/>
      <point x="143" y="725"/>
      <point x="35" y="437"/>
      <point x="35" y="217" type="curve" smooth="yes"/>
      <point x="35" y="75"/>
      <point x="83" y="4"/>
      <point x="184" y="-7" type="curve" smooth="yes"/>
      <point x="189" y="-8"/>
      <point x="194" y="-8"/>
    </contour>
    <contour>
      <point x="228" y="102" type="curve" smooth="yes"/>
      <point x="187" y="102"/>
      <point x="166" y="130"/>
      <point x="166" y="216" type="curve" smooth="yes"/>
      <point x="166" y="338"/>
      <point x="221" y="614"/>
      <point x="339" y="614" type="curve" smooth="yes"/>
      <point x="379" y="614"/>
      <point x="400" y="579"/>
      <point x="400" y="505" type="curve" smooth="yes"/>
      <point x="400" y="369"/>
      <point x="341" y="102"/>
    </contour>
  </outline>
</glyph>
<glyph name="Q.serif" format="2">
  <advance width="644"/>
  <unicode hex="0051"/>
  <anchor x="216" y="-230" name="bottom"/>
  <anchor x="417" y="714" name="top"/>
  <anchor x="719" y="714" name="topright"/>
  <outline>
    <contour>
      <point x="386" y="-230" type="curve" smooth="yes"/>
      <point x="416" y="-230"/>
      <point x="437" y="-225"/>
      <point x="468" y="-213" type="curve"/>
      <point x="462" y="-169" type="line"/>
      <point x="453" y="-173"/>
      <point x="445" y="-175"/>
      <point x="435" y="-175" type="curve" smooth="yes"/>
      <point x="397" y="-175"/>
      <point x="365" y="-137"/>
      <point x="364" y="-2" type="curve"/>
      <point x="551" y="48"/>
      <point x="648" y="300"/>
      <point x="648" y="468" type="curve" smooth="yes"/>
      <point x="648" y="646"/>
      <point x="549" y="725"/>
      <point x="430" y="725" type="curve" smooth="yes"/>
      <point x="192" y="725"/>
      <point x="62" y="444"/>
      <point x="62" y="248" type="curve" smooth="yes"/>
      <point x="62" y="106"/>
      <point x="125" y="19"/>
      <point x="218" y="-4" type="curve"/>
      <point x="219" y="-156"/>
      <point x="293" y="-230"/>
    </contour>
    <contour>
      <point x="301" y="52" type="curve" smooth="yes"/>
      <point x="244" y="52"/>
      <point x="202" y="103"/>
      <point x="202" y="222" type="curve" smooth="yes"/>
      <point x="202" y="376"/>
      <point x="272" y="663"/>
      <point x="409" y="663" type="curve" smooth="yes"/>
      <point x="468" y="663"/>
      <point x="507" y="610"/>
      <point x="507" y="493" type="curve" smooth="yes"/>
      <point x="507" y="338"/>
      <point x="438" y="52"/>
    </contour>
  </outline>
</glyph>
<glyph name="R" format="2">
  <advance width="463"/>
  <unicode hex="0052"/>
  <anchor x="176" y="0" name="bottom"/>
  <anchor x="327" y="714" name="top"/>
  <anchor x="538" y="714" name="topright"/>
  <outline>
    <contour>
      <point x="-2" y="0" type="line"/>
      <point x="123" y="0" type="line"/>
      <point x="182" y="282" type="line"/>
      <point x="215" y="282" type="line"/>
      <point x="265" y="0" type="line"/>
      <point x="403" y="0" type="line"/>
      <point x="333" y="307" type="line"/>
      <point x="419" y="338"/>
      <point x="473" y="431"/>
      <point x="473" y="552" type="curve" smooth="yes"/>
      <point x="473" y="656"/>
      <point x="411" y="714"/>
      <point x="284" y="714" type="curve" smooth="yes"/>
      <point x="149" y="714" type="line"/>
    </contour>
    <contour>
      <point x="233" y="384" type="curve" smooth="yes"/>
      <point x="204" y="384" type="line"/>
      <point x="251" y="607" type="line"/>
      <point x="271" y="607" type="line" smooth="yes"/>
      <point x="317" y="607"/>
      <point x="341" y="583"/>
      <point x="341" y="535" type="curve" smooth="yes"/>
      <point x="341" y="462"/>
      <point x="307" y="384"/>
    </contour>
  </outline>
</glyph>
<glyph name="R.serif" format="2">
  <advance width="579"/>
  <unicode hex="0052"/>
  <anchor x="233" y="0" name="bottom"/>
  <anchor x="385" y="714" name="top"/>
  <anchor x="654" y="714" name="topright"/>
  <outline>
    <contour>
      <point x="-19" y="0" type="line"/>
      <point x="283" y="0" type="line"/>
      <point x="295" y="50" type="line"/>
      <point x="269" y="50" type="line" smooth="yes"/>
      <point x="235" y="50"/>
      <point x="211" y="55"/>
      <point x="211" y="84" type="curve" smooth="yes"/>
      <point x="211" y="91"/>
      <point x="213" y="102"/>
      <point x="218" y="122" type="curve" smooth="yes"/>
      <point x="258" y="311" type="line"/>
      <point x="307" y="311" type="line"/>
      <point x="351" y="115" type="line" smooth="yes"/>
      <point x="372" y="20"/>
      <point x="424" y="0"/>
      <point x="535" y="0" type="curve" smooth="yes"/>
      <point x="550" y="0" type="line"/>
      <point x="562" y="50" type="line"/>
      <point x="556" y="50" type="line" smooth="yes"/>
      <point x="523" y="50"/>
      <point x="505" y="79"/>
      <point x="484" y="152" type="curve" smooth="yes"/>
      <point x="436" y="338" type="line"/>
      <point x="506" y="359"/>
      <point x="589" y="414"/>
      <point x="589" y="556" type="curve" smooth="yes"/>
      <point x="589" y="662"/>
      <point x="526" y="714"/>
      <point x="401" y="714" type="curve" smooth="yes"/>
      <point x="131" y="714" type="line"/>
      <point x="119" y="664" type="line"/>
      <point x="130" y="664" type="line" smooth="yes"/>
      <point x="164" y="664"/>
      <point x="187" y="659"/>
      <point x="187" y="630" type="curve" smooth="yes"/>
      <point x="187" y="624"/>
      <point x="185" y="615"/>
      <point x="181" y="596" type="curve" smooth="yes"/>
      <point x="79" y="111" type="line" smooth="yes"/>
      <point x="68" y="57"/>
      <point x="36" y="50"/>
      <point x="3" y="50" type="curve" smooth="yes"/>
      <point x="-8" y="50" type="line"/>
    </contour>
    <contour>
      <point x="316" y="366" type="curve" smooth="yes"/>
      <point x="269" y="366" type="line"/>
      <point x="332" y="658" type="line"/>
      <point x="371" y="658" type="line" smooth="yes"/>
      <point x="418" y="658"/>
      <point x="441" y="628"/>
      <point x="441" y="554" type="curve" smooth="yes"/>
      <point x="441" y="418"/>
      <point x="384" y="366"/>
    </contour>
  </outline>
</glyph>
<glyph name="S" format="2">
  <advance width="407"/>
  <unicode hex="0053"/>
  <anchor x="148" y="0" name="bottom"/>
  <anchor x="299" y="714" name="top"/>
  <anchor x="482" y="714" name="topright"/>
  <outline>
    <contour>
      <point x="134" y="-10" type="curve" smooth="yes"/>
      <point x="286" y="-10"/>
      <point x="363" y="95"/>
      <point x="363" y="219" type="curve" smooth="yes"/>
      <point x="363" y="298"/>
      <point x="339" y="350"/>
      <point x="282" y="400" type="curve" smooth="yes"/>
      <point x="227" y="449"/>
      <point x="209" y="477"/>
      <point x="209" y="518" type="curve" smooth="yes"/>
      <point x="209" y="577"/>
      <point x="248" y="608"/>
      <point x="295" y="608" type="curve" smooth="yes"/>
      <point x="325" y="608"/>
      <point x="360" y="592"/>
      <point x="396" y="565" type="curve"/>
      <point x="453" y="678" type="line"/>
      <point x="412" y="708"/>
      <point x="353" y="724"/>
      <point x="302" y="724" type="curve" smooth="yes"/>
      <point x="156" y="724"/>
      <point x="78" y="631"/>
      <point x="78" y="505" type="curve" smooth="yes"/>
      <point x="78" y="423"/>
      <point x="107" y="375"/>
      <point x="165" y="322" type="curve" smooth="yes"/>
      <point x="218" y="272"/>
      <point x="230" y="246"/>
      <point x="230" y="205" type="curve" smooth="yes"/>
      <point x="230" y="136"/>
      <point x="186" y="108"/>
      <point x="135" y="108" type="curve" smooth="yes"/>
      <point x="89" y="108"/>
      <point x="38" y="132"/>
      <point x="4" y="159" type="curve"/>
      <point x="-21" y="30" type="line"/>
      <point x="18" y="2"/>
      <point x="69" y="-10"/>
    </contour>
  </outline>
</glyph>
<glyph name="S.serif" format="2">
  <advance width="481"/>
  <unicode hex="0053"/>
  <anchor x="184" y="0" name="bottom"/>
  <anchor x="336" y="714" name="top"/>
  <anchor x="556" y="714" name="topright"/>
  <outline>
    <contour>
      <point x="217" y="-10" type="curve" smooth="yes"/>
      <point x="357" y="-10"/>
      <point x="449" y="74"/>
      <point x="449" y="219" type="curve" smooth="yes"/>
      <point x="449" y="297"/>
      <point x="414" y="358"/>
      <point x="338" y="411" type="curve" smooth="yes"/>
      <point x="269" y="457"/>
      <point x="233" y="484"/>
      <point x="233" y="549" type="curve" smooth="yes"/>
      <point x="233" y="629"/>
      <point x="275" y="666"/>
      <point x="323" y="666" type="curve" smooth="yes"/>
      <point x="390" y="666"/>
      <point x="405" y="590"/>
      <point x="403" y="531" type="curve"/>
      <point x="481" y="531"/>
      <point x="514" y="563"/>
      <point x="514" y="617" type="curve" smooth="yes"/>
      <point x="514" y="677"/>
      <point x="457" y="724"/>
      <point x="337" y="724" type="curve" smooth="yes"/>
      <point x="202" y="724"/>
      <point x="112" y="635"/>
      <point x="112" y="506" type="curve" smooth="yes"/>
      <point x="112" y="413"/>
      <point x="154" y="358"/>
      <point x="235" y="305" type="curve" smooth="yes"/>
      <point x="310" y="253"/>
      <point x="330" y="217"/>
      <point x="330" y="165" type="curve" smooth="yes"/>
      <point x="330" y="99"/>
      <point x="293" y="49"/>
      <point x="231" y="49" type="curve" smooth="yes"/>
      <point x="159" y="49"/>
      <point x="126" y="110"/>
      <point x="130" y="224" type="curve"/>
      <point x="65" y="224"/>
      <point x="18" y="194"/>
      <point x="18" y="130" type="curve" smooth="yes"/>
      <point x="18" y="52"/>
      <point x="83" y="-10"/>
    </contour>
  </outline>
</glyph>
<glyph name="T" format="2">
  <advance width="388"/>
  <unicode hex="0054"/>
  <anchor x="138" y="0" name="bottom"/>
  <anchor x="226" y="357" name="center"/>
  <anchor x="290" y="714" name="top"/>
  <anchor x="463" y="714" name="topright"/>
  <outline>
    <contour>
      <point x="70" y="0" type="line"/>
      <point x="195" y="0" type="line"/>
      <point x="323" y="603" type="line"/>
      <point x="442" y="603" type="line"/>
      <point x="466" y="714" type="line"/>
      <point x="103" y="714" type="line"/>
      <point x="79" y="603" type="line"/>
      <point x="198" y="603" type="line"/>
    </contour>
  </outline>
</glyph>
<glyph name="T.serif" format="2">
  <advance width="535"/>
  <unicode hex="0054"/>
  <anchor x="210" y="0" name="bottom"/>
  <anchor x="305" y="357" name="center"/>
  <anchor x="362" y="714" name="top"/>
  <anchor x="610" y="714" name="topright"/>
  <outline>
    <contour>
      <point x="86" y="0" type="line"/>
      <point x="370" y="0" type="line"/>
      <point x="382" y="50" type="line"/>
      <point x="373" y="50" type="line" smooth="yes"/>
      <point x="339" y="50"/>
      <point x="314" y="55"/>
      <point x="314" y="84" type="curve" smooth="yes"/>
      <point x="314" y="91"/>
      <point x="316" y="100"/>
      <point x="320" y="120" type="curve" smooth="yes"/>
      <point x="434" y="656" type="line"/>
      <point x="496" y="656" type="line" smooth="yes"/>
      <point x="534" y="656"/>
      <point x="551" y="637"/>
      <point x="551" y="603" type="curve" smooth="yes"/>
      <point x="551" y="592"/>
      <point x="543" y="540"/>
      <point x="541" y="525" type="curve"/>
      <point x="597" y="525" type="line"/>
      <point x="633" y="714" type="line"/>
      <point x="121" y="714" type="line"/>
      <point x="75" y="525" type="line"/>
      <point x="132" y="525" type="line"/>
      <point x="145" y="568" type="line" smooth="yes"/>
      <point x="162" y="622"/>
      <point x="183" y="656"/>
      <point x="233" y="656" type="curve" smooth="yes"/>
      <point x="295" y="656" type="line"/>
      <point x="183" y="111" type="line" smooth="yes"/>
      <point x="171" y="57"/>
      <point x="140" y="50"/>
      <point x="107" y="50" type="curve" smooth="yes"/>
      <point x="97" y="50" type="line"/>
    </contour>
  </outline>
</glyph>
<glyph name="U" format="2">
  <advance width="509"/>
  <unicode hex="0055"/>
  <anchor x="198" y="0" name="bottom"/>
  <anchor x="350" y="714" name="top"/>
  <anchor x="584" y="714" name="topright"/>
  <outline>
    <contour>
      <point x="199" y="-10" type="curve" smooth="yes"/>
      <point x="340" y="-10"/>
      <point x="408" y="75"/>
      <point x="439" y="222" type="curve" smooth="yes"/>
      <point x="544" y="714" type="line"/>
      <point x="419" y="714" type="line"/>
      <point x="317" y="239" type="line" smooth="yes"/>
      <point x="297" y="142"/>
      <point x="269" y="102"/>
      <point x="216" y="102" type="curve" smooth="yes"/>
      <point x="180" y="102"/>
      <point x="161" y="124"/>
      <point x="161" y="172" type="curve" smooth="yes"/>
      <point x="161" y="189"/>
      <point x="163" y="211"/>
      <point x="169" y="234" type="curve" smooth="yes"/>
      <point x="271" y="714" type="line"/>
      <point x="146" y="714" type="line"/>
      <point x="44" y="237" type="line" smooth="yes"/>
      <point x="38" y="207"/>
      <point x="34" y="176"/>
      <point x="34" y="152" type="curve" smooth="yes"/>
      <point x="34" y="50"/>
      <point x="96" y="-10"/>
    </contour>
  </outline>
</glyph>
<glyph name="U.serif" format="2">
  <advance width="608"/>
  <unicode hex="0055"/>
  <anchor x="247" y="0" name="bottom"/>
  <anchor x="399" y="714" name="top"/>
  <anchor x="683" y="714" name="topright"/>
  <outline>
    <contour>
      <point x="279" y="-10" type="curve" smooth="yes"/>
      <point x="416" y="-10"/>
      <point x="497" y="72"/>
      <point x="526" y="216" type="curve" smooth="yes"/>
      <point x="606" y="600" type="line" smooth="yes"/>
      <point x="617" y="656"/>
      <point x="650" y="664"/>
      <point x="684" y="664" type="curve" smooth="yes"/>
      <point x="695" y="664" type="line"/>
      <point x="706" y="714" type="line"/>
      <point x="491" y="714" type="line"/>
      <point x="481" y="664" type="line"/>
      <point x="491" y="664" type="line" smooth="yes"/>
      <point x="524" y="664"/>
      <point x="548" y="659"/>
      <point x="548" y="630" type="curve" smooth="yes"/>
      <point x="548" y="624"/>
      <point x="546" y="611"/>
      <point x="543" y="599" type="curve" smooth="yes"/>
      <point x="467" y="241" type="line" smooth="yes"/>
      <point x="445" y="135"/>
      <point x="409" y="58"/>
      <point x="314" y="58" type="curve" smooth="yes"/>
      <point x="254" y="58"/>
      <point x="222" y="90"/>
      <point x="222" y="155" type="curve" smooth="yes"/>
      <point x="222" y="184"/>
      <point x="229" y="220"/>
      <point x="236" y="249" type="curve" smooth="yes"/>
      <point x="311" y="601" type="line" smooth="yes"/>
      <point x="322" y="656"/>
      <point x="355" y="664"/>
      <point x="390" y="664" type="curve" smooth="yes"/>
      <point x="401" y="664" type="line"/>
      <point x="412" y="714" type="line"/>
      <point x="123" y="714" type="line"/>
      <point x="112" y="664" type="line"/>
      <point x="122" y="664" type="line" smooth="yes"/>
      <point x="155" y="664"/>
      <point x="179" y="659"/>
      <point x="179" y="630" type="curve" smooth="yes"/>
      <point x="179" y="624"/>
      <point x="177" y="615"/>
      <point x="173" y="594" type="curve" smooth="yes"/>
      <point x="99" y="252" type="line" smooth="yes"/>
      <point x="94" y="228"/>
      <point x="87" y="180"/>
      <point x="87" y="154" type="curve" smooth="yes"/>
      <point x="87" y="50"/>
      <point x="154" y="-10"/>
    </contour>
  </outline>
</glyph>
<glyph name="V" format="2">
  <advance width="464"/>
  <unicode hex="0056"/>
  <anchor x="176" y="0" name="bottom"/>
  <anchor x="327" y="714" name="top"/>
  <anchor x="539" y="714" name="topright"/>
  <outline>
    <contour>
      <point x="99" y="0" type="line"/>
      <point x="243" y="0" type="line"/>
      <point x="551" y="714" type="line"/>
      <point x="417" y="714" type="line"/>
      <point x="249" y="298" type="line" smooth="yes"/>
      <point x="229" y="251"/>
      <point x="216" y="209"/>
      <point x="205" y="170" type="curve"/>
      <point x="203" y="170" type="line"/>
      <point x="209" y="226"/>
      <point x="211" y="264"/>
      <point x="212" y="307" type="curve" smooth="yes"/>
      <point x="218" y="714" type="line"/>
      <point x="90" y="714" type="line"/>
    </contour>
  </outline>
</glyph>
<glyph name="V.serif" format="2">
  <advance width="570"/>
  <unicode hex="0056"/>
  <anchor x="230" y="0" name="bottom"/>
  <anchor x="382" y="714" name="top"/>
  <anchor x="648.01" y="714" name="topright"/>
  <outline>
    <contour>
      <point x="156" y="615" type="curve" smooth="yes"/>
      <point x="199" y="0" type="line"/>
      <point x="285" y="0" type="line"/>
      <point x="577" y="594" type="line" smooth="yes"/>
      <point x="607" y="653"/>
      <point x="617" y="664"/>
      <point x="648" y="664" type="curve" smooth="yes"/>
      <point x="668" y="664" type="line"/>
      <point x="679" y="714" type="line"/>
      <point x="466" y="714" type="line"/>
      <point x="456" y="664" type="line"/>
      <point x="475" y="664" type="line" smooth="yes"/>
      <point x="505" y="664"/>
      <point x="521" y="657"/>
      <point x="521" y="636" type="curve" smooth="yes"/>
      <point x="521" y="623"/>
      <point x="517" y="608"/>
      <point x="504" y="582" type="curve" smooth="yes"/>
      <point x="374" y="308" type="line" smooth="yes"/>
      <point x="342" y="242"/>
      <point x="322" y="181"/>
      <point x="308" y="140" type="curve"/>
      <point x="310" y="175"/>
      <point x="312" y="230"/>
      <point x="310" y="285" type="curve" smooth="yes"/>
      <point x="296" y="587" type="line" smooth="yes"/>
      <point x="296" y="592"/>
      <point x="295" y="602"/>
      <point x="295" y="608" type="curve" smooth="yes"/>
      <point x="295" y="655"/>
      <point x="318" y="664"/>
      <point x="354" y="664" type="curve" smooth="yes"/>
      <point x="373" y="664" type="line"/>
      <point x="384" y="714" type="line"/>
      <point x="107" y="714" type="line"/>
      <point x="96" y="664" type="line"/>
      <point x="107" y="664" type="line" smooth="yes"/>
      <point x="133" y="664"/>
      <point x="153" y="656"/>
    </contour>
  </outline>
</glyph>
<glyph name="W" format="2">
  <advance width="700"/>
  <unicode hex="0057"/>
  <anchor x="294" y="0" name="bottom"/>
  <anchor x="445" y="714" name="top"/>
  <anchor x="775" y="714" name="topright"/>
  <outline>
    <contour>
      <point x="68" y="0" type="line"/>
      <point x="210" y="0" type="line"/>
      <point x="348" y="357" type="line" smooth="yes"/>
      <point x="360" y="387"/>
      <point x="370" y="418"/>
      <point x="380" y="449" type="curve"/>
      <point x="382" y="449" type="line"/>
      <point x="379" y="413"/>
      <point x="376" y="377"/>
      <point x="376" y="348" type="curve" smooth="yes"/>
      <point x="365" y="0" type="line"/>
      <point x="509" y="0" type="line"/>
      <point x="786" y="714" type="line"/>
      <point x="660" y="714" type="line"/>
      <point x="520" y="347" type="line" smooth="yes"/>
      <point x="501" y="298"/>
      <point x="486" y="258"/>
      <point x="472" y="214" type="curve"/>
      <point x="470" y="214" type="line"/>
      <point x="473" y="257"/>
      <point x="475" y="293"/>
      <point x="478" y="349" type="curve" smooth="yes"/>
      <point x="491" y="714" type="line"/>
      <point x="385" y="714" type="line"/>
      <point x="238" y="343" type="line" smooth="yes"/>
      <point x="220" y="299"/>
      <point x="204" y="256"/>
      <point x="189" y="213" type="curve"/>
      <point x="187" y="213" type="line"/>
      <point x="191" y="245"/>
      <point x="194" y="288"/>
      <point x="197" y="343" type="curve" smooth="yes"/>
      <point x="211.008" y="714" type="line"/>
      <point x="90" y="714" type="line"/>
    </contour>
  </outline>
</glyph>
<glyph name="W.serif" format="2">
  <advance width="867"/>
  <unicode hex="0057"/>
  <anchor x="377" y="0" name="bottom"/>
  <anchor x="529" y="714" name="top"/>
  <anchor x="942.01" y="714" name="topright"/>
  <outline>
    <contour>
      <point x="156" y="615" type="curve" smooth="yes"/>
      <point x="175" y="0" type="line"/>
      <point x="281" y="0" type="line"/>
      <point x="493" y="495" type="line"/>
      <point x="534" y="0" type="line"/>
      <point x="630" y="0" type="line"/>
      <point x="876" y="590" type="line" smooth="yes"/>
      <point x="903" y="652"/>
      <point x="917" y="664"/>
      <point x="949" y="664" type="curve" smooth="yes"/>
      <point x="968" y="664" type="line"/>
      <point x="980" y="714" type="line"/>
      <point x="766" y="714" type="line"/>
      <point x="755" y="664" type="line"/>
      <point x="775" y="664" type="line" smooth="yes"/>
      <point x="804" y="664"/>
      <point x="817" y="659"/>
      <point x="817" y="639" type="curve" smooth="yes"/>
      <point x="817" y="626"/>
      <point x="811" y="604"/>
      <point x="802" y="582" type="curve" smooth="yes"/>
      <point x="707" y="344" type="line" smooth="yes"/>
      <point x="681" y="281"/>
      <point x="655" y="210"/>
      <point x="643" y="157" type="curve"/>
      <point x="644" y="194"/>
      <point x="644" y="243"/>
      <point x="639" y="295" type="curve" smooth="yes"/>
      <point x="598" y="707" type="line"/>
      <point x="532" y="707" type="line"/>
      <point x="348" y="295" type="line" smooth="yes"/>
      <point x="327" y="247"/>
      <point x="307" y="207"/>
      <point x="298" y="163" type="curve"/>
      <point x="299" y="211"/>
      <point x="299" y="295"/>
      <point x="298" y="341" type="curve" smooth="yes"/>
      <point x="293" y="574" type="line" smooth="yes"/>
      <point x="293" y="595"/>
      <point x="292" y="610"/>
      <point x="293" y="620" type="curve" smooth="yes"/>
      <point x="295" y="656"/>
      <point x="317" y="664"/>
      <point x="351" y="664" type="curve" smooth="yes"/>
      <point x="370" y="664" type="line"/>
      <point x="381" y="714" type="line"/>
      <point x="107" y="714" type="line"/>
      <point x="96" y="664" type="line"/>
      <point x="107" y="664" type="line" smooth="yes"/>
      <point x="133" y="664"/>
      <point x="154" y="656"/>
    </contour>
  </outline>
</glyph>
<glyph name="X" format="2">
  <advance width="438"/>
  <unicode hex="0058"/>
  <anchor x="163" y="0" name="bottom"/>
  <anchor x="314" y="714" name="top"/>
  <anchor x="513" y="714" name="topright"/>
  <outline>
    <contour>
      <point x="-58" y="0" type="line"/>
      <point x="75" y="0" type="line"/>
      <point x="211" y="236" type="line"/>
      <point x="239" y="0" type="line"/>
      <point x="374" y="0" type="line"/>
      <point x="306" y="364" type="line"/>
      <point x="511" y="714" type="line"/>
      <point x="377" y="714" type="line"/>
      <point x="262" y="495" type="line"/>
      <point x="235" y="714" type="line"/>
      <point x="105" y="714" type="line"/>
      <point x="164" y="366" type="line"/>
    </contour>
  </outline>
</glyph>
<glyph name="X.serif" format="2">
  <advance width="604"/>
  <unicode hex="0058"/>
  <anchor x="246" y="0" name="bottom"/>
  <anchor x="398" y="714" name="top"/>
  <anchor x="679" y="714" name="topright"/>
  <outline>
    <contour>
      <point x="-33" y="0" type="line"/>
      <point x="173" y="0" type="line"/>
      <point x="185" y="50" type="line"/>
      <point x="179" y="50" type="line" smooth="yes"/>
      <point x="149" y="50"/>
      <point x="140" y="59"/>
      <point x="140" y="76" type="curve" smooth="yes"/>
      <point x="140" y="96"/>
      <point x="153" y="121"/>
      <point x="175" y="147" type="curve" smooth="yes"/>
      <point x="337" y="346" type="line"/>
      <point x="282" y="338" type="line"/>
      <point x="331" y="184" type="line"/>
      <point x="344" y="138"/>
      <point x="349" y="109"/>
      <point x="349" y="91" type="curve" smooth="yes"/>
      <point x="349" y="64"/>
      <point x="335" y="50"/>
      <point x="302" y="50" type="curve" smooth="yes"/>
      <point x="289" y="50" type="line"/>
      <point x="279" y="0" type="line"/>
      <point x="554" y="0" type="line"/>
      <point x="566" y="50" type="line"/>
      <point x="556" y="50" type="line" smooth="yes"/>
      <point x="536" y="50"/>
      <point x="515" y="62"/>
      <point x="502" y="103" type="curve" smooth="yes"/>
      <point x="404" y="420" type="line"/>
      <point x="369" y="341" type="line"/>
      <point x="573" y="592" type="line" smooth="yes"/>
      <point x="617" y="646"/>
      <point x="637" y="664"/>
      <point x="668" y="664" type="curve" smooth="yes"/>
      <point x="676" y="664" type="line"/>
      <point x="686" y="714" type="line"/>
      <point x="495" y="714" type="line"/>
      <point x="485" y="664" type="line"/>
      <point x="487" y="664" type="line" smooth="yes"/>
      <point x="512" y="664"/>
      <point x="524" y="656"/>
      <point x="524" y="640" type="curve" smooth="yes"/>
      <point x="524" y="620"/>
      <point x="511" y="597"/>
      <point x="494" y="577" type="curve" smooth="yes"/>
      <point x="350" y="396" type="line"/>
      <point x="407" y="399" type="line"/>
      <point x="356" y="576" type="line" smooth="yes"/>
      <point x="348" y="602"/>
      <point x="344" y="621"/>
      <point x="344" y="634" type="curve" smooth="yes"/>
      <point x="344" y="653"/>
      <point x="355" y="664"/>
      <point x="383" y="664" type="curve" smooth="yes"/>
      <point x="402" y="664" type="line"/>
      <point x="412" y="714" type="line"/>
      <point x="136" y="714" type="line"/>
      <point x="125" y="664" type="line"/>
      <point x="133" y="664" type="line" smooth="yes"/>
      <point x="163" y="664"/>
      <point x="180" y="657"/>
      <point x="193" y="613" type="curve" smooth="yes"/>
      <point x="285" y="320" type="line"/>
      <point x="318" y="403" type="line"/>
      <point x="86" y="122" type="line" smooth="yes"/>
      <point x="41" y="67"/>
      <point x="20" y="50"/>
      <point x="-12" y="50" type="curve" smooth="yes"/>
      <point x="-21" y="50" type="line"/>
    </contour>
  </outline>
</glyph>
<glyph name="Y" format="2">
  <advance width="425"/>
  <unicode hex="0059"/>
  <anchor x="157" y="0" name="bottom"/>
  <anchor x="308" y="714" name="top"/>
  <anchor x="501" y="714" name="topright"/>
  <outline>
    <contour>
      <point x="89" y="0" type="line"/>
      <point x="214" y="0" type="line"/>
      <point x="273" y="276" type="line"/>
      <point x="515" y="714" type="line"/>
      <point x="381" y="714" type="line"/>
      <point x="241" y="436" type="line"/>
      <point x="219" y="714" type="line"/>
      <point x="89" y="714" type="line"/>
      <point x="146" y="272" type="line"/>
    </contour>
  </outline>
</glyph>
<glyph name="Y.serif" format="2">
  <advance width="571"/>
  <unicode hex="0059"/>
  <anchor x="229" y="0" name="bottom"/>
  <anchor x="381" y="714" name="top"/>
  <anchor x="646" y="714" name="topright"/>
  <outline>
    <contour>
      <point x="89" y="0" type="line"/>
      <point x="396" y="0" type="line"/>
      <point x="408" y="50" type="line"/>
      <point x="388" y="50" type="line" smooth="yes"/>
      <point x="354" y="50"/>
      <point x="330" y="55"/>
      <point x="330" y="84" type="curve" smooth="yes"/>
      <point x="330" y="90"/>
      <point x="332" y="99"/>
      <point x="335" y="114" type="curve" smooth="yes"/>
      <point x="364" y="259" type="line"/>
      <point x="568" y="578" type="line" smooth="yes"/>
      <point x="611" y="646"/>
      <point x="622" y="664"/>
      <point x="651" y="664" type="curve" smooth="yes"/>
      <point x="666" y="664" type="line"/>
      <point x="677" y="714" type="line"/>
      <point x="463" y="714" type="line"/>
      <point x="451" y="664" type="line"/>
      <point x="465" y="664" type="line" smooth="yes"/>
      <point x="502" y="664"/>
      <point x="516" y="656"/>
      <point x="516" y="636" type="curve" smooth="yes"/>
      <point x="516" y="616"/>
      <point x="508" y="595"/>
      <point x="489" y="565" type="curve" smooth="yes"/>
      <point x="404" y="424" type="line" smooth="yes"/>
      <point x="375" y="377"/>
      <point x="352" y="337"/>
      <point x="341" y="311" type="curve"/>
      <point x="340" y="358"/>
      <point x="332" y="410"/>
      <point x="324" y="456" type="curve" smooth="yes"/>
      <point x="315" y="512" type="line" smooth="yes"/>
      <point x="308" y="555"/>
      <point x="297" y="602"/>
      <point x="297" y="630" type="curve" smooth="yes"/>
      <point x="297" y="652"/>
      <point x="307" y="664"/>
      <point x="333" y="664" type="curve" smooth="yes"/>
      <point x="369" y="664" type="line"/>
      <point x="380" y="714" type="line"/>
      <point x="108" y="714" type="line"/>
      <point x="97" y="664" type="line"/>
      <point x="108" y="664" type="line" smooth="yes"/>
      <point x="139" y="664"/>
      <point x="145" y="650"/>
      <point x="153" y="611" type="curve" smooth="yes"/>
      <point x="226" y="264" type="line"/>
      <point x="197" y="113" type="line"/>
      <point x="187" y="59"/>
      <point x="156" y="50"/>
      <point x="122" y="50" type="curve" smooth="yes"/>
      <point x="99" y="50" type="line"/>
    </contour>
  </outline>
</glyph>
<glyph name="Z" format="2">
  <advance width="389"/>
  <unicode hex="005A"/>
  <anchor x="139" y="0" name="bottom"/>
  <anchor x="290" y="714" name="top"/>
  <anchor x="465" y="714" name="topright"/>
  <outline>
    <contour>
      <point x="-39.992" y="0" type="line"/>
      <point x="310" y="0" type="line"/>
      <point x="333" y="110" type="line"/>
      <point x="124" y="110" type="line"/>
      <point x="437" y="623" type="line"/>
      <point x="456" y="714" type="line"/>
      <point x="116" y="714" type="line"/>
      <point x="93" y="605" type="line"/>
      <point x="291" y="605" type="line"/>
      <point x="-21" y="90" type="line"/>
    </contour>
  </outline>
</glyph>
<glyph name="Z.serif" format="2">
  <advance width="549"/>
  <unicode hex="005A"/>
  <anchor x="218.01" y="0" name="bottom"/>
  <anchor x="370.01" y="714" name="top"/>
  <anchor x="624" y="714" name="topright"/>
  <outline>
    <contour>
      <point x="2" y="0" type="line"/>
      <point x="475" y="0" type="line"/>
      <point x="522" y="197" type="line"/>
      <point x="461" y="197" type="line"/>
      <point x="451" y="159" type="line" smooth="yes"/>
      <point x="432" y="88"/>
      <point x="397" y="58"/>
      <point x="341" y="58" type="curve" smooth="yes"/>
      <point x="179" y="58" type="line"/>
      <point x="602" y="666" type="line"/>
      <point x="611.99" y="714" type="line"/>
      <point x="163" y="714" type="line"/>
      <point x="114" y="517" type="line"/>
      <point x="176" y="517" type="line"/>
      <point x="192" y="570" type="line" smooth="yes"/>
      <point x="209" y="627"/>
      <point x="241" y="656"/>
      <point x="289" y="656" type="curve" smooth="yes"/>
      <point x="433" y="656" type="line"/>
      <point x="11" y="47" type="line"/>
    </contour>
  </outline>
</glyph>
<glyph name="bracketleft" format="2">
  <advance width="285"/>
  <unicode hex="005B"/>
  <outline>
    <contour>
      <point x="-40" y="-165" type="line"/>
      <point x="169" y="-165" type="line"/>
      <point x="190" y="-70" type="line"/>
      <point x="90" y="-70" type="line"/>
      <point x="239" y="632" type="line"/>
      <point x="339" y="632" type="line"/>
      <point x="359" y="727" type="line"/>
      <point x="150" y="727" type="line"/>
    </contour>
  </outline>
</glyph>
<glyph name="bracketright" format="2">
  <advance width="285"/>
  <unicode hex="005D"/>
  <outline>
    <contour>
      <point x="-73" y="-165" type="line"/>
      <point x="136" y="-165" type="line"/>
      <point x="326" y="727" type="line"/>
      <point x="116" y="727" type="line"/>
      <point x="96" y="632" type="line"/>
      <point x="197" y="632" type="line"/>
      <point x="47" y="-70" type="line"/>
      <point x="-53" y="-70" type="line"/>
    </contour>
  </outline>
</glyph>
<glyph name="asciicircum" format="2">
  <advance width="434"/>
  <unicode hex="005E"/>
  <outline>
    <contour>
      <point x="-6" y="285" type="line"/>
      <point x="108" y="285" type="line"/>
      <point x="264" y="541" type="line"/>
      <point x="326" y="285" type="line"/>
      <point x="435" y="285" type="line"/>
      <point x="331" y="714" type="line"/>
      <point x="261" y="714" type="line"/>
    </contour>
  </outline>
</glyph>
<glyph name="underscore" format="2">
  <advance width="346"/>
  <unicode hex="005F"/>
  <outline>
    <contour>
      <point x="-92" y="-165" type="line"/>
      <point x="255" y="-165" type="line"/>
      <point x="274" y="-73" type="line"/>
      <point x="-74" y="-73" type="line"/>
    </contour>
  </outline>
</glyph>
<glyph name="grave" format="2">
  <advance width="291"/>
  <unicode hex="0060"/>
  <anchor x="253" y="530" name="_top"/>
  <outline>
    <contour>
      <point x="235" y="606" type="curve"/>
      <point x="322" y="606" type="line"/>
      <point x="323" y="618" type="line"/>
      <point x="303" y="674"/>
      <point x="290" y="723"/>
      <point x="280" y="766" type="curve"/>
      <point x="145" y="766" type="line"/>
      <point x="145" y="757" type="line"/>
      <point x="162" y="717"/>
      <point x="210" y="640"/>
    </contour>
  </outline>
</glyph>
<glyph name="grave.serif" format="2">
  <advance width="295"/>
  <unicode hex="0060"/>
  <outline>
    <contour>
      <point x="275" y="606" type="curve"/>
      <point x="327" y="606" type="line"/>
      <point x="330" y="619" type="line"/>
      <point x="313" y="653"/>
      <point x="285" y="720"/>
      <point x="273" y="766" type="curve"/>
      <point x="147" y="766" type="line"/>
      <point x="144" y="756" type="line"/>
      <point x="165" y="715"/>
      <point x="228" y="642"/>
    </contour>
  </outline>
</glyph>
<glyph name="a" format="2">
  <advance width="455"/>
  <unicode hex="0061"/>
  <anchor x="170" y="0" name="bottom"/>
  <anchor x="286" y="545" name="top"/>
  <anchor x="493" y="545" name="topright"/>
  <outline>
    <contour>
      <point x="129" y="-10" type="curve" smooth="yes"/>
      <point x="179" y="-10"/>
      <point x="212" y="23"/>
      <point x="247" y="71" type="curve"/>
      <point x="250" y="71" type="line"/>
      <point x="247" y="0" type="line"/>
      <point x="346" y="0" type="line"/>
      <point x="462" y="545" type="line"/>
      <point x="358" y="545" type="line"/>
      <point x="334" y="478" type="line"/>
      <point x="331" y="478" type="line"/>
      <point x="314" y="532"/>
      <point x="280" y="555"/>
      <point x="236" y="555" type="curve" smooth="yes"/>
      <point x="86" y="555"/>
      <point x="19" y="294"/>
      <point x="19" y="148" type="curve" smooth="yes"/>
      <point x="19" y="49"/>
      <point x="60" y="-10"/>
    </contour>
    <contour>
      <point x="179" y="92" type="curve" smooth="yes"/>
      <point x="155" y="92"/>
      <point x="143" y="116"/>
      <point x="143" y="164" type="curve" smooth="yes"/>
      <point x="143" y="259"/>
      <point x="188" y="450"/>
      <point x="258" y="450" type="curve" smooth="yes"/>
      <point x="285" y="450"/>
      <point x="300" y="427"/>
      <point x="300" y="384" type="curve" smooth="yes"/>
      <point x="300" y="352"/>
      <point x="297" y="316"/>
      <point x="281" y="253" type="curve" smooth="yes"/>
      <point x="263" y="181"/>
      <point x="233" y="92"/>
    </contour>
  </outline>
</glyph>
<glyph name="b.serif" format="2">
  <advance width="518"/>
  <unicode hex="0062"/>
  <anchor x="207" y="0" name="bottom"/>
  <anchor x="369" y="760" name="top"/>
  <anchor x="606" y="760" name="topright"/>
  <outline>
    <contour>
      <point x="224" y="-10" type="curve" smooth="yes"/>
      <point x="395" y="-10"/>
      <point x="505" y="215"/>
      <point x="505" y="379" type="curve" smooth="yes"/>
      <point x="505" y="488"/>
      <point x="456" y="546"/>
      <point x="390" y="546" type="curve" smooth="yes"/>
      <point x="318" y="546"/>
      <point x="273" y="498"/>
      <point x="230" y="407" type="curve"/>
      <point x="226" y="407" type="line"/>
      <point x="234" y="437"/>
      <point x="270" y="532"/>
      <point x="278" y="569" type="curve" smooth="yes"/>
      <point x="318" y="760" type="line"/>
      <point x="114" y="760" type="line"/>
      <point x="104" y="710" type="line"/>
      <point x="125" y="710" type="line" smooth="yes"/>
      <point x="150" y="710"/>
      <point x="164" y="703"/>
      <point x="164" y="679" type="curve" smooth="yes"/>
      <point x="164" y="660"/>
      <point x="160" y="646"/>
      <point x="152" y="609" type="curve" smooth="yes"/>
      <point x="22" y="-3" type="line"/>
      <point x="72" y="-3" type="line"/>
      <point x="121" y="26" type="line"/>
      <point x="141" y="6"/>
      <point x="179" y="-10"/>
    </contour>
    <contour>
      <point x="221" y="50" type="curve" smooth="yes"/>
      <point x="200" y="50"/>
      <point x="183" y="63"/>
      <point x="172" y="80" type="curve"/>
      <point x="213" y="270" type="line" smooth="yes"/>
      <point x="224" y="322"/>
      <point x="277" y="471"/>
      <point x="335" y="471" type="curve" smooth="yes"/>
      <point x="355" y="471"/>
      <point x="373" y="445"/>
      <point x="373" y="377" type="curve" smooth="yes"/>
      <point x="373" y="267"/>
      <point x="318" y="50"/>
    </contour>
  </outline>
</glyph>
<glyph name="c" format="2">
  <advance width="359"/>
  <unicode hex="0063"/>
  <anchor x="122" y="0" name="bottom"/>
  <anchor x="238" y="545" name="top"/>
  <anchor x="397" y="545" name="topright"/>
  <outline>
    <contour>
      <point x="166" y="-10" type="curve" smooth="yes"/>
      <point x="214" y="-10"/>
      <point x="262" y="8"/>
      <point x="293" y="29" type="curve"/>
      <point x="293" y="133" type="line"/>
      <point x="257" y="107"/>
      <point x="224" y="94"/>
      <point x="197" y="94" type="curve" smooth="yes"/>
      <point x="163" y="94"/>
      <point x="146" y="122"/>
      <point x="146" y="178" type="curve" smooth="yes"/>
      <point x="146" y="271"/>
      <point x="183" y="450"/>
      <point x="275" y="450" type="curve" smooth="yes"/>
      <point x="297" y="450"/>
      <point x="322" y="440"/>
      <point x="341" y="425" type="curve"/>
      <point x="390" y="521" type="line"/>
      <point x="356" y="544"/>
      <point x="319" y="555"/>
      <point x="274" y="555" type="curve" smooth="yes"/>
      <point x="91" y="555"/>
      <point x="22" y="324"/>
      <point x="22" y="161" type="curve" smooth="yes"/>
      <point x="22" y="53"/>
      <point x="73" y="-10"/>
    </contour>
  </outline>
</glyph>
<glyph name="c.serif" format="2">
  <advance width="434"/>
  <unicode hex="0063"/>
  <anchor x="190" y="0" name="bottom"/>
  <anchor x="311" y="536" name="top"/>
  <anchor x="471" y="536" name="topright"/>
  <outline>
    <contour>
      <point x="218" y="-10" type="curve" smooth="yes"/>
      <point x="331" y="-10"/>
      <point x="383" y="56"/>
      <point x="383" y="106" type="curve" smooth="yes"/>
      <point x="383" y="121"/>
      <point x="378" y="135"/>
      <point x="371" y="141" type="curve"/>
      <point x="347" y="103"/>
      <point x="314" y="63"/>
      <point x="257" y="63" type="curve" smooth="yes"/>
      <point x="201" y="63"/>
      <point x="171" y="108"/>
      <point x="171" y="193" type="curve" smooth="yes"/>
      <point x="171" y="323"/>
      <point x="230" y="490"/>
      <point x="292" y="490" type="curve" smooth="yes"/>
      <point x="330" y="490"/>
      <point x="348" y="432"/>
      <point x="345" y="363" type="curve"/>
      <point x="423" y="363"/>
      <point x="452" y="404"/>
      <point x="452" y="447" type="curve" smooth="yes"/>
      <point x="452" y="500"/>
      <point x="414" y="546"/>
      <point x="326" y="546" type="curve" smooth="yes"/>
      <point x="142" y="546"/>
      <point x="40" y="335"/>
      <point x="40" y="185" type="curve" smooth="yes"/>
      <point x="40" y="54"/>
      <point x="118" y="-10"/>
    </contour>
  </outline>
</glyph>
<glyph name="d" format="2">
  <advance width="455"/>
  <unicode hex="0064"/>
  <anchor x="172" y="0" name="bottom"/>
  <anchor x="266" y="265" name="center"/>
  <anchor x="333" y="760" name="top"/>
  <anchor x="541" y="760" name="topright"/>
  <outline>
    <contour>
      <point x="128.008" y="-10" type="curve" smooth="yes"/>
      <point x="179" y="-10"/>
      <point x="209" y="17"/>
      <point x="247" y="65" type="curve"/>
      <point x="250" y="65" type="line"/>
      <point x="249" y="0" type="line"/>
      <point x="346" y="0" type="line"/>
      <point x="508" y="760" type="line"/>
      <point x="388" y="760" type="line"/>
      <point x="349" y="579" type="line" smooth="yes"/>
      <point x="344" y="556"/>
      <point x="339" y="523"/>
      <point x="334" y="487" type="curve"/>
      <point x="331" y="487" type="line"/>
      <point x="314" y="533"/>
      <point x="276" y="555"/>
      <point x="230" y="555" type="curve" smooth="yes"/>
      <point x="87" y="555"/>
      <point x="19" y="289"/>
      <point x="19" y="148" type="curve" smooth="yes"/>
      <point x="19" y="49"/>
      <point x="60" y="-10"/>
    </contour>
    <contour>
      <point x="179" y="92" type="curve" smooth="yes"/>
      <point x="155" y="92"/>
      <point x="143" y="116"/>
      <point x="143" y="163" type="curve" smooth="yes"/>
      <point x="143" y="243"/>
      <point x="183" y="450"/>
      <point x="258" y="450" type="curve" smooth="yes"/>
      <point x="286" y="450"/>
      <point x="300" y="428"/>
      <point x="300" y="384" type="curve" smooth="yes"/>
      <point x="300" y="302"/>
      <point x="261" y="92"/>
    </contour>
  </outline>
</glyph>
<glyph name="d.serif" format="2">
  <advance width="552"/>
  <unicode hex="0064"/>
  <anchor x="219" y="0" name="bottom"/>
  <anchor x="333" y="268" name="center"/>
  <anchor x="381" y="760" name="top"/>
  <anchor x="616" y="760" name="topright"/>
  <outline>
    <contour>
      <point x="152" y="-10" type="curve" smooth="yes"/>
      <point x="220" y="-10"/>
      <point x="267" y="33"/>
      <point x="311" y="131" type="curve"/>
      <point x="316" y="131" type="line"/>
      <point x="313" y="115"/>
      <point x="311" y="97"/>
      <point x="311" y="88" type="curve" smooth="yes"/>
      <point x="311" y="17"/>
      <point x="341" y="-10"/>
      <point x="389" y="-10" type="curve" smooth="yes"/>
      <point x="450" y="-10"/>
      <point x="491" y="23"/>
      <point x="521" y="51" type="curve"/>
      <point x="504" y="87" type="line"/>
      <point x="493" y="76"/>
      <point x="476" y="65"/>
      <point x="461" y="65" type="curve" smooth="yes"/>
      <point x="444" y="65"/>
      <point x="434" y="78"/>
      <point x="434" y="106" type="curve" smooth="yes"/>
      <point x="434" y="131"/>
      <point x="443" y="180"/>
      <point x="451" y="215" type="curve" smooth="yes"/>
      <point x="567" y="760" type="line"/>
      <point x="363" y="760" type="line"/>
      <point x="353" y="710" type="line"/>
      <point x="369" y="710" type="line" smooth="yes"/>
      <point x="398" y="710"/>
      <point x="413" y="702"/>
      <point x="413" y="678" type="curve" smooth="yes"/>
      <point x="413" y="662"/>
      <point x="409" y="644"/>
      <point x="404" y="624" type="curve" smooth="yes"/>
      <point x="396" y="580" type="line" smooth="yes"/>
      <point x="393" y="568"/>
      <point x="386" y="538"/>
      <point x="384" y="521" type="curve"/>
      <point x="364" y="536"/>
      <point x="335" y="546"/>
      <point x="304" y="546" type="curve" smooth="yes"/>
      <point x="138" y="546"/>
      <point x="38" y="317"/>
      <point x="38" y="157" type="curve" smooth="yes"/>
      <point x="38" y="64"/>
      <point x="71" y="-10"/>
    </contour>
    <contour>
      <point x="207" y="65" type="curve" smooth="yes"/>
      <point x="185" y="65"/>
      <point x="169" y="89"/>
      <point x="169" y="155" type="curve" smooth="yes"/>
      <point x="169" y="269"/>
      <point x="227" y="487"/>
      <point x="319" y="487" type="curve" smooth="yes"/>
      <point x="337" y="487"/>
      <point x="359" y="476"/>
      <point x="370" y="456" type="curve"/>
      <point x="334" y="288" type="line" smooth="yes"/>
      <point x="312" y="178"/>
      <point x="254" y="65"/>
    </contour>
  </outline>
</glyph>
<glyph name="e" format="2">
  <advance width="422"/>
  <unicode hex="0065"/>
  <anchor x="155" y="0" name="bottom"/>
  <anchor x="267" y="530" name="top"/>
  <anchor x="458" y="530" name="topright"/>
  <outline>
    <contour>
      <point x="182" y="-10" type="curve" smooth="yes"/>
      <point x="235" y="-10"/>
      <point x="283" y="0"/>
      <point x="331" y="31" type="curve"/>
      <point x="331" y="124" type="line"/>
      <point x="283" y="97"/>
      <point x="253" y="88"/>
      <point x="211" y="88" type="curve" smooth="yes"/>
      <point x="163" y="88"/>
      <point x="139" y="114"/>
      <point x="139" y="178" type="curve" smooth="yes"/>
      <point x="139" y="196"/>
      <point x="141" y="215"/>
      <point x="145" y="233" type="curve"/>
      <point x="153" y="233" type="line" smooth="yes"/>
      <point x="311" y="233"/>
      <point x="412" y="300"/>
      <point x="412" y="427" type="curve" smooth="yes"/>
      <point x="412" y="507"/>
      <point x="358" y="554"/>
      <point x="278" y="554" type="curve" smooth="yes"/>
      <point x="110" y="554"/>
      <point x="21" y="358"/>
      <point x="21" y="165" type="curve" smooth="yes"/>
      <point x="21" y="55"/>
      <point x="82" y="-10"/>
    </contour>
    <contour>
      <point x="165" y="320" type="curve"/>
      <point x="162" y="320" type="line"/>
      <point x="184" y="407"/>
      <point x="221" y="459"/>
      <point x="261" y="459" type="curve" smooth="yes"/>
      <point x="287" y="459"/>
      <point x="301" y="442"/>
      <point x="301" y="416" type="curve" smooth="yes"/>
      <point x="301" y="361"/>
      <point x="267" y="320"/>
    </contour>
  </outline>
</glyph>
<glyph name="e.serif" format="2">
  <advance width="440"/>
  <unicode hex="0065"/>
  <anchor x="183" y="0" name="bottom"/>
  <anchor x="321" y="536" name="top"/>
  <anchor x="484" y="536" name="topright"/>
  <outline>
    <contour>
      <point x="217" y="-10" type="curve" smooth="yes"/>
      <point x="332" y="-10"/>
      <point x="386" y="59"/>
      <point x="386" y="110" type="curve" smooth="yes"/>
      <point x="386" y="123"/>
      <point x="382" y="135"/>
      <point x="376" y="141" type="curve"/>
      <point x="353" y="102"/>
      <point x="307" y="63"/>
      <point x="254" y="63" type="curve" smooth="yes"/>
      <point x="199" y="63"/>
      <point x="170" y="104"/>
      <point x="170" y="177" type="curve" smooth="yes"/>
      <point x="170" y="196"/>
      <point x="172" y="214"/>
      <point x="175" y="227" type="curve"/>
      <point x="206" y="227" type="line" smooth="yes"/>
      <point x="348" y="227"/>
      <point x="456" y="325"/>
      <point x="456" y="435" type="curve" smooth="yes"/>
      <point x="456" y="505"/>
      <point x="412" y="546"/>
      <point x="335" y="546" type="curve" smooth="yes"/>
      <point x="146" y="546"/>
      <point x="40" y="336"/>
      <point x="40" y="185" type="curve" smooth="yes"/>
      <point x="40" y="53"/>
      <point x="119" y="-10"/>
    </contour>
    <contour>
      <point x="189" y="280" type="curve" smooth="yes"/>
      <point x="181" y="280" type="line"/>
      <point x="197" y="379"/>
      <point x="246" y="491"/>
      <point x="297" y="491" type="curve" smooth="yes"/>
      <point x="320" y="491"/>
      <point x="333" y="468"/>
      <point x="333" y="430" type="curve" smooth="yes"/>
      <point x="333" y="341"/>
      <point x="269" y="280"/>
    </contour>
  </outline>
</glyph>
<glyph name="f" format="2">
  <advance width="271"/>
  <unicode hex="0066"/>
  <anchor x="-53" y="-240" name="bottom"/>
  <anchor x="292" y="765" name="top"/>
  <anchor x="397" y="765" name="topright"/>
  <outline>
    <contour>
      <point x="-53" y="-240" type="curve" smooth="yes"/>
      <point x="53" y="-240"/>
      <point x="89" y="-166"/>
      <point x="112" y="-54" type="curve" smooth="yes"/>
      <point x="219" y="444" type="line"/>
      <point x="297" y="444" type="line"/>
      <point x="317" y="545" type="line"/>
      <point x="240" y="545" type="line"/>
      <point x="250" y="590" type="line" smooth="yes"/>
      <point x="260" y="634"/>
      <point x="272" y="663"/>
      <point x="303" y="663" type="curve" smooth="yes"/>
      <point x="315" y="663"/>
      <point x="331" y="658"/>
      <point x="344" y="651" type="curve"/>
      <point x="386" y="743" type="line"/>
      <point x="354" y="759"/>
      <point x="321" y="765"/>
      <point x="288" y="765" type="curve" smooth="yes"/>
      <point x="179" y="765"/>
      <point x="149" y="677"/>
      <point x="130" y="589" type="curve" smooth="yes"/>
      <point x="119" y="543" type="line"/>
      <point x="56" y="508" type="line"/>
      <point x="43" y="444" type="line"/>
      <point x="99" y="444" type="line"/>
      <point x="-5" y="-44" type="line" smooth="yes"/>
      <point x="-16" y="-97"/>
      <point x="-25" y="-134"/>
      <point x="-70" y="-134" type="curve" smooth="yes"/>
      <point x="-83" y="-134"/>
      <point x="-105" y="-131"/>
      <point x="-117" y="-126" type="curve"/>
      <point x="-117" y="-231" type="line"/>
      <point x="-95" y="-239"/>
      <point x="-75" y="-240"/>
    </contour>
  </outline>
</glyph>
<glyph name="f.serif" format="2">
  <advance width="341"/>
  <unicode hex="0066"/>
  <anchor x="-72" y="-240" name="bottom"/>
  <anchor x="364" y="770" name="top"/>
  <anchor x="515" y="770" name="topright"/>
  <outline>
    <contour>
      <point x="-72" y="-240" type="curve" smooth="yes"/>
      <point x="14" y="-240"/>
      <point x="132" y="-188"/>
      <point x="173" y="8" type="curve" smooth="yes"/>
      <point x="270" y="471" type="line"/>
      <point x="375" y="471" type="line"/>
      <point x="389" y="536" type="line"/>
      <point x="285" y="536" type="line"/>
      <point x="298" y="600" type="line" smooth="yes"/>
      <point x="314" y="683"/>
      <point x="327" y="712"/>
      <point x="359" y="712" type="curve" smooth="yes"/>
      <point x="390" y="712"/>
      <point x="396" y="667"/>
      <point x="395" y="618" type="curve"/>
      <point x="460" y="618"/>
      <point x="496" y="643"/>
      <point x="496" y="687" type="curve" smooth="yes"/>
      <point x="496" y="735"/>
      <point x="452" y="770"/>
      <point x="367" y="770" type="curve" smooth="yes"/>
      <point x="254" y="770"/>
      <point x="191" y="705"/>
      <point x="163" y="584" type="curve" smooth="yes"/>
      <point x="152" y="536" type="line"/>
      <point x="74" y="515" type="line"/>
      <point x="64" y="471" type="line"/>
      <point x="137" y="471" type="line"/>
      <point x="35" y="-15" type="line" smooth="yes"/>
      <point x="9" y="-142"/>
      <point x="-20" y="-185"/>
      <point x="-72" y="-185" type="curve" smooth="yes"/>
      <point x="-84" y="-185"/>
      <point x="-100" y="-181"/>
      <point x="-109" y="-178" type="curve"/>
      <point x="-122" y="-232" type="line"/>
      <point x="-111" y="-236"/>
      <point x="-88" y="-240"/>
    </contour>
  </outline>
</glyph>
<glyph name="g.serif" format="2">
  <advance width="474"/>
  <unicode hex="0067"/>
  <anchor x="129" y="-240" name="bottom"/>
  <anchor x="294" y="536" name="top"/>
  <anchor x="511" y="536" name="topright"/>
  <outline>
    <contour>
      <point x="131" y="-240" type="curve" smooth="yes"/>
      <point x="300" y="-240"/>
      <point x="393" y="-150"/>
      <point x="393" y="-34" type="curve" smooth="yes"/>
      <point x="393" y="45"/>
      <point x="348" y="85"/>
      <point x="272" y="94" type="curve" smooth="yes"/>
      <point x="180" y="105" type="line" smooth="yes"/>
      <point x="155" y="108"/>
      <point x="136" y="114"/>
      <point x="136" y="134" type="curve" smooth="yes"/>
      <point x="136" y="156"/>
      <point x="162" y="179"/>
      <point x="190" y="191" type="curve"/>
      <point x="201" y="188"/>
      <point x="211" y="187"/>
      <point x="225" y="187" type="curve" smooth="yes"/>
      <point x="368" y="187"/>
      <point x="431" y="314"/>
      <point x="431" y="412" type="curve" smooth="yes"/>
      <point x="431" y="439"/>
      <point x="425" y="465"/>
      <point x="413" y="485" type="curve"/>
      <point x="426" y="495"/>
      <point x="437" y="503"/>
      <point x="453" y="503" type="curve" smooth="yes"/>
      <point x="473" y="503"/>
      <point x="480" y="489"/>
      <point x="478" y="463" type="curve"/>
      <point x="521" y="463"/>
      <point x="533" y="504"/>
      <point x="533" y="534" type="curve" smooth="yes"/>
      <point x="533" y="561"/>
      <point x="518" y="583"/>
      <point x="485" y="583" type="curve" smooth="yes"/>
      <point x="446" y="583"/>
      <point x="415" y="552"/>
      <point x="388" y="514" type="curve"/>
      <point x="366" y="536"/>
      <point x="333" y="546"/>
      <point x="297" y="546" type="curve" smooth="yes"/>
      <point x="154" y="546"/>
      <point x="82" y="415"/>
      <point x="82" y="319" type="curve" smooth="yes"/>
      <point x="82" y="267"/>
      <point x="101" y="228"/>
      <point x="135" y="207" type="curve"/>
      <point x="75" y="176"/>
      <point x="41" y="138"/>
      <point x="41" y="91" type="curve" smooth="yes"/>
      <point x="41" y="57"/>
      <point x="59" y="33"/>
      <point x="79" y="20" type="curve"/>
      <point x="11" y="5"/>
      <point x="-55" y="-40"/>
      <point x="-55" y="-118" type="curve" smooth="yes"/>
      <point x="-55" y="-191"/>
      <point x="-2" y="-240"/>
    </contour>
    <contour>
      <point x="142" y="-183" type="curve" smooth="yes"/>
      <point x="69" y="-183"/>
      <point x="48" y="-151"/>
      <point x="48" y="-109" type="curve" smooth="yes"/>
      <point x="48" y="-58"/>
      <point x="83" y="-15"/>
      <point x="136" y="-7" type="curve"/>
      <point x="204" y="-15" type="line" smooth="yes"/>
      <point x="259" y="-20"/>
      <point x="280" y="-41"/>
      <point x="280" y="-77" type="curve" smooth="yes"/>
      <point x="280" y="-132"/>
      <point x="238" y="-183"/>
    </contour>
    <contour>
      <point x="228" y="247" type="curve" smooth="yes"/>
      <point x="203" y="247"/>
      <point x="189" y="265"/>
      <point x="189" y="310" type="curve" smooth="yes"/>
      <point x="189" y="381"/>
      <point x="223" y="488"/>
      <point x="278" y="488" type="curve" smooth="yes"/>
      <point x="303" y="488"/>
      <point x="317" y="469"/>
      <point x="317" y="426" type="curve" smooth="yes"/>
      <point x="317" y="354"/>
      <point x="285" y="247"/>
    </contour>
  </outline>
</glyph>
<glyph name="h" format="2">
  <advance width="452"/>
  <unicode hex="0068"/>
  <anchor x="171" y="0" name="bottom"/>
  <anchor x="264" y="265" name="center"/>
  <anchor x="332" y="760" name="top"/>
  <anchor x="507" y="760" name="topright"/>
  <outline>
    <contour>
      <point x="-6" y="0" type="line"/>
      <point x="114" y="0" type="line"/>
      <point x="178" y="303" type="line" smooth="yes"/>
      <point x="201" y="409"/>
      <point x="231" y="446"/>
      <point x="268" y="446" type="curve" smooth="yes"/>
      <point x="293" y="446"/>
      <point x="304" y="429"/>
      <point x="304" y="405" type="curve" smooth="yes"/>
      <point x="304" y="378"/>
      <point x="299" y="348"/>
      <point x="292" y="317" type="curve" smooth="yes"/>
      <point x="225" y="0" type="line"/>
      <point x="345" y="0" type="line"/>
      <point x="418" y="346" type="line" smooth="yes"/>
      <point x="424" y="376"/>
      <point x="430" y="412"/>
      <point x="430" y="437" type="curve" smooth="yes"/>
      <point x="430" y="511"/>
      <point x="391" y="555"/>
      <point x="326" y="555" type="curve" smooth="yes"/>
      <point x="276" y="555"/>
      <point x="240" y="530"/>
      <point x="211" y="484" type="curve"/>
      <point x="209" y="484" type="line"/>
      <point x="220" y="519"/>
      <point x="232" y="558"/>
      <point x="239" y="592" type="curve" smooth="yes"/>
      <point x="275" y="760" type="line"/>
      <point x="155" y="760" type="line"/>
    </contour>
  </outline>
</glyph>
<glyph name="h.serif" format="2">
  <advance width="555"/>
  <unicode hex="0068"/>
  <anchor x="228" y="0" name="bottom"/>
  <anchor x="342" y="268" name="center"/>
  <anchor x="390" y="760" name="top"/>
  <anchor x="640" y="760" name="topright"/>
  <outline>
    <contour>
      <point x="412" y="-10" type="curve" smooth="yes"/>
      <point x="474" y="-10"/>
      <point x="517" y="22"/>
      <point x="544" y="55" type="curve"/>
      <point x="525" y="88" type="line"/>
      <point x="506" y="73"/>
      <point x="494" y="65"/>
      <point x="477" y="65" type="curve" smooth="yes"/>
      <point x="459" y="65"/>
      <point x="450" y="80"/>
      <point x="450" y="106" type="curve" smooth="yes"/>
      <point x="450" y="134"/>
      <point x="458" y="170"/>
      <point x="466" y="210" type="curve" smooth="yes"/>
      <point x="488" y="320" type="line" smooth="yes"/>
      <point x="496" y="357"/>
      <point x="507" y="404"/>
      <point x="507" y="439" type="curve" smooth="yes"/>
      <point x="507" y="496"/>
      <point x="484" y="546"/>
      <point x="414" y="546" type="curve" smooth="yes"/>
      <point x="355" y="546"/>
      <point x="302" y="510"/>
      <point x="258" y="441" type="curve"/>
      <point x="256" y="441" type="line"/>
      <point x="261" y="462"/>
      <point x="270" y="497"/>
      <point x="278" y="535" type="curve" smooth="yes"/>
      <point x="325" y="760" type="line"/>
      <point x="119" y="760" type="line"/>
      <point x="109" y="710" type="line"/>
      <point x="125" y="710" type="line" smooth="yes"/>
      <point x="154" y="710"/>
      <point x="168" y="701"/>
      <point x="168" y="677" type="curve" smooth="yes"/>
      <point x="168" y="662"/>
      <point x="163" y="643"/>
      <point x="159" y="620" type="curve" smooth="yes"/>
      <point x="27" y="0" type="line"/>
      <point x="158" y="0" type="line"/>
      <point x="214" y="252" type="line" smooth="yes"/>
      <point x="231" y="328"/>
      <point x="285" y="466"/>
      <point x="339" y="466" type="curve" smooth="yes"/>
      <point x="364" y="466"/>
      <point x="369" y="439"/>
      <point x="369" y="415" type="curve" smooth="yes"/>
      <point x="369" y="381"/>
      <point x="356" y="322"/>
      <point x="350" y="295" type="curve" smooth="yes"/>
      <point x="332" y="209" type="line" smooth="yes"/>
      <point x="320" y="155"/>
      <point x="315" y="111"/>
      <point x="315" y="87" type="curve" smooth="yes"/>
      <point x="315" y="29"/>
      <point x="349" y="-10"/>
    </contour>
  </outline>
</glyph>
<glyph name="i" format="2">
  <advance width="223"/>
  <unicode hex="0069"/>
  <anchor x="56" y="0" name="bottom"/>
  <anchor x="216" y="757" name="top"/>
  <anchor x="307" y="757" name="topright"/>
  <outline>
    <contour>
      <point x="-6" y="0" type="line"/>
      <point x="114" y="0" type="line"/>
      <point x="229" y="545" type="line"/>
      <point x="110" y="545" type="line"/>
    </contour>
    <contour>
      <point x="188" y="616" type="curve" smooth="yes"/>
      <point x="236" y="616"/>
      <point x="268" y="657"/>
      <point x="268" y="707" type="curve" smooth="yes"/>
      <point x="268" y="741"/>
      <point x="247" y="757"/>
      <point x="211" y="757" type="curve" smooth="yes"/>
      <point x="156" y="757"/>
      <point x="131" y="709"/>
      <point x="131" y="667" type="curve" smooth="yes"/>
      <point x="131" y="633"/>
      <point x="150" y="616"/>
    </contour>
  </outline>
</glyph>
<glyph name="i.serif" format="2">
  <advance width="295"/>
  <unicode hex="0069"/>
  <anchor x="90" y="0" name="bottom"/>
  <anchor x="253" y="766" name="top"/>
  <anchor x="380" y="766" name="topright"/>
  <outline>
    <contour>
      <point x="156" y="-10" type="curve" smooth="yes"/>
      <point x="221" y="-10"/>
      <point x="256" y="25"/>
      <point x="284" y="56" type="curve"/>
      <point x="265" y="89" type="line"/>
      <point x="247" y="74"/>
      <point x="235" y="65"/>
      <point x="218" y="65" type="curve" smooth="yes"/>
      <point x="202" y="65"/>
      <point x="192" y="80"/>
      <point x="192" y="107" type="curve" smooth="yes"/>
      <point x="192" y="134"/>
      <point x="199" y="172"/>
      <point x="207" y="213" type="curve" smooth="yes"/>
      <point x="277" y="536" type="line"/>
      <point x="75" y="536" type="line"/>
      <point x="65" y="486" type="line"/>
      <point x="81" y="486" type="line" smooth="yes"/>
      <point x="108" y="486"/>
      <point x="121" y="479"/>
      <point x="121" y="454" type="curve" smooth="yes"/>
      <point x="121" y="441"/>
      <point x="118" y="418"/>
      <point x="112" y="391" type="curve" smooth="yes"/>
      <point x="82" y="247" type="line" smooth="yes"/>
      <point x="66" y="177"/>
      <point x="56" y="120"/>
      <point x="56" y="86" type="curve" smooth="yes"/>
      <point x="56" y="28"/>
      <point x="91" y="-10"/>
    </contour>
    <contour>
      <point x="217" y="634" type="curve" smooth="yes"/>
      <point x="260" y="634"/>
      <point x="303" y="657"/>
      <point x="303" y="710" type="curve" smooth="yes"/>
      <point x="303" y="750"/>
      <point x="271" y="766"/>
      <point x="236" y="766" type="curve" smooth="yes"/>
      <point x="192" y="766"/>
      <point x="152" y="743"/>
      <point x="152" y="689" type="curve" smooth="yes"/>
      <point x="152" y="651"/>
      <point x="180" y="634"/>
    </contour>
  </outline>
</glyph>
<glyph name="j" format="2">
  <advance width="224"/>
  <unicode hex="006A"/>
  <anchor x="-64" y="-240" name="bottom"/>
  <anchor x="216" y="757" name="top"/>
  <anchor x="308" y="757" name="topright"/>
  <outline>
    <contour>
      <point x="-64" y="-240" type="curve" smooth="yes"/>
      <point x="43" y="-240"/>
      <point x="78" y="-167"/>
      <point x="104" y="-47" type="curve" smooth="yes"/>
      <point x="229" y="545" type="line"/>
      <point x="110" y="545" type="line"/>
      <point x="-13" y="-38" type="line" smooth="yes"/>
      <point x="-28" y="-109"/>
      <point x="-41" y="-134"/>
      <point x="-81" y="-134" type="curve" smooth="yes"/>
      <point x="-94" y="-134"/>
      <point x="-115" y="-131"/>
      <point x="-127" y="-125" type="curve"/>
      <point x="-127" y="-231" type="line"/>
      <point x="-106" y="-239"/>
      <point x="-86" y="-240"/>
    </contour>
    <contour>
      <point x="189" y="616" type="curve" smooth="yes"/>
      <point x="237" y="616"/>
      <point x="269" y="657"/>
      <point x="269" y="707" type="curve" smooth="yes"/>
      <point x="269" y="741"/>
      <point x="248" y="757"/>
      <point x="212" y="757" type="curve" smooth="yes"/>
      <point x="157" y="757"/>
      <point x="132" y="709"/>
      <point x="132" y="667" type="curve" smooth="yes"/>
      <point x="132" y="633"/>
      <point x="151" y="616"/>
    </contour>
  </outline>
</glyph>
<glyph name="j.serif" format="2">
  <advance width="281"/>
  <unicode hex="006A"/>
  <anchor x="-36" y="-239" name="bottom"/>
  <anchor x="247" y="766" name="top"/>
  <anchor x="367" y="766" name="topright"/>
  <outline>
    <contour>
      <point x="-36" y="-239" type="curve" smooth="yes"/>
      <point x="44" y="-237"/>
      <point x="124" y="-181"/>
      <point x="160" y="-8" type="curve" smooth="yes"/>
      <point x="276" y="536" type="line"/>
      <point x="75" y="536" type="line"/>
      <point x="65" y="486" type="line"/>
      <point x="80" y="486" type="line" smooth="yes"/>
      <point x="108" y="486"/>
      <point x="120" y="478"/>
      <point x="120" y="451" type="curve" smooth="yes"/>
      <point x="120" y="435"/>
      <point x="117" y="423"/>
      <point x="113" y="402" type="curve" smooth="yes"/>
      <point x="27" y="-8" type="line" smooth="yes"/>
      <point x="-1" y="-141"/>
      <point x="-25" y="-186"/>
      <point x="-75" y="-186" type="curve" smooth="yes"/>
      <point x="-86" y="-186"/>
      <point x="-103" y="-182"/>
      <point x="-110" y="-179" type="curve"/>
      <point x="-122" y="-230" type="line"/>
      <point x="-92" y="-237"/>
      <point x="-72" y="-241"/>
    </contour>
    <contour>
      <point x="217" y="634" type="curve" smooth="yes"/>
      <point x="271" y="634"/>
      <point x="302" y="658"/>
      <point x="302" y="710" type="curve" smooth="yes"/>
      <point x="302" y="750"/>
      <point x="271" y="766"/>
      <point x="236" y="766" type="curve" smooth="yes"/>
      <point x="192" y="766"/>
      <point x="152" y="743"/>
      <point x="152" y="689" type="curve" smooth="yes"/>
      <point x="152" y="651"/>
      <point x="180" y="634"/>
    </contour>
  </outline>
</glyph>
<glyph name="k.serif" format="2">
  <advance width="502"/>
  <unicode hex="006B"/>
  <anchor x="201" y="0" name="bottom"/>
  <anchor x="363" y="760" name="top"/>
  <anchor x="497" y="890" name="topright"/>
  <outline>
    <contour>
      <point x="436" y="-7" type="curve" smooth="yes"/>
      <point x="471" y="-7" type="line"/>
      <point x="482" y="42" type="line"/>
      <point x="451" y="42"/>
      <point x="430" y="64"/>
      <point x="406" y="138" type="curve" smooth="yes"/>
      <point x="337" y="354" type="line"/>
      <point x="301" y="282" type="line"/>
      <point x="393" y="383" type="line" smooth="yes"/>
      <point x="457" y="455"/>
      <point x="503" y="488"/>
      <point x="546" y="488" type="curve"/>
      <point x="555" y="536" type="line"/>
      <point x="347" y="536" type="line"/>
      <point x="337" y="488" type="line"/>
      <point x="366" y="488"/>
      <point x="375" y="480"/>
      <point x="375" y="467" type="curve" smooth="yes"/>
      <point x="375" y="451"/>
      <point x="366" y="435"/>
      <point x="314" y="375" type="curve" smooth="yes"/>
      <point x="209" y="260" type="line"/>
      <point x="230" y="325"/>
      <point x="242" y="386"/>
      <point x="255" y="446" type="curve" smooth="yes"/>
      <point x="325" y="760" type="line"/>
      <point x="120" y="760" type="line"/>
      <point x="109" y="710" type="line"/>
      <point x="130" y="710" type="line" smooth="yes"/>
      <point x="154" y="710"/>
      <point x="167" y="705"/>
      <point x="167" y="678" type="curve" smooth="yes"/>
      <point x="167" y="663"/>
      <point x="164" y="643"/>
      <point x="159" y="620" type="curve" smooth="yes"/>
      <point x="27" y="0" type="line"/>
      <point x="158" y="0" type="line"/>
      <point x="200" y="197" type="line"/>
      <point x="292" y="276" type="line"/>
      <point x="233" y="266" type="line"/>
      <point x="282" y="95" type="line" smooth="yes"/>
      <point x="304" y="16"/>
      <point x="344" y="-7"/>
    </contour>
  </outline>
</glyph>
<glyph name="l" format="2">
  <advance width="221"/>
  <unicode hex="006C"/>
  <anchor x="54" y="0" name="bottom"/>
  <anchor x="148" y="265" name="center"/>
  <anchor x="216" y="760" name="top"/>
  <anchor x="306" y="760" name="topright"/>
  <outline>
    <contour>
      <point x="-7" y="0" type="line"/>
      <point x="113" y="0" type="line"/>
      <point x="275" y="760" type="line"/>
      <point x="155" y="760" type="line"/>
    </contour>
  </outline>
</glyph>
<glyph name="l.serif" format="2">
  <advance width="295"/>
  <unicode hex="006C"/>
  <anchor x="90" y="0" name="bottom"/>
  <anchor x="204" y="268" name="center"/>
  <anchor x="252" y="760" name="top"/>
  <anchor x="380" y="760" name="topright"/>
  <outline>
    <contour>
      <point x="148" y="-10" type="curve" smooth="yes"/>
      <point x="213" y="-10"/>
      <point x="249" y="25"/>
      <point x="276" y="56" type="curve"/>
      <point x="257" y="89" type="line"/>
      <point x="238" y="74"/>
      <point x="224" y="65"/>
      <point x="210" y="65" type="curve" smooth="yes"/>
      <point x="193" y="65"/>
      <point x="184" y="80"/>
      <point x="184" y="107" type="curve" smooth="yes"/>
      <point x="184" y="134"/>
      <point x="191" y="174"/>
      <point x="199" y="213" type="curve" smooth="yes"/>
      <point x="319" y="760" type="line"/>
      <point x="115" y="760" type="line"/>
      <point x="104" y="710" type="line"/>
      <point x="122" y="710" type="line" smooth="yes"/>
      <point x="147" y="710"/>
      <point x="162" y="703"/>
      <point x="162" y="679" type="curve" smooth="yes"/>
      <point x="162" y="663"/>
      <point x="158" y="643"/>
      <point x="153" y="624" type="curve" smooth="yes"/>
      <point x="75" y="254" type="line" smooth="yes"/>
      <point x="59" y="177"/>
      <point x="48" y="124"/>
      <point x="48" y="87" type="curve" smooth="yes"/>
      <point x="48" y="30"/>
      <point x="82" y="-10"/>
    </contour>
  </outline>
</glyph>
<glyph name="m" format="2">
  <advance width="671"/>
  <unicode hex="006D"/>
  <anchor x="280" y="0" name="bottom"/>
  <anchor x="392" y="545" name="top"/>
  <anchor x="707" y="545" name="topright"/>
  <outline>
    <contour>
      <point x="-7" y="0" type="line"/>
      <point x="114" y="0" type="line"/>
      <point x="176" y="292" type="line" smooth="yes"/>
      <point x="190" y="365"/>
      <point x="216" y="446"/>
      <point x="268" y="446" type="curve" smooth="yes"/>
      <point x="289" y="446"/>
      <point x="300" y="432"/>
      <point x="300" y="403" type="curve" smooth="yes"/>
      <point x="300" y="387"/>
      <point x="296" y="362"/>
      <point x="291" y="336" type="curve" smooth="yes"/>
      <point x="219" y="0" type="line"/>
      <point x="339" y="0" type="line"/>
      <point x="407" y="319" type="line" smooth="yes"/>
      <point x="419" y="377"/>
      <point x="444" y="446"/>
      <point x="490" y="446" type="curve" smooth="yes"/>
      <point x="512" y="446"/>
      <point x="523" y="432"/>
      <point x="523" y="402" type="curve" smooth="yes"/>
      <point x="523" y="385"/>
      <point x="519" y="359"/>
      <point x="513" y="332" type="curve" smooth="yes"/>
      <point x="443" y="0" type="line"/>
      <point x="563" y="0" type="line"/>
      <point x="640" y="363" type="line" smooth="yes"/>
      <point x="646" y="392"/>
      <point x="650" y="421"/>
      <point x="650" y="443" type="curve" smooth="yes"/>
      <point x="650" y="515"/>
      <point x="613" y="555"/>
      <point x="549" y="555" type="curve" smooth="yes"/>
      <point x="500" y="555"/>
      <point x="457" y="529"/>
      <point x="426" y="486" type="curve"/>
      <point x="423" y="486" type="line"/>
      <point x="409" y="533"/>
      <point x="377" y="555"/>
      <point x="323" y="555" type="curve" smooth="yes"/>
      <point x="274" y="555"/>
      <point x="232" y="526"/>
      <point x="203" y="479" type="curve"/>
      <point x="199" y="479" type="line"/>
      <point x="206" y="545" type="line"/>
      <point x="109" y="545" type="line"/>
    </contour>
  </outline>
</glyph>
<glyph name="m.serif" format="2">
  <advance width="796"/>
  <unicode hex="006D"/>
  <anchor x="342" y="0" name="bottom"/>
  <anchor x="456" y="536" name="top"/>
  <anchor x="833" y="536" name="topright"/>
  <outline>
    <contour>
      <point x="653" y="-9" type="curve" smooth="yes"/>
      <point x="716" y="-9"/>
      <point x="759" y="25"/>
      <point x="785" y="57" type="curve"/>
      <point x="766" y="89" type="line"/>
      <point x="748" y="74"/>
      <point x="735" y="66"/>
      <point x="718" y="66" type="curve" smooth="yes"/>
      <point x="702" y="66"/>
      <point x="692" y="81"/>
      <point x="692" y="107" type="curve" smooth="yes"/>
      <point x="692" y="134"/>
      <point x="699" y="169"/>
      <point x="708" y="211" type="curve" smooth="yes"/>
      <point x="730" y="316" type="line" smooth="yes"/>
      <point x="738" y="353"/>
      <point x="750" y="405"/>
      <point x="750" y="441" type="curve" smooth="yes"/>
      <point x="750" y="496"/>
      <point x="728" y="545"/>
      <point x="660" y="545" type="curve" smooth="yes"/>
      <point x="592" y="545"/>
      <point x="539" y="512"/>
      <point x="497" y="430" type="curve"/>
      <point x="494" y="430" type="line"/>
      <point x="496" y="436"/>
      <point x="496" y="442"/>
      <point x="496" y="447" type="curve" smooth="yes"/>
      <point x="496" y="497"/>
      <point x="476" y="545"/>
      <point x="411" y="545" type="curve" smooth="yes"/>
      <point x="355" y="545"/>
      <point x="308" y="513"/>
      <point x="258" y="439" type="curve"/>
      <point x="254" y="439" type="line"/>
      <point x="270" y="536" type="line"/>
      <point x="76" y="536" type="line"/>
      <point x="66" y="486" type="line"/>
      <point x="82" y="486" type="line" smooth="yes"/>
      <point x="106" y="486"/>
      <point x="121" y="479"/>
      <point x="121" y="454" type="curve" smooth="yes"/>
      <point x="121" y="439"/>
      <point x="116" y="419"/>
      <point x="112" y="400" type="curve" smooth="yes"/>
      <point x="28" y="0" type="line"/>
      <point x="160" y="0" type="line"/>
      <point x="212" y="252" type="line" smooth="yes"/>
      <point x="228" y="332"/>
      <point x="287" y="466"/>
      <point x="337" y="466" type="curve" smooth="yes"/>
      <point x="357" y="466"/>
      <point x="361" y="443"/>
      <point x="361" y="423" type="curve" smooth="yes"/>
      <point x="361" y="387"/>
      <point x="351" y="334"/>
      <point x="343" y="296" type="curve" smooth="yes"/>
      <point x="327" y="224" type="line" smooth="yes"/>
      <point x="313" y="154"/>
      <point x="295" y="50"/>
      <point x="289" y="0" type="curve"/>
      <point x="425" y="0" type="line"/>
      <point x="430" y="51"/>
      <point x="445" y="156"/>
      <point x="455" y="200" type="curve" smooth="yes"/>
      <point x="469" y="267" type="line" smooth="yes"/>
      <point x="487" y="357"/>
      <point x="536" y="470"/>
      <point x="583" y="469" type="curve" smooth="yes"/>
      <point x="605" y="469"/>
      <point x="610" y="446"/>
      <point x="610" y="422" type="curve" smooth="yes"/>
      <point x="610" y="383"/>
      <point x="598" y="328"/>
      <point x="592" y="297" type="curve" smooth="yes"/>
      <point x="575" y="216" type="line" smooth="yes"/>
      <point x="562" y="160"/>
      <point x="557" y="126"/>
      <point x="557" y="97" type="curve" smooth="yes"/>
      <point x="557" y="42"/>
      <point x="583" y="-9"/>
    </contour>
  </outline>
</glyph>
<glyph name="n" format="2">
  <advance width="452"/>
  <unicode hex="006E"/>
  <anchor x="174" y="0" name="bottom"/>
  <anchor x="287" y="549" name="top"/>
  <anchor x="488" y="545" name="topright"/>
  <outline>
    <contour>
      <point x="-7" y="0" type="line"/>
      <point x="114" y="0" type="line"/>
      <point x="174" y="287" type="line" smooth="yes"/>
      <point x="195" y="383"/>
      <point x="223" y="446"/>
      <point x="270" y="446" type="curve" smooth="yes"/>
      <point x="294" y="446"/>
      <point x="304" y="431"/>
      <point x="304" y="405" type="curve" smooth="yes"/>
      <point x="304" y="383"/>
      <point x="298" y="351"/>
      <point x="292" y="320" type="curve" smooth="yes"/>
      <point x="224" y="0" type="line"/>
      <point x="343.993" y="0" type="line"/>
      <point x="418" y="348" type="line" smooth="yes"/>
      <point x="425" y="384"/>
      <point x="430" y="415"/>
      <point x="430" y="439" type="curve" smooth="yes"/>
      <point x="430" y="525"/>
      <point x="378" y="555"/>
      <point x="321" y="555" type="curve" smooth="yes"/>
      <point x="274" y="555"/>
      <point x="233" y="526"/>
      <point x="203" y="477" type="curve"/>
      <point x="200" y="477" type="line"/>
      <point x="205" y="545" type="line"/>
      <point x="109" y="545" type="line"/>
    </contour>
  </outline>
</glyph>
<glyph name="n.serif" format="2">
  <advance width="563"/>
  <unicode hex="006E"/>
  <anchor x="225" y="0" name="bottom"/>
  <anchor x="339" y="536" name="top"/>
  <anchor x="600" y="536" name="topright"/>
  <outline>
    <contour>
      <point x="413" y="-10" type="curve" smooth="yes"/>
      <point x="476" y="-10"/>
      <point x="519" y="24"/>
      <point x="545" y="55" type="curve"/>
      <point x="526" y="88" type="line"/>
      <point x="508" y="73"/>
      <point x="493" y="65"/>
      <point x="478" y="65" type="curve" smooth="yes"/>
      <point x="461" y="65"/>
      <point x="452" y="80"/>
      <point x="452" y="106" type="curve" smooth="yes"/>
      <point x="452" y="133"/>
      <point x="459" y="169"/>
      <point x="467" y="210" type="curve" smooth="yes"/>
      <point x="489" y="316" type="line" smooth="yes"/>
      <point x="496" y="353"/>
      <point x="508" y="404"/>
      <point x="508" y="439" type="curve" smooth="yes"/>
      <point x="508" y="496"/>
      <point x="485" y="545"/>
      <point x="414" y="545" type="curve" smooth="yes"/>
      <point x="348" y="545"/>
      <point x="303" y="511"/>
      <point x="254" y="439" type="curve"/>
      <point x="251" y="439" type="line"/>
      <point x="259" y="536" type="line"/>
      <point x="76" y="536" type="line"/>
      <point x="66" y="486" type="line"/>
      <point x="82" y="486" type="line" smooth="yes"/>
      <point x="108" y="486"/>
      <point x="121" y="479"/>
      <point x="121" y="456" type="curve" smooth="yes"/>
      <point x="121" y="439"/>
      <point x="116" y="418"/>
      <point x="112" y="400" type="curve" smooth="yes"/>
      <point x="28" y="0" type="line"/>
      <point x="160" y="0" type="line"/>
      <point x="210" y="229" type="line" smooth="yes"/>
      <point x="227" y="317"/>
      <point x="287" y="466"/>
      <point x="340" y="466" type="curve" smooth="yes"/>
      <point x="364" y="466"/>
      <point x="369" y="439"/>
      <point x="369" y="415" type="curve" smooth="yes"/>
      <point x="369" y="381"/>
      <point x="356" y="322"/>
      <point x="350" y="295" type="curve" smooth="yes"/>
      <point x="333" y="215" type="line" smooth="yes"/>
      <point x="322" y="159"/>
      <point x="317" y="126"/>
      <point x="317" y="96" type="curve" smooth="yes"/>
      <point x="315" y="32"/>
      <point x="349" y="-10"/>
    </contour>
  </outline>
</glyph>
<glyph name="o" format="2">
  <advance width="444"/>
  <unicode hex="006F"/>
  <anchor x="166" y="0" name="bottom"/>
  <anchor x="260" y="265" name="center"/>
  <anchor x="278" y="530" name="top"/>
  <anchor x="480" y="530" name="topright"/>
  <outline>
    <contour>
      <point x="173" y="-10" type="curve" smooth="yes"/>
      <point x="349" y="-10"/>
      <point x="423" y="217"/>
      <point x="423" y="377" type="curve" smooth="yes"/>
      <point x="423" y="488"/>
      <point x="367" y="555"/>
      <point x="273" y="555" type="curve" smooth="yes"/>
      <point x="87" y="555"/>
      <point x="21" y="308"/>
      <point x="21" y="167" type="curve" smooth="yes"/>
      <point x="21" y="55"/>
      <point x="77" y="-10"/>
    </contour>
    <contour>
      <point x="187" y="92" type="curve" smooth="yes"/>
      <point x="157" y="92"/>
      <point x="142" y="119"/>
      <point x="142" y="166" type="curve" smooth="yes"/>
      <point x="142" y="259"/>
      <point x="181" y="453"/>
      <point x="257" y="453" type="curve" smooth="yes"/>
      <point x="288" y="453"/>
      <point x="302" y="426"/>
      <point x="302" y="378" type="curve" smooth="yes"/>
      <point x="302" y="277"/>
      <point x="258" y="92"/>
    </contour>
  </outline>
</glyph>
<glyph name="o.serif" format="2">
  <advance width="507"/>
  <unicode hex="006F"/>
  <anchor x="197" y="0" name="bottom"/>
  <anchor x="311" y="268" name="center"/>
  <anchor x="311" y="536" name="top"/>
  <anchor x="544" y="536" name="topright"/>
  <outline>
    <contour>
      <point x="207" y="-10" type="curve" smooth="yes"/>
      <point x="400" y="-10"/>
      <point x="489" y="205"/>
      <point x="489" y="351" type="curve" smooth="yes"/>
      <point x="489" y="489"/>
      <point x="416" y="546"/>
      <point x="325" y="546" type="curve" smooth="yes"/>
      <point x="134" y="546"/>
      <point x="40" y="338"/>
      <point x="40" y="186" type="curve" smooth="yes"/>
      <point x="40" y="55"/>
      <point x="108" y="-10"/>
    </contour>
    <contour>
      <point x="225" y="56" type="curve" smooth="yes"/>
      <point x="191" y="56"/>
      <point x="170" y="86"/>
      <point x="170" y="159" type="curve" smooth="yes"/>
      <point x="170" y="276"/>
      <point x="224" y="483"/>
      <point x="306" y="483" type="curve" smooth="yes"/>
      <point x="339" y="483"/>
      <point x="360" y="453"/>
      <point x="360" y="380" type="curve" smooth="yes"/>
      <point x="360" y="272"/>
      <point x="313" y="56"/>
    </contour>
  </outline>
</glyph>
<glyph name="p" format="2">
  <advance width="453"/>
  <unicode hex="0070"/>
  <anchor x="121" y="-236" name="bottom"/>
  <anchor x="283" y="530" name="top"/>
  <anchor x="489" y="530" name="topright"/>
  <outline>
    <contour>
      <point x="-56" y="-236" type="line"/>
      <point x="63" y="-236" type="line"/>
      <point x="107" y="-31" type="line" smooth="yes"/>
      <point x="111" y="-8"/>
      <point x="117" y="26"/>
      <point x="122" y="62" type="curve"/>
      <point x="125" y="62" type="line"/>
      <point x="140" y="17"/>
      <point x="173" y="-10"/>
      <point x="218" y="-10" type="curve" smooth="yes"/>
      <point x="363" y="-10"/>
      <point x="436" y="240"/>
      <point x="436" y="396" type="curve" smooth="yes"/>
      <point x="436" y="504"/>
      <point x="395" y="555"/>
      <point x="327" y="555" type="curve" smooth="yes"/>
      <point x="280" y="555"/>
      <point x="242" y="530"/>
      <point x="205" y="471" type="curve"/>
      <point x="201" y="471" type="line"/>
      <point x="207" y="545" type="line"/>
      <point x="109" y="545" type="line"/>
    </contour>
    <contour>
      <point x="197" y="95" type="curve" smooth="yes"/>
      <point x="169" y="95"/>
      <point x="155" y="117"/>
      <point x="155" y="162" type="curve" smooth="yes"/>
      <point x="155" y="247"/>
      <point x="200" y="453"/>
      <point x="277" y="453" type="curve" smooth="yes"/>
      <point x="300" y="453"/>
      <point x="312" y="430"/>
      <point x="312" y="381" type="curve" smooth="yes"/>
      <point x="312" y="282"/>
      <point x="267" y="95"/>
    </contour>
  </outline>
</glyph>
<glyph name="p.serif" format="2">
  <advance width="528"/>
  <unicode hex="0070"/>
  <anchor x="64" y="-240" name="bottom"/>
  <anchor x="330" y="536" name="top"/>
  <anchor x="562" y="536" name="topright"/>
  <outline>
    <contour>
      <point x="114" y="396" type="curve" smooth="yes"/>
      <point x="-21" y="-240" type="line"/>
      <point x="195" y="-240" type="line"/>
      <point x="204" y="-190" type="line"/>
      <point x="174" y="-190" type="line" smooth="yes"/>
      <point x="146" y="-190"/>
      <point x="131" y="-185"/>
      <point x="131" y="-156" type="curve" smooth="yes"/>
      <point x="131" y="-138"/>
      <point x="134" y="-121"/>
      <point x="139" y="-100" type="curve" smooth="yes"/>
      <point x="152" y="-35" type="line" smooth="yes"/>
      <point x="156" y="-19"/>
      <point x="159" y="2"/>
      <point x="160" y="13" type="curve"/>
      <point x="183" y="-3"/>
      <point x="213" y="-11"/>
      <point x="240" y="-9" type="curve" smooth="yes"/>
      <point x="418" y="-4"/>
      <point x="512" y="222"/>
      <point x="512" y="380" type="curve" smooth="yes"/>
      <point x="512" y="487"/>
      <point x="465" y="546"/>
      <point x="396" y="546" type="curve" smooth="yes"/>
      <point x="322" y="546"/>
      <point x="281" y="495"/>
      <point x="241" y="424" type="curve"/>
      <point x="235" y="424" type="line"/>
      <point x="257" y="536" type="line"/>
      <point x="78" y="536" type="line"/>
      <point x="68" y="486" type="line"/>
      <point x="84" y="486" type="line" smooth="yes"/>
      <point x="110" y="486"/>
      <point x="123" y="479"/>
      <point x="123" y="454" type="curve" smooth="yes"/>
      <point x="123" y="438"/>
      <point x="119" y="422"/>
    </contour>
    <contour>
      <point x="235" y="49" type="curve" smooth="yes"/>
      <point x="211" y="49"/>
      <point x="189" y="66"/>
      <point x="180" y="79" type="curve"/>
      <point x="218" y="261" type="line"/>
      <point x="234" y="343"/>
      <point x="290" y="471"/>
      <point x="342" y="471" type="curve" smooth="yes"/>
      <point x="373" y="471"/>
      <point x="381" y="424"/>
      <point x="381" y="376" type="curve" smooth="yes"/>
      <point x="381" y="259"/>
      <point x="322" y="49"/>
    </contour>
  </outline>
</glyph>
<glyph name="q" format="2">
  <advance width="456"/>
  <unicode hex="0071"/>
  <anchor x="121" y="-239" name="bottom"/>
  <anchor x="284" y="530" name="top"/>
  <anchor x="492" y="530" name="topright"/>
  <outline>
    <contour>
      <point x="221" y="-24" type="curve" smooth="yes"/>
      <point x="175" y="-239" type="line"/>
      <point x="295" y="-239" type="line"/>
      <point x="462" y="545" type="line"/>
      <point x="357" y="545" type="line"/>
      <point x="335" y="477" type="line"/>
      <point x="333" y="477" type="line"/>
      <point x="319" y="530"/>
      <point x="292" y="555"/>
      <point x="239" y="555" type="curve" smooth="yes"/>
      <point x="88" y="555"/>
      <point x="18" y="287"/>
      <point x="18" y="143" type="curve" smooth="yes"/>
      <point x="18" y="44"/>
      <point x="59" y="-10"/>
      <point x="125" y="-10" type="curve" smooth="yes"/>
      <point x="171" y="-10"/>
      <point x="206" y="10"/>
      <point x="240" y="58" type="curve"/>
      <point x="243" y="58" type="line"/>
      <point x="233" y="26"/>
      <point x="225" y="-6"/>
    </contour>
    <contour>
      <point x="180" y="95" type="curve" smooth="yes"/>
      <point x="155" y="95"/>
      <point x="143" y="117"/>
      <point x="143" y="165" type="curve" smooth="yes"/>
      <point x="143" y="262"/>
      <point x="188" y="450"/>
      <point x="257" y="450" type="curve" smooth="yes"/>
      <point x="285" y="450"/>
      <point x="300" y="428"/>
      <point x="300" y="390" type="curve" smooth="yes"/>
      <point x="300" y="292"/>
      <point x="258" y="95"/>
    </contour>
  </outline>
</glyph>
<glyph name="q.serif" format="2">
  <advance width="522"/>
  <unicode hex="0071"/>
  <anchor x="153" y="-240" name="bottom"/>
  <anchor x="318" y="536" name="top"/>
  <anchor x="559" y="536" name="topright"/>
  <outline>
    <contour>
      <point x="280" y="-40" type="curve" smooth="yes"/>
      <point x="241" y="-240" type="line"/>
      <point x="433" y="-240" type="line"/>
      <point x="444" y="-190" type="line"/>
      <point x="416" y="-190" type="line" smooth="yes"/>
      <point x="394" y="-190"/>
      <point x="375" y="-182"/>
      <point x="375" y="-152" type="curve" smooth="yes"/>
      <point x="375" y="-140"/>
      <point x="380" y="-123"/>
      <point x="384" y="-104" type="curve" smooth="yes"/>
      <point x="520" y="546" type="line"/>
      <point x="478" y="546" type="line"/>
      <point x="427" y="515" type="line"/>
      <point x="393" y="538"/>
      <point x="347" y="546"/>
      <point x="308" y="545" type="curve" smooth="yes"/>
      <point x="145" y="538"/>
      <point x="39" y="320"/>
      <point x="39" y="158" type="curve" smooth="yes"/>
      <point x="39" y="48"/>
      <point x="83" y="-10"/>
      <point x="153" y="-10" type="curve" smooth="yes"/>
      <point x="226" y="-10"/>
      <point x="266" y="38"/>
      <point x="306" y="101" type="curve"/>
      <point x="310" y="101" type="line"/>
      <point x="305" y="82"/>
      <point x="287" y="-4"/>
    </contour>
    <contour>
      <point x="208" y="65" type="curve" smooth="yes"/>
      <point x="185" y="65"/>
      <point x="169" y="91"/>
      <point x="169" y="158" type="curve" smooth="yes"/>
      <point x="169" y="262"/>
      <point x="224" y="487"/>
      <point x="320" y="487" type="curve" smooth="yes"/>
      <point x="345" y="487"/>
      <point x="363" y="474"/>
      <point x="370" y="457" type="curve"/>
      <point x="335" y="289" type="line"/>
      <point x="314" y="185"/>
      <point x="255" y="65"/>
    </contour>
  </outline>
</glyph>
<glyph name="r" format="2">
  <advance width="315"/>
  <unicode hex="0072"/>
  <anchor x="102" y="0" name="bottom"/>
  <anchor x="214" y="530" name="top"/>
  <anchor x="351" y="530" name="topright"/>
  <outline>
    <contour>
      <point x="-7" y="0" type="line"/>
      <point x="113" y="0" type="line"/>
      <point x="172" y="279" type="line" smooth="yes"/>
      <point x="187" y="351"/>
      <point x="222" y="426"/>
      <point x="285" y="426" type="curve" smooth="yes"/>
      <point x="301" y="426"/>
      <point x="315" y="423"/>
      <point x="328" y="418" type="curve"/>
      <point x="364" y="548" type="line"/>
      <point x="348" y="553"/>
      <point x="336" y="555"/>
      <point x="323" y="555" type="curve" smooth="yes"/>
      <point x="268" y="555"/>
      <point x="233" y="526"/>
      <point x="200" y="461" type="curve"/>
      <point x="196" y="461" type="line"/>
      <point x="203" y="545" type="line"/>
      <point x="109" y="545" type="line"/>
    </contour>
  </outline>
</glyph>
<glyph name="r.serif" format="2">
  <advance width="459"/>
  <unicode hex="0072"/>
  <anchor x="97" y="0" name="bottom"/>
  <anchor x="307" y="536" name="top"/>
  <anchor x="496" y="536" name="topright"/>
  <outline>
    <contour>
      <point x="112" y="385" type="curve" smooth="yes"/>
      <point x="30" y="0" type="line"/>
      <point x="161" y="0" type="line"/>
      <point x="199" y="176" type="line" smooth="yes"/>
      <point x="232" y="327"/>
      <point x="296" y="468"/>
      <point x="347" y="468" type="curve" smooth="yes"/>
      <point x="374" y="468"/>
      <point x="382" y="433"/>
      <point x="380" y="375" type="curve"/>
      <point x="447" y="375"/>
      <point x="485" y="409"/>
      <point x="485" y="471" type="curve" smooth="yes"/>
      <point x="485" y="518"/>
      <point x="457" y="546"/>
      <point x="399" y="546" type="curve" smooth="yes"/>
      <point x="331" y="546"/>
      <point x="293" y="497"/>
      <point x="251" y="419" type="curve"/>
      <point x="246" y="419" type="line"/>
      <point x="264" y="536" type="line"/>
      <point x="78" y="536" type="line"/>
      <point x="68" y="486" type="line"/>
      <point x="86" y="486" type="line" smooth="yes"/>
      <point x="106" y="486"/>
      <point x="123" y="480"/>
      <point x="123" y="456" type="curve" smooth="yes"/>
      <point x="123" y="436"/>
      <point x="118" y="412"/>
    </contour>
  </outline>
</glyph>
<glyph name="s" format="2">
  <advance width="353"/>
  <unicode hex="0073"/>
  <anchor x="119" y="0" name="bottom"/>
  <anchor x="235" y="545" name="top"/>
  <anchor x="391" y="545" name="topright"/>
  <outline>
    <contour>
      <point x="123" y="-10" type="curve" smooth="yes"/>
      <point x="237" y="-10"/>
      <point x="303" y="68"/>
      <point x="303" y="169" type="curve" smooth="yes"/>
      <point x="303" y="243"/>
      <point x="278" y="276"/>
      <point x="228" y="322" type="curve" smooth="yes"/>
      <point x="185" y="360"/>
      <point x="178" y="377"/>
      <point x="178" y="404" type="curve" smooth="yes"/>
      <point x="178" y="436"/>
      <point x="198" y="456"/>
      <point x="230" y="456" type="curve" smooth="yes"/>
      <point x="254" y="456"/>
      <point x="291" y="445"/>
      <point x="320" y="421" type="curve"/>
      <point x="368" y="513" type="line"/>
      <point x="333" y="538"/>
      <point x="281" y="555"/>
      <point x="224" y="555" type="curve" smooth="yes"/>
      <point x="114" y="555"/>
      <point x="55" y="480"/>
      <point x="55" y="386" type="curve" smooth="yes"/>
      <point x="55" y="335"/>
      <point x="71" y="294"/>
      <point x="123" y="247" type="curve" smooth="yes"/>
      <point x="167" y="206"/>
      <point x="176" y="184"/>
      <point x="176" y="157" type="curve" smooth="yes"/>
      <point x="176" y="116"/>
      <point x="148" y="95"/>
      <point x="108" y="95" type="curve" smooth="yes"/>
      <point x="73" y="95"/>
      <point x="26" y="110"/>
      <point x="-6" y="134" type="curve"/>
      <point x="-6" y="19" type="line"/>
      <point x="25" y="1"/>
      <point x="63" y="-10"/>
    </contour>
  </outline>
</glyph>
<glyph name="s.serif" format="2">
  <advance width="424"/>
  <unicode hex="0073"/>
  <anchor x="155" y="0" name="bottom"/>
  <anchor x="270" y="536" name="top"/>
  <anchor x="461" y="536" name="topright"/>
  <outline>
    <contour>
      <point x="169" y="-10" type="curve" smooth="yes"/>
      <point x="310" y="-10"/>
      <point x="379" y="59"/>
      <point x="379" y="171" type="curve" smooth="yes"/>
      <point x="379" y="240"/>
      <point x="348" y="283"/>
      <point x="273" y="325" type="curve" smooth="yes"/>
      <point x="221" y="354"/>
      <point x="190" y="384"/>
      <point x="192" y="426" type="curve" smooth="yes"/>
      <point x="194" y="463"/>
      <point x="218" y="492"/>
      <point x="258" y="492" type="curve" smooth="yes"/>
      <point x="308" y="492"/>
      <point x="319" y="433"/>
      <point x="316" y="380" type="curve"/>
      <point x="381" y="380"/>
      <point x="421" y="402"/>
      <point x="421" y="454" type="curve" smooth="yes"/>
      <point x="421" y="501"/>
      <point x="383" y="546"/>
      <point x="271" y="546" type="curve" smooth="yes"/>
      <point x="152" y="546"/>
      <point x="77" y="481"/>
      <point x="77" y="380" type="curve" smooth="yes"/>
      <point x="77" y="308"/>
      <point x="116" y="267"/>
      <point x="185" y="227" type="curve" smooth="yes"/>
      <point x="237" y="197"/>
      <point x="264" y="175"/>
      <point x="264" y="131" type="curve" smooth="yes"/>
      <point x="264" y="79"/>
      <point x="234" y="47"/>
      <point x="187" y="47" type="curve" smooth="yes"/>
      <point x="131" y="47"/>
      <point x="112" y="109"/>
      <point x="115" y="181" type="curve"/>
      <point x="67" y="181"/>
      <point x="16" y="158"/>
      <point x="16" y="96" type="curve" smooth="yes"/>
      <point x="16" y="29"/>
      <point x="76" y="-10"/>
    </contour>
  </outline>
</glyph>
<glyph name="t" format="2">
  <advance width="292"/>
  <unicode hex="0074"/>
  <anchor x="100" y="0" name="bottom"/>
  <anchor x="134" y="265" name="center"/>
  <anchor x="230" y="661" name="top"/>
  <anchor x="318" y="860" name="topright"/>
  <outline>
    <contour>
      <point x="130" y="-10" type="curve" smooth="yes"/>
      <point x="159.993" y="-10"/>
      <point x="205" y="-4"/>
      <point x="235" y="11" type="curve"/>
      <point x="235" y="108" type="line"/>
      <point x="215" y="99"/>
      <point x="192" y="96"/>
      <point x="182" y="96" type="curve" smooth="yes"/>
      <point x="161" y="96"/>
      <point x="153" y="105"/>
      <point x="153" y="127" type="curve" smooth="yes"/>
      <point x="153" y="137"/>
      <point x="156" y="151"/>
      <point x="159" y="166" type="curve" smooth="yes"/>
      <point x="218" y="444" type="line"/>
      <point x="303" y="444" type="line"/>
      <point x="324" y="545" type="line"/>
      <point x="239" y="545" type="line"/>
      <point x="264" y="661" type="line"/>
      <point x="179" y="661" type="line"/>
      <point x="129" y="542" type="line"/>
      <point x="62" y="508" type="line"/>
      <point x="49" y="444" type="line"/>
      <point x="98" y="444" type="line"/>
      <point x="42" y="181" type="line" smooth="yes"/>
      <point x="35" y="147"/>
      <point x="32" y="122"/>
      <point x="32" y="100" type="curve" smooth="yes"/>
      <point x="32" y="35"/>
      <point x="59" y="-10"/>
    </contour>
  </outline>
</glyph>
<glyph name="t.serif" format="2">
  <advance width="345"/>
  <unicode hex="0074"/>
  <anchor x="115" y="0" name="bottom"/>
  <anchor x="169" y="268" name="center"/>
  <anchor x="255" y="659" name="top"/>
  <anchor x="352" y="990" name="topright"/>
  <outline>
    <contour>
      <point x="161" y="-10" type="curve" smooth="yes"/>
      <point x="228" y="-10"/>
      <point x="273" y="18"/>
      <point x="311" y="54" type="curve"/>
      <point x="293" y="91" type="line"/>
      <point x="274" y="78"/>
      <point x="251" y="66"/>
      <point x="229" y="66" type="curve" smooth="yes"/>
      <point x="206" y="66"/>
      <point x="192" y="83"/>
      <point x="192" y="114" type="curve" smooth="yes"/>
      <point x="192" y="135"/>
      <point x="196" y="163"/>
      <point x="203" y="197" type="curve" smooth="yes"/>
      <point x="262" y="471" type="line"/>
      <point x="361" y="471" type="line"/>
      <point x="375" y="536" type="line"/>
      <point x="277" y="536" type="line"/>
      <point x="303" y="659" type="line"/>
      <point x="255" y="659" type="line"/>
      <point x="195" y="556"/>
      <point x="123" y="519"/>
      <point x="77" y="519" type="curve"/>
      <point x="66" y="471" type="line"/>
      <point x="128" y="471" type="line"/>
      <point x="68" y="191" type="line" smooth="yes"/>
      <point x="62" y="164"/>
      <point x="56" y="124"/>
      <point x="56" y="96" type="curve" smooth="yes"/>
      <point x="56" y="27"/>
      <point x="101" y="-10"/>
    </contour>
  </outline>
</glyph>
<glyph name="u" format="2">
  <advance width="452"/>
  <unicode hex="0075"/>
  <anchor x="168" y="0" name="bottom"/>
  <anchor x="284" y="545" name="top"/>
  <anchor x="490" y="545" name="topright"/>
  <outline>
    <contour>
      <point x="130" y="-10" type="curve" smooth="yes"/>
      <point x="177" y="-10"/>
      <point x="217" y="19"/>
      <point x="248" y="66" type="curve"/>
      <point x="251" y="66" type="line"/>
      <point x="247" y="0" type="line"/>
      <point x="342.993" y="0" type="line"/>
      <point x="458" y="545" type="line"/>
      <point x="339" y="545" type="line"/>
      <point x="277" y="259" type="line" smooth="yes"/>
      <point x="257" y="162"/>
      <point x="228" y="98"/>
      <point x="181" y="98" type="curve" smooth="yes"/>
      <point x="158" y="98"/>
      <point x="148" y="114"/>
      <point x="148" y="140" type="curve" smooth="yes"/>
      <point x="148" y="162"/>
      <point x="152" y="191"/>
      <point x="159" y="221" type="curve" smooth="yes"/>
      <point x="227" y="545" type="line"/>
      <point x="108" y="545" type="line"/>
      <point x="32" y="192" type="line" smooth="yes"/>
      <point x="27" y="163"/>
      <point x="22" y="131"/>
      <point x="22" y="107" type="curve" smooth="yes"/>
      <point x="22" y="33"/>
      <point x="60" y="-10"/>
    </contour>
  </outline>
</glyph>
<glyph name="u.serif" format="2">
  <advance width="557"/>
  <unicode hex="0075"/>
  <anchor x="222" y="0" name="bottom"/>
  <anchor x="336" y="536" name="top"/>
  <anchor x="594" y="536" name="topright"/>
  <outline>
    <contour>
      <point x="414" y="-10" type="curve" smooth="yes"/>
      <point x="480" y="-10"/>
      <point x="518" y="24"/>
      <point x="546" y="56" type="curve"/>
      <point x="527" y="88" type="line"/>
      <point x="509" y="73"/>
      <point x="496" y="65"/>
      <point x="479" y="65" type="curve" smooth="yes"/>
      <point x="463" y="65"/>
      <point x="452" y="80"/>
      <point x="452" y="107" type="curve" smooth="yes"/>
      <point x="452" y="137"/>
      <point x="458" y="171"/>
      <point x="464" y="202" type="curve" smooth="yes"/>
      <point x="535" y="536" type="line"/>
      <point x="402" y="536" type="line"/>
      <point x="351" y="292" type="line" smooth="yes"/>
      <point x="329" y="189"/>
      <point x="272" y="75"/>
      <point x="227" y="75" type="curve" smooth="yes"/>
      <point x="204" y="75"/>
      <point x="195" y="95"/>
      <point x="195" y="122" type="curve" smooth="yes"/>
      <point x="195" y="151"/>
      <point x="203" y="198"/>
      <point x="212" y="237" type="curve" smooth="yes"/>
      <point x="275" y="536" type="line"/>
      <point x="77" y="536" type="line"/>
      <point x="66" y="486" type="line"/>
      <point x="81" y="486" type="line" smooth="yes"/>
      <point x="110" y="486"/>
      <point x="122" y="478"/>
      <point x="122" y="456" type="curve" smooth="yes"/>
      <point x="122" y="439"/>
      <point x="117" y="418"/>
      <point x="111" y="388" type="curve" smooth="yes"/>
      <point x="75" y="212" type="line"/>
      <point x="67" y="176"/>
      <point x="57" y="130"/>
      <point x="57" y="95" type="curve" smooth="yes"/>
      <point x="57" y="39"/>
      <point x="79" y="-9"/>
      <point x="145" y="-9" type="curve" smooth="yes"/>
      <point x="222" y="-9"/>
      <point x="266" y="35"/>
      <point x="317" y="111" type="curve"/>
      <point x="322" y="111" type="line"/>
      <point x="320" y="98"/>
      <point x="319" y="87"/>
      <point x="319" y="78" type="curve" smooth="yes"/>
      <point x="319" y="30"/>
      <point x="339.99" y="-10"/>
    </contour>
  </outline>
</glyph>
<glyph name="v" format="2">
  <advance width="399"/>
  <unicode hex="0076"/>
  <anchor x="144" y="0" name="bottom"/>
  <anchor x="256" y="530" name="top"/>
  <anchor x="435" y="530" name="topright"/>
  <outline>
    <contour>
      <point x="76" y="0" type="line"/>
      <point x="205" y="0" type="line"/>
      <point x="452" y="545" type="line"/>
      <point x="326" y="545" type="line"/>
      <point x="204" y="252" type="line" smooth="yes"/>
      <point x="195" y="228"/>
      <point x="184" y="202"/>
      <point x="177" y="176" type="curve"/>
      <point x="173" y="176" type="line"/>
      <point x="177" y="208"/>
      <point x="178" y="256"/>
      <point x="178" y="289" type="curve" smooth="yes"/>
      <point x="180" y="545" type="line"/>
      <point x="60" y="545" type="line"/>
    </contour>
  </outline>
</glyph>
<glyph name="v.serif" format="2">
  <advance width="482"/>
  <unicode hex="0076"/>
  <anchor x="184" y="0" name="bottom"/>
  <anchor x="298" y="536" name="top"/>
  <anchor x="519" y="536" name="topright"/>
  <outline>
    <contour>
      <point x="95" y="433" type="curve"/>
      <point x="134" y="-9" type="line"/>
      <point x="249" y="1" type="line"/>
      <point x="328" y="94"/>
      <point x="476" y="301"/>
      <point x="476" y="458" type="curve" smooth="yes"/>
      <point x="476" y="518"/>
      <point x="450" y="544"/>
      <point x="415" y="544" type="curve" smooth="yes"/>
      <point x="373" y="544"/>
      <point x="348" y="513"/>
      <point x="345" y="461" type="curve"/>
      <point x="374" y="462"/>
      <point x="396" y="444"/>
      <point x="396" y="398" type="curve" smooth="yes"/>
      <point x="396" y="315"/>
      <point x="323" y="175"/>
      <point x="245" y="79" type="curve"/>
      <point x="243" y="79" type="line"/>
      <point x="243" y="112"/>
      <point x="242" y="173"/>
      <point x="237" y="240" type="curve" smooth="yes"/>
      <point x="211" y="536" type="line"/>
      <point x="45" y="536" type="line"/>
      <point x="33" y="486" type="line"/>
      <point x="42" y="486" type="line" smooth="yes"/>
      <point x="73" y="486"/>
      <point x="91" y="475"/>
    </contour>
  </outline>
</glyph>
<glyph name="w" format="2">
  <advance width="613"/>
  <unicode hex="0077"/>
  <anchor x="251" y="0" name="bottom"/>
  <anchor x="363" y="530" name="top"/>
  <anchor x="649" y="530" name="topright"/>
  <outline>
    <contour>
      <point x="52" y="0" type="line"/>
      <point x="185" y="0" type="line"/>
      <point x="300" y="304" type="line" smooth="yes"/>
      <point x="309" y="331"/>
      <point x="318" y="355"/>
      <point x="327" y="383" type="curve"/>
      <point x="329" y="383" type="line"/>
      <point x="327" y="351"/>
      <point x="324" y="320"/>
      <point x="322" y="289" type="curve" smooth="yes"/>
      <point x="307" y="0" type="line"/>
      <point x="446" y="0" type="line"/>
      <point x="665" y="545" type="line"/>
      <point x="545" y="545" type="line"/>
      <point x="458" y="314" type="line" smooth="yes"/>
      <point x="442" y="272"/>
      <point x="428" y="227"/>
      <point x="414" y="185" type="curve"/>
      <point x="412" y="185" type="line"/>
      <point x="414" y="221"/>
      <point x="418" y="263"/>
      <point x="420" y="302" type="curve" smooth="yes"/>
      <point x="431" y="545" type="line"/>
      <point x="295" y="545" type="line"/>
      <point x="200" y="298" type="line" smooth="yes"/>
      <point x="188" y="264"/>
      <point x="174" y="224"/>
      <point x="165" y="192" type="curve"/>
      <point x="162" y="192" type="line"/>
      <point x="165" y="228"/>
      <point x="169" y="267"/>
      <point x="172" y="308" type="curve" smooth="yes"/>
      <point x="181" y="545" type="line"/>
      <point x="64" y="545" type="line"/>
    </contour>
  </outline>
</glyph>
<glyph name="w.serif" format="2">
  <advance width="717"/>
  <unicode hex="0077"/>
  <anchor x="302" y="0" name="bottom"/>
  <anchor x="416" y="536" name="top"/>
  <anchor x="754" y="536" name="topright"/>
  <outline>
    <contour>
      <point x="384" y="-10" type="curve"/>
      <point x="484" y="1" type="line"/>
      <point x="601" y="164"/>
      <point x="717" y="338"/>
      <point x="717" y="470" type="curve" smooth="yes"/>
      <point x="717" y="519"/>
      <point x="698" y="546"/>
      <point x="661" y="546" type="curve" smooth="yes"/>
      <point x="630" y="546"/>
      <point x="600" y="524"/>
      <point x="595" y="479" type="curve"/>
      <point x="615" y="474"/>
      <point x="635" y="452"/>
      <point x="635" y="414" type="curve" smooth="yes"/>
      <point x="635" y="357"/>
      <point x="601" y="227"/>
      <point x="507" y="101" type="curve"/>
      <point x="502" y="101" type="line"/>
      <point x="505" y="176"/>
      <point x="506" y="431"/>
      <point x="501" y="531" type="curve"/>
      <point x="395" y="527" type="line"/>
      <point x="344" y="380"/>
      <point x="283" y="220"/>
      <point x="225" y="112" type="curve"/>
      <point x="219" y="112" type="line"/>
      <point x="223" y="265"/>
      <point x="228" y="397"/>
      <point x="228" y="536" type="curve"/>
      <point x="65" y="536" type="line"/>
      <point x="51" y="486" type="line"/>
      <point x="57" y="486" type="line" smooth="yes"/>
      <point x="87" y="486"/>
      <point x="108" y="475"/>
      <point x="107" y="414" type="curve" smooth="yes"/>
      <point x="98" y="-7" type="line"/>
      <point x="206" y="3" type="line"/>
      <point x="272" y="105"/>
      <point x="359" y="299"/>
      <point x="393" y="402" type="curve"/>
      <point x="394" y="321"/>
      <point x="390" y="113"/>
    </contour>
  </outline>
</glyph>
<glyph name="x" format="2">
  <advance width="405"/>
  <unicode hex="0078"/>
  <anchor x="146" y="0" name="bottom"/>
  <anchor x="258" y="530" name="top"/>
  <anchor x="441" y="530" name="topright"/>
  <outline>
    <contour>
      <point x="-49" y="0" type="line"/>
      <point x="82" y="0" type="line"/>
      <point x="182" y="174" type="line"/>
      <point x="210" y="0" type="line"/>
      <point x="339" y="0" type="line"/>
      <point x="278" y="277" type="line"/>
      <point x="449" y="545" type="line"/>
      <point x="315" y="545" type="line"/>
      <point x="224" y="384" type="line"/>
      <point x="200" y="545" type="line"/>
      <point x="71" y="545" type="line"/>
      <point x="129" y="281" type="line"/>
    </contour>
  </outline>
</glyph>
<glyph name="x.serif" format="2">
  <advance width="498"/>
  <unicode hex="0078"/>
  <anchor x="192" y="0" name="bottom"/>
  <anchor x="306" y="536" name="top"/>
  <anchor x="535" y="536" name="topright"/>
  <outline>
    <contour>
      <point x="-17" y="0" type="line"/>
      <point x="81" y="0" type="line"/>
      <point x="217" y="207" type="line"/>
      <point x="269" y="0" type="line"/>
      <point x="436" y="0" type="line"/>
      <point x="446" y="50" type="line"/>
      <point x="436" y="50" type="line" smooth="yes"/>
      <point x="404" y="50"/>
      <point x="391" y="64"/>
      <point x="374" y="121" type="curve"/>
      <point x="321" y="291" type="line"/>
      <point x="408" y="415" type="line" smooth="yes"/>
      <point x="450" y="473"/>
      <point x="464" y="486"/>
      <point x="495" y="486" type="curve" smooth="yes"/>
      <point x="512" y="486" type="line"/>
      <point x="523" y="536" type="line"/>
      <point x="422" y="536" type="line"/>
      <point x="302" y="342" type="line"/>
      <point x="253" y="536" type="line"/>
      <point x="92" y="536" type="line"/>
      <point x="81" y="486" type="line"/>
      <point x="91" y="486" type="line" smooth="yes"/>
      <point x="122" y="486"/>
      <point x="136" y="473"/>
      <point x="151" y="422" type="curve" smooth="yes"/>
      <point x="201" y="259" type="line"/>
      <point x="93" y="115" type="line" smooth="yes"/>
      <point x="51" y="59"/>
      <point x="35" y="50"/>
      <point x="4" y="50" type="curve" smooth="yes"/>
      <point x="-6" y="50" type="line"/>
    </contour>
  </outline>
</glyph>
<glyph name="y" format="2">
  <advance width="402"/>
  <unicode hex="0079"/>
  <anchor x="94" y="-240" name="bottom"/>
  <anchor x="257" y="530" name="top"/>
  <anchor x="438" y="530" name="topright"/>
  <outline>
    <contour>
      <point x="-11" y="-240" type="curve" smooth="yes"/>
      <point x="84" y="-240"/>
      <point x="128" y="-175"/>
      <point x="171" y="-82" type="curve" smooth="yes"/>
      <point x="456" y="545" type="line"/>
      <point x="330" y="545" type="line"/>
      <point x="220" y="284" type="line" smooth="yes"/>
      <point x="211" y="261"/>
      <point x="197" y="220"/>
      <point x="186" y="183" type="curve"/>
      <point x="183" y="183" type="line"/>
      <point x="185" y="218"/>
      <point x="186" y="254"/>
      <point x="186" y="288" type="curve" smooth="yes"/>
      <point x="185" y="545" type="line"/>
      <point x="64" y="545" type="line"/>
      <point x="88" y="7" type="line"/>
      <point x="54" y="-68" type="line" smooth="yes"/>
      <point x="35" y="-109"/>
      <point x="19" y="-132"/>
      <point x="-14" y="-132" type="curve" smooth="yes"/>
      <point x="-27" y="-132"/>
      <point x="-41" y="-129"/>
      <point x="-56" y="-123" type="curve"/>
      <point x="-76" y="-231" type="line"/>
      <point x="-59" y="-237"/>
      <point x="-38" y="-240"/>
    </contour>
  </outline>
</glyph>
<glyph name="y.serif" format="2">
  <advance width="485"/>
  <unicode hex="0079"/>
  <anchor x="30" y="-240" name="bottom"/>
  <anchor x="276" y="536" name="top"/>
  <anchor x="512" y="536" name="topright"/>
  <outline>
    <contour>
      <point x="-60" y="-240" type="curve" smooth="yes"/>
      <point x="109" y="-240"/>
      <point x="179" y="-139"/>
      <point x="306" y="64" type="curve"/>
      <point x="413" y="233"/>
      <point x="478" y="364"/>
      <point x="478" y="467" type="curve" smooth="yes"/>
      <point x="478" y="517"/>
      <point x="456" y="545"/>
      <point x="412" y="545" type="curve" smooth="yes"/>
      <point x="374" y="545"/>
      <point x="344" y="516"/>
      <point x="342" y="466" type="curve"/>
      <point x="371" y="466"/>
      <point x="392" y="444"/>
      <point x="392" y="403" type="curve" smooth="yes"/>
      <point x="392" y="327"/>
      <point x="331" y="213"/>
      <point x="262" y="102" type="curve"/>
      <point x="259" y="102" type="line"/>
      <point x="259" y="133"/>
      <point x="247" y="222"/>
      <point x="239" y="274" type="curve" smooth="yes"/>
      <point x="198" y="536" type="line"/>
      <point x="32" y="536" type="line"/>
      <point x="19" y="486" type="line"/>
      <point x="27" y="486" type="line" smooth="yes"/>
      <point x="59" y="486"/>
      <point x="74" y="473"/>
      <point x="82" y="433" type="curve" smooth="yes"/>
      <point x="164" y="-32" type="line"/>
      <point x="102" y="-114"/>
      <point x="38" y="-179"/>
      <point x="-61" y="-179" type="curve" smooth="yes"/>
      <point x="-95" y="-179"/>
      <point x="-119" y="-172"/>
      <point x="-131" y="-167" type="curve"/>
      <point x="-145" y="-222" type="line"/>
      <point x="-122" y="-233"/>
      <point x="-91" y="-240"/>
    </contour>
  </outline>
</glyph>
